{
.appVersion = "3184";
.formatVersion = 3;
axes = (
{
name = Weight;
tag = wght;
}
);
classes = (
{
code = "whiteparenleft.full
anglebracketleft
blacklenticularbracketleft
braceleft.full
cornerbracketleft
dblanglebracketleft
tortoiseshellbracketleft
whitecornerbracketleft
whitelenticularbracketleft
whitesquarebracketleft
whitetortoiseshellbracketleft
bracketleft.full
parenleft.full
quotedblleft
quoteleft
quotedoubleprimeReversed
quotedblleft.ss02
quoteleft.ss02
";
name = OpeningBracket;
notes = "前括号";
},
{
code = "whiteparenright.full
anglebracketright
blacklenticularbracketright
braceright.full
cornerbracketright
dblanglebracketright
tortoiseshellbracketright
whitecornerbracketright
whitelenticularbracketright
whitesquarebracketright
whitetortoiseshellbracketright
bracketright.full
parenright.full
quotedblright
quoteright
lowquotedoubleprime
quotedoubleprime
quotedblright.ss02
quoteright.ss02
";
name = ClosingBracket;
notes = "后括号";
},
{
code = "comma-han
comma-han.uv001
period-han
period-han.uv001
colon.full
comma.full
exclam.full
period.full
question.full
semicolon.full
colon.full.uv001
comma.full.uv001
exclam.full.uv001
period.full.uv001
question.full.uv001
semicolon.full.uv001
comma.full.ss02
semicolon.full.ss02
";
name = PeriodComma;
notes = "居角标点";
},
{
code = "anglebracketleft.vert
blacklenticularbracketleft.vert
cornerbracketleft.vert
dblanglebracketleft.vert
tortoiseshellbracketleft.vert
whiteparenleft.full.vert
whitesquarebracketleft.vert
whitetortoiseshellbracketleft.vert
whitecornerbracketleft.vert
whitelenticularbracketleft.vert
braceleft.full.vert
bracketleft.full.vert
parenleft.full.vert
quoteleft.vert
quotedoubleprimeReversed.vert
";
name = OpeningBracketVert;
notes = "竖排前括号";
},
{
code = "anglebracketright.vert
blacklenticularbracketright.vert
cornerbracketright.vert
dblanglebracketright.vert
tortoiseshellbracketright.vert
whiteparenright.full.vert
whitesquarebracketright.vert
whitetortoiseshellbracketright.vert
whitecornerbracketright.vert

glyphs = (
{
glyphname = A.full;
lastChange = "2022-10-29 09:24:18 +0000";
layers = (
{
layerId = m002;
shapes = (
{
closed = 1;
nodes = (
(221,-38,l),
(333,249,l),
(669,249,l),
(779,-38,l),
(824,-38,l),
(526,750,l),
(485,750,l),
(176,-38,l)
);
},
{
closed = 1;
nodes = (
(468,598,ls),
(479,626,o),
(493,664,o),
(504,699,c),
(517,662,o),
(531,622,o),
(539,598,cs),
(653,289,l),
(349,289,l)
);
}
);
width = 1000;
},
{
layerId = m01;
shapes = (
{
closed = 1;
nodes = (
(249,-38,l),
(343,205,l),
(654,205,l),
(749,-38,l),
(851,-38,l),
(545,751,l),
(456,751,l),
(149,-38,l)
);
},
{
closed = 1;
nodes = (
(465,531,ls),
(474,556,o),
(488,603,o),
(499,648,c),
(507,621,o),
(530,548,o),
(536,531,cs),
(624,293,l),
(376,293,l)
);
}
);
width = 1000;
},
{
layerId = m003;
shapes = (
{
closed = 1;
nodes = (
(334,-38,l),
(374,109,l),
(629,109,l),
(667,-38,l),
(899,-38,l),
(640,751,l),
(357,751,l),
(101,-38,l)
);
},
{
closed = 1;
nodes = (
(452,412,ls),
(465,464,o),
(490,567,o),
(500,621,c),
(510,567,o),
(540,454,o),
(551,412,cs),
(585,283,l),
(418,283,l)
);
}
);
width = 1000;
}
);
unicode = 65313;
},
{
glyphname = B.full;
lastChange = "2022-10-29 09:29:06 +0000";
layers = (
{
layerId = m002;
shapes = (
{
closed = 1;
nodes = (
(476,-38,ls),
(639,-38,o),
(755,27,o),
(755,185,cs),
(755,289,o),
(703,355,o),
(580,375,c),
(580,377,l),
(680,394,o),
(734,467,o),
(734,557,cs),
(734,687,o),
(651,747,o),
(458,747,cs),
(245,747,l),
(245,-38,l)
);
},
{
closed = 1;
nodes = (
(288,355,l),
(469,355,ls),
(624,355,o),
(710,311,o),
(710,186,cs),
(710,60,o),
(627,1,o),
(480,1,cs),
(288,1,l)
);
},
{
closed = 1;
nodes = (
(288,708,l),
(457,708,ls),
(619,708,o),
(689,664,o),
(689,554,cs),
(689,448,o),
(620,393,o),
(470,393,cs),
(288,393,l)
);
}
);
width = 1000;
},
{
layerId = m01;
shapes = (
{
closed = 1;
nodes = (
(502,-38,ls),
(670,-38,o),
(774,42,o),
(774,185,cs),
(774,307,o),
(697,357,o),
(598,373,c),
(598,379,l),
(695,397,o),
(748,460,o),
(748,553,cs),
(748,696,o),
(646,747,o),
(450,747,cs),
(226,747,l),
(226,-38,l)
);
},
{
closed = 1;
nodes = (
(325,331,l),
(475,331,l),
(620,331,o),
(669,276,o),
(669,193,cs),
(669,105,o),
(622,46,o),
(483,46,cs),
(325,46,l)
);
},
{
closed = 1;
nodes = (
(325,663,l),
(454,663,ls),
(587,663,o),
(646,628,o),
(646,542,cs),
(646,457,o),
(604,413,o),
(470,413,cs),
(325,413,l)
);
}
);
width = 1000;
},
{
layerId = m003;
shapes = (
{
closed = 1;
nodes = (
(503,-38,ls),
(688,-38,o),
(803,49,o),
(803,192,cs),
(803,317,o),
(728,357,o),
(664,373,c),
(664,379,l),
(722,393,o),
(787,448,o),
(787,552,cs),
(787,678,o),
(698,747,o),
(471,747,cs),
(198,747,l),
(198,-38,l)
);
},
{
closed = 1;
nodes = (
(410,291,l),
(480,291,l),
(559,291,o),
(584,251,o),
(584,210,cs),
(584,161,o),
(558,126,o),
(485,126,cs),
(410,126,l)
);
},
{
closed = 1;
nodes = (
(410,587,l),
(469,587,ls),
(537,587,o),
(569,564,o),
(569,521,cs),
(569,479,o),
(544,446,o),
(474,446,cs),
(410,446,l)
);
}
);
width = 1000;
}
);
unicode = 65314;
},
{
glyphname = C.full;
lastChange = "2022-10-29 09:32:20 +0000";
layers = (
{
layerId = m002;
shapes = (
{
closed = 1;
nodes = (
(650,719,o),
(711,709,o),
(771,678,c),
(788,717,l),
(728,744,o),
(661,758,o),
(588,758,cs),
(350,758,o),
(212,588,o),
(212,358,cs),
(212,114,o),
(333,-49,o),
(568,-49,cs),
(655,-49,o),
(720,-35,o),
(771,-15,c),
(771,23,l),
(716,4,o),
(652,-9,o),
(570,-9,cs),
(361,-9,o),
(256,136,o),
(256,357,cs),
(256,568,o),
(377,719,o),
(588,719,cs)
);
}
);
width = 1000;
},
{
layerId = m01;
shapes = (
{
closed = 1;
nodes = (
(650,672,o),
(709,651,o),
(757,629,c),
(797,712,l),
(738,742,o),
(661,758,o),
(580,758,cs),
(337,758,o),
(203,593,o),
(203,356,cs),
(203,108,o),
(323,-49,o),
(564,-49,cs),
(651,-49,o),
(708,-39,o),
(766,-17,c),
(766,69,l),
(707,51,o),
(646,38,o),
(578,38,cs),
(398,38,o),
(308,160,o),
(308,355,cs),
(308,552,o),
(411,672,o),
(579,672,cs)
);
}
);
width = 1000;
},
{
layerId = m003;
shapes = (
{
closed = 1;
nodes = (
(633,585,o),
(690,564,o),
(747,536,c),
(812,703,l),
(732,742,o),
(645,758,o),
(569,758,cs),
(323,758,o),
(188,590,o),
(188,353,cs),
(188,114,o),
(299,-49,o),
(556,-49,cs),
(637,-49,o),
(708,-36,o),
(778,-5,c),
(778,174,l),
(712,147,o),
(648,125,o),
(579,125,cs),
(462,125,o),
(406,203,o),
(406,351,cs),
(406,498,o),
(466,585,o),
(567,585,cs)
);
}
);
width = 1000;
}
);
unicode = 65315;
},
{
glyphname = D.full;
lastChange = "2022-10-29 09:41:40 +0000";
layers = (
{
layerId = m002;
shapes = (
{
closed = 1;
nodes = (
(794,612,o),
(665,747,o),
(411,747,cs),
(206,747,l),
(206,-38,l),
(386,-38,ls),
(657,-38,o),
(794,100,o),
(794,362,cs)
);
},
{
closed = 1;
nodes = (
(750,120,o),
(630,2,o),
(386,2,cs),
(249,2,l),
(249,708,l),
(399,708,ls),
(641,708,o),
(750,589,o),
(750,361,cs)
);
}
);
width = 1000;
},
{
layerId = m01;
shapes = (
{
closed = 1;
nodes = (
(815,614,o),
(664,747,o),
(427,747,cs),
(185,747,l),
(185,-38,l),
(404,-38,ls),
(663,-38,o),
(815,97,o),
(815,362,cs)
);
},
{
closed = 1;
nodes = (
(710,152,o),
(603,47,o),
(391,47,cs),
(284,47,l),
(284,663,l),
(413,663,ls),
(602,663,o),
(710,568,o),
(710,359,cs)
);
}
);
width = 1000;
},
{
layerId = m003;
shapes = (
{
closed = 1;
nodes = (
(833,614,o),
(691,747,o),
(438,747,cs),
(167,747,l),
(167,-38,l),
(421,-38,ls),
(671,-38,o),
(833,97,o),
(833,371,cs)
);
},
{
closed = 1;
nodes = (
(613,210,o),
(555,136,o),
(426,136,cs),
(379,136,l),
(379,576,l),
(441,576,ls),
(556,576,o),
(613,507,o),
(613,364,cs)
);
}
);
width = 1000;
}
);
unicode = 65316;
},
{
glyphname = E.full;
lastChange = "2022-10-29 09:44:12 +0000";
layers = (
{
layerId = m002;
shapes = (
{
closed = 1;
nodes = (
(720,-38,l),
(720,2,l),
(323,2,l),
(323,356,l),
(698,356,l),
(698,395,l),
(323,395,l),
(323,708,l),
(720,708,l),
(720,747,l),
(280,747,l),
(280,-38,l)
);
}
);
width = 1000;
},
{
layerId = m01;
shapes = (
{
closed = 1;
nodes = (
(731,-38,l),
(731,50,l),
(368,50,l),
(368,328,l),
(710,328,l),
(710,416,l),
(368,416,l),
(368,659,l),
(731,659,l),
(731,747,l),
(269,747,l),
(269,-38,l)
);
}
);
width = 1000;
},
{
layerId = m003;
shapes = (
{
closed = 1;
nodes = (
(764,-38,l),
(764,127,l),
(424,127,l),
(424,283,l),
(750,283,l),
(750,448,l),
(424,448,l),
(424,582,l),
(764,582,l),
(764,747,l),
(236,747,l),
(236,-38,l)
);
}
);
width = 1000;
}
);
unicode = 65317;
},
{
glyphname = F.full;
lastChange = "2022-10-29 09:47:55 +0000";
layers = (
{
layerId = m002;
shapes = (
{
closed = 1;
nodes = (
(323,-38,l),
(323,318,l),
(699,318,l),
(699,358,l),
(323,358,l),
(323,708,l),
(720,708,l),
(720,747,l),
(280,747,l),
(280,-38,l)
);
}
);
width = 1000;
},
{
layerId = m01;
shapes = (
{
closed = 1;
nodes = (
(368,-38,l),
(368,294,l),
(710,294,l),
(710,382,l),
(368,382,l),
(368,659,l),
(731,659,l),
(731,747,l),
(269,747,l),
(269,-38,l)
);
}
);
width = 1000;
},
{
layerId = m003;
shapes = (
{
closed = 1;
nodes = (
(424,-38,l),
(424,254,l),
(751,254,l),
(751,419,l),
(424,419,l),
(424,582,l),
(764,582,l),
(764,747,l),
(236,747,l),
(236,-38,l)
);
}
);
width = 1000;
}
);
unicode = 65318;
},
{
glyphname = G.full;
lastChange = "2022-10-29 09:49:48 +0000";
layers = (
{
layerId = m002;
shapes = (
{
closed = 1;
nodes = (
(659,-49,o),
(745,-34,o),
(818,-1,c),
(818,353,l),
(525,353,l),
(525,313,l),
(776,313,l),
(776,25,l),
(722,4,o),
(656,-9,o),
(574,-9,cs),
(356,-9,o),
(226,104,o),
(226,354,cs),
(226,567,o),
(359,721,o),
(579,721,cs),
(649,721,o),
(721,707,o),
(791,673,c),
(810,712,l),
(740,745,o),
(664,761,o),
(580,761,cs),
(331,761,o),
(182,588,o),
(182,353,cs),
(182,97,o),
(316,-49,o),
(568,-49,cs)
);
}
);
width = 1000;
},
{
layerId = m01;
shapes = (
{
closed = 1;
nodes = (
(660,-49,o),
(741,-36,o),
(826,-8,c),
(826,377,l),
(554,377,l),
(554,289,l),
(727,289,l),
(727,56,l),
(688,46,o),
(642,37,o),
(573,37,cs),
(362,37,o),
(277,167,o),
(277,355,cs),
(277,551,o),
(387,672,o),
(575,672,cs),
(650,672,o),
(722,651,o),
(778,626,c),
(815,712,l),
(748,741,o),
(669,758,o),
(581,758,cs),
(323,758,o),
(174,600,o),
(174,355,cs),
(174,106,o),
(306,-49,o),
(550,-49,cs)
);
}
);
width = 1000;
},
{
layerId = m003;
shapes = (
{
closed = 1;
nodes = (
(652,-49,o),
(760,-29,o),
(842,-2,c),
(842,422,l),
(503,422,l),
(503,258,l),
(642,258,l),
(642,135,l),
(624,130,o),
(581,126,o),
(556,126,cs),
(441,126,o),
(377,205,o),
(377,351,cs),
(377,479,o),
(431,585,o),
(572,585,cs),
(641,585,o),
(702,570,o),
(758,543,c),
(825,709,l),
(760,738,o),
(669,758,o),
(571,758,cs),
(303,758,o),
(158,603,o),
(158,357,cs),
(158,82,o),
(311,-49,o),
(538,-49,cs)
);
}
);
width = 1000;
}
);
unicode = 65319;
},
{
glyphname = H.full;
lastChange = "2022-10-29 09:54:10 +0000";
layers = (
{
layerId = m002;
shapes = (
{
closed = 1;
nodes = (
(263,-38,l),
(263,355,l),
(737,355,l),
(737,-38,l),
(780,-38,l),
(780,747,l),
(737,747,l),
(737,394,l),
(263,394,l),
(263,747,l),
(220,747,l),
(220,-38,l)
);
}
);
width = 1000;
},
{
layerId = m01;
shapes = (
{
closed = 1;
nodes = (
(299,-38,l),
(299,328,l),
(701,328,l),
(701,-38,l),
(800,-38,l),
(800,747,l),
(701,747,l),
(701,415,l),
(299,415,l),
(299,747,l),
(200,747,l),
(200,-38,l)
);
}
);
width = 1000;
},
{
layerId = m003;
shapes = (
{
closed = 1;
nodes = (
(377,-38,l),
(377,282,l),
(623,282,l),
(623,-38,l),
(837,-38,l),
(837,747,l),
(623,747,l),
(623,456,l),
(377,456,l),
(377,747,l),
(163,747,l),
(163,-38,l)
);
}
);
width = 1000;
}
);
unicode = 65320;
},
{
glyphname = I.full;
lastChange = "2022-10-29 09:55:48 +0000";
layers = (
{
layerId = m002;
shapes = (
{
closed = 1;
nodes = (
(665,-38,l),
(665,-6,l),
(521,-1,l),
(521,710,l),
(665,716,l),
(665,747,l),
(335,747,l),
(335,716,l),
(478,710,l),
(478,-1,l),
(335,-6,l),
(335,-38,l)
);
}
);
width = 1000;
},
{
layerId = m01;
shapes = (
{
closed = 1;
nodes = (
(709,-38,l),
(709,30,l),
(548,45,l),
(548,665,l),
(709,679,l),
(709,747,l),
(291,747,l),
(291,679,l),
(449,665,l),
(449,45,l),
(291,30,l),
(291,-38,l)
);
}
);
width = 1000;
},
{
layerId = m003;
shapes = (
{
closed = 1;
nodes = (
(753,-38,l),
(753,100,l),
(592,117,l),
(592,592,l),
(753,610,l),
(753,747,l),
(247,747,l),
(247,610,l),
(407,592,l),
(407,117,l),
(247,100,l),
(247,-38,l)
);
}
);
width = 1000;
}
);
unicode = 65321;
},
{
glyphname = J.full;
lastChange = "2022-10-29 09:59:28 +0000";
layers = (
{
layerId = m002;
shapes = (
{
closed = 1;
nodes = (
(619,-53,o),
(672,35,o),
(672,182,cs),
(672,747,l),
(629,747,l),
(629,192,ls),
(629,54,o),
(586,-14,o),
(479,-14,cs),
(415,-14,o),
(367,9,o),
(328,34,c),
(328,-10,l),
(371,-36,o),
(419,-53,o),
(480,-53,cs)
);
}
);
width = 1000;
},
{
layerId = m01;
shapes = (
{
closed = 1;
nodes = (
(620,-49,o),
(701,41,o),
(701,201,cs),
(701,747,l),
(602,747,l),
(602,214,ls),
(602,89,o),
(546,42,o),
(459,42,cs),
(399,42,o),
(333,62,o),
(299,76,c),
(299,-17,l),
(340,-36,o),
(410,-49,o),
(466,-49,cs)
);
}
);
width = 1000;
},
{
layerId = m003;
shapes = (
{
closed = 1;
nodes = (
(672,-49,o),
(748,43,o),
(748,256,cs),
(748,747,l),
(558,747,l),
(558,282,ls),
(558,175,o),
(532,118,o),
(416,118,cs),
(388,118,o),
(328,122,o),
(253,138,c),
(253,-30,l),
(325,-43,o),
(399,-49,o),
(453,-49,cs)
);
}
);
width = 1000;
}
);
unicode = 65322;
},
{
glyphname = K.full;
lastChange = "2022-10-29 10:01:44 +0000";
layers = (
{
layerId = m002;
shapes = (
{
closed = 1;
nodes = (
(286,-38,l),
(286,281,l),
(393,387,l),
(705,-38,l),
(757,-38,l),
(425,417,l),
(750,747,l),
(694,747,l),
(357,403,ls),
(332,377,o),
(308,351,o),
(286,327,c),
(286,747,l),
(243,747,l),
(243,-38,l)
);
}
);
width = 1000;
},
{
layerId = m01;
shapes = (
{
closed = 1;
nodes = (
(312,-38,l),
(312,267,l),
(392,337,l),
(671,-38,l),
(787,-38,l),
(464,405,l),
(775,747,l),
(660,747,l),
(447,510,ls),
(402,459,o),
(356,410,o),
(312,360,c),
(312,747,l),
(213,747,l),
(213,-38,l)
);
}
);
width = 1000;
},
{
layerId = m003;
shapes = (
{
closed = 1;
nodes = (
(376,-38,l),
(376,225,l),
(438,262,l),
(594,-38,l),
(833,-38,l),
(590,395,l),
(838,747,l),
(606,747,l),
(441,507,ls),
(419,476,o),
(393,441,o),
(376,406,c),
(376,747,l),
(162,747,l),
(162,-38,l)
);
}
);
width = 1000;
}
);
unicode = 65323;
},
{
glyphname = L.full;
lastChange = "2022-10-29 10:08:09 +0000";
layers = (
{
layerId = m002;
shapes = (
{
closed = 1;
nodes = (
(713,-38,l),
(713,2,l),
(330,2,l),
(330,747,l),
(287,747,l),
(287,-38,l)
);
}
);
width = 1000;
},
{
layerId = m01;
shapes = (
{
closed = 1;
nodes = (
(721,-38,l),
(721,50,l),
(378,50,l),
(378,747,l),
(279,747,l),
(279,-38,l)
);
}
);
width = 1000;
},
{
layerId = m003;
shapes = (
{
closed = 1;
nodes = (
(757,-38,l),
(757,134,l),
(455,134,l),
(455,747,l),
(243,747,l),
(243,-38,l)
);
}
);
width = 1000;
}
);
unicode = 65324;
},
{
glyphname = M.full;
lastChange = "2022-10-29 10:13:13 +0000";
layers = (
{
layerId = m002;
shapes = (
{
closed = 1;
nodes = (
(185,-38,l),
(185,581,ls),
(185,624,o),
(185,659,o),
(183,697,c),
(186,697,l),
(482,-38,l),
(516,-38,l),
(813,696,l),
(815,696,l),
(814,657,o),
(813,621,o),
(813,588,cs),
(813,-38,l),
(856,-38,l),
(856,747,l),
(791,747,l),
(502,32,l),
(498,32,l),
(210,747,l),
(144,747,l),
(144,-38,l)
);
}
);
width = 1000;
},
{
layerId = m01;
shapes = (
{
closed = 1;
nodes = (
(199,-38,l),
(199,438,ls),
(199,522,o),
(196,606,o),
(191,651,c),
(196,651,l),
(454,-38,l),
(536,-38,l),
(798,650,l),
(802,650,l),
(799,602,o),
(794,521,o),
(794,445,cs),
(794,-38,l),
(892,-38,l),
(892,747,l),
(747,747,l),
(501,104,l),
(496,104,l),
(254,747,l),
(108,747,l),
(108,-38,l)
);
}
);
width = 1000;
},
{
layerId = m003;
shapes = (
{
closed = 1;
nodes = (
(241,-38,l),
(241,303,ls),
(241,383,o),
(233,483,o),
(230,527,c),
(234,527,l),
(395,-38,l),
(597,-38,l),
(756,526,l),
(760,526,l),
(757,482,o),
(752,380,o),
(752,306,cs),
(752,-38,l),
(947,-38,l),
(947,747,l),
(664,747,l),
(504,190,l),
(499,190,l),
(336,747,l),
(53,747,l),
(53,-38,l)
);
}
);
width = 1000;
}
);
unicode = 65325;
},
{
glyphname = N.full;
lastChange = "2022-10-29 10:15:57 +0000";
layers = (
{
layerId = m002;
shapes = (
{
closed = 1;
nodes = (
(262,-38,l),
(262,491,ls),
(262,554,o),
(261,608,o),
(260,668,c),
(262,668,l),
(739,-38,l),
(778,-38,l),
(778,747,l),
(737,747,l),
(737,216,ls),
(737,161,o),
(738,94,o),
(739,43,c),
(737,43,l),
(262,747,l),
(222,747,l),
(222,-38,l)
);
}
);
width = 1000;
},
{
layerId = m01;
shapes = (
{
closed = 1;
nodes = (
(280,-38,l),
(280,401,ls),
(280,481,o),
(275,563,o),
(271,614,c),
(276,614,l),
(696,-38,l),
(811,-38,l),
(811,747,l),
(719,747,l),
(719,304,ls),
(719,233,o),
(724,133,o),
(727,97,c),
(722,97,l),
(303,747,l),
(189,747,l),
(189,-38,l)
);
}
);
width = 1000;
},
{
layerId = m003;
shapes = (
{
closed = 1;
nodes = (
(314,-38,l),
(314,316,ls),
(314,375,o),
(309,465,o),
(304,515,c),
(309,515,l),
(596,-38,l),
(874,-38,l),
(874,747,l),
(685,747,l),
(685,392,ls),
(685,338,o),
(689,252,o),
(693,202,c),
(689,202,l),
(403,747,l),
(126,747,l),
(126,-38,l)
);
}
);
width = 1000;
}
);
unicode = 65326;
},
{
glyphname = O.full;
lastChange = "2022-10-29 10:21:33 +0000";
layers = (
{
layerId = m002;
shapes = (
{
closed = 1;
nodes = (
(848,609,o),
(725,760,o),
(505,760,cs),
(275,760,o),
(152,595,o),
(152,357,cs),
(152,118,o),
(267,-49,o),
(499,-49,cs),
(733,-49,o),
(848,118,o),
(848,356,cs)
);
},
{
closed = 1;
nodes = (
(196,569,o),
(297,720,o),
(505,720,cs),
(699,720,o),
(803,586,o),
(803,356,cs),
(803,138,o),
(708,-9,o),
(501,-9,cs),
(294,-9,o),
(196,141,o),
(196,357,cs)
);
}
);
width = 1000;
},
{
layerId = m01;
shapes = (
{
closed = 1;
nodes = (
(862,600,o),
(737,760,o),
(502,760,cs),
(255,760,o),
(138,598,o),
(138,357,cs),
(138,114,o),
(255,-49,o),
(501,-49,cs),
(737,-49,o),
(862,113,o),
(862,356,cs)
);
},
{
closed = 1;
nodes = (
(242,554,o),
(323,673,o),
(502,673,cs),
(679,673,o),
(758,554,o),
(758,356,cs),
(758,158,o),
(679,37,o),
(501,37,cs),
(323,37,o),
(242,158,o),
(242,356,cs)
);
}
);
width = 1000;
},
{
layerId = m003;
shapes = (
{
closed = 1;
nodes = (
(882,600,o),
(770,760,o),
(501,760,cs),
(236,760,o),
(118,601,o),
(118,357,cs),
(118,112,o),
(236,-49,o),
(500,-49,cs),
(770,-49,o),
(882,113,o),
(882,356,cs)
);
},
{
closed = 1;
nodes = (
(342,498,o),
(386,586,o),
(501,586,cs),
(617,586,o),
(658,498,o),
(658,356,cs),
(658,214,o),
(617,128,o),
(500,128,cs),
(387,128,o),
(342,214,o),
(342,356,cs)
);
}
);
width = 1000;
}
);
unicode = 65327;
},
{
glyphname = P.full;
lastChange = "2022-10-29 10:25:07 +0000";
layers = (
{
layerId = m002;
shapes = (
{
closed = 1;
nodes = (
(311,-38,l),
(311,292,l),
(441,292,ls),
(627,292,o),
(732,367,o),
(732,530,cs),
(732,681,o),
(638,747,o),
(456,747,cs),
(268,747,l),
(268,-38,l)
);
},
{
closed = 1;
nodes = (
(311,708,l),
(451,708,ls),
(612,708,o),
(687,654,o),
(687,527,cs),
(687,377,o),
(589,331,o),
(436,331,cs),
(311,331,l)
);
}
);
width = 1000;
},
{
layerId = m01;
shapes = (
{
closed = 1;
nodes = (
(348,-38,l),
(348,268,l),
(438,268,ls),
(673,268,o),
(751,387,o),
(751,516,cs),
(751,663,o),
(662,747,o),
(457,747,cs),
(249,747,l),
(249,-38,l)
);
},
{
closed = 1;
nodes = (
(348,663,l),
(448,663,l),
(586,663,o),
(649,613,o),
(649,512,cs),
(649,397,o),
(576,353,o),
(427,353,cs),
(348,353,l)
);
}
);
width = 1000;
},
{
layerId = m003;
shapes = (
{
closed = 1;
nodes = (
(427,-38,l),
(427,223,l),
(487,223,ls),
(710,223,o),
(785,355,o),
(785,498,cs),
(785,657,o),
(686,747,o),
(487,747,cs),
(215,747,l),
(215,-38,l)
);
},
{
closed = 1;
nodes = (
(427,576,l),
(482,576,l),
(544,576,o),
(573,542,o),
(573,492,cs),
(573,421,o),
(524,395,o),
(469,395,cs),
(427,395,l)
);
}
);
width = 1000;
}
);
unicode = 65328;
},
{
glyphname = Q.full;
lastChange = "2022-11-09 01:06:23 +0000";
layers = (
{
layerId = m002;
shapes = (
{
closed = 1;
nodes = (
(849,609,o),
(725,760,o),
(505,760,cs),
(276,760,o),
(152,595,o),
(152,357,cs),
(152,118,o),
(268,-49,o),
(500,-49,cs),
(513,-49,o),
(525,-48,o),
(538,-47,c),
(688,-225,l),
(749,-225,l),
(586,-40,l),
(761,-6,o),
(849,150,o),
(849,356,cs)
);
},
{
closed = 1;
nodes = (
(196,569,o),
(298,720,o),
(505,720,cs),
(699,720,o),
(804,586,o),
(804,356,cs),
(804,138,o),
(709,-9,o),
(501,-9,cs),
(294,-9,o),
(196,141,o),
(196,357,cs)
);
}
);
vertOrigin = 105;
width = 1000;
},
{
layerId = m01;
shapes = (
{
closed = 1;
nodes = (
(863,600,o),
(738,760,o),
(502,760,cs),
(256,760,o),
(138,598,o),
(138,357,cs),
(138,114,o),
(256,-49,o),
(501,-49,cs),
(510,-49,o),
(520,-48,o),
(529,-48,c),
(680,-225,l),
(822,-225,l),
(634,-29,l),
(785,21,o),
(863,163,o),
(863,356,cs)
);
},
{
closed = 1;
nodes = (
(243,554,o),
(324,673,o),
(502,673,cs),
(679,673,o),
(759,554,o),
(759,356,cs),
(759,158,o),
(679,37,o),
(501,37,cs),
(324,37,o),
(243,158,o),
(243,356,cs)
);
}
);
vertOrigin = 105;
width = 1000;
},
{
layerId = m003;
shapes = (
{
closed = 1;
nodes = (
(882,600,o),
(769,760,o),
(501,760,cs),
(236,760,o),
(118,601,o),
(118,357,cs),
(118,112,o),
(236,-49,o),
(500,-49,cs),
(501,-49,o),
(506,-49,o),
(508,-49,c),
(640,-225,l),
(904,-225,l),
(712,-4,l),
(832,62,o),
(882,192,o),
(882,356,cs)
);
},
{
closed = 1;
nodes = (
(341,498,o),
(385,586,o),
(501,586,cs),
(616,586,o),
(658,498,o),
(658,356,cs),
(658,214,o),
(616,128,o),
(500,128,cs),
(387,128,o),
(341,214,o),
(341,356,cs)
);
}
);
vertOrigin = 105;
width = 1000;
}
);
unicode = 65329;
},
{
glyphname = R.full;
lastChange = "2022-10-29 10:31:41 +0000";
layers = (
{
layerId = m002;
shapes = (
{
closed = 1;
nodes = (
(290,-38,l),
(290,309,l),
(495,309,l),
(701,-38,l),
(753,-38,l),
(537,321,l),
(642,349,o),
(711,419,o),
(711,536,cs),
(711,697,o),
(614,747,o),
(431,747,cs),
(247,747,l),
(247,-38,l)
);
},
{
closed = 1;
nodes = (
(290,708,l),
(425,708,ls),
(588,708,o),
(666,667,o),
(666,535,cs),
(666,414,o),
(584,347,o),
(456,347,cs),
(290,347,l)
);
}
);
width = 1000;
},
{
layerId = m01;
shapes = (
{
closed = 1;
nodes = (
(319,-38,l),
(319,287,l),
(475,287,l),
(665,-38,l),
(781,-38,l),
(565,314,l),
(644,342,o),
(722,399,o),
(722,524,cs),
(722,674,o),
(631,747,o),
(436,747,cs),
(220,747,l),
(220,-38,l)
);
},
{
closed = 1;
nodes = (
(319,662,l),
(431,662,l),
(559,662,o),
(620,622,o),
(620,520,cs),
(620,421,o),
(564,370,o),
(436,370,cs),
(319,370,l)
);
}
);
width = 1000;
},
{
layerId = m003;
shapes = (
{
closed = 1;
nodes = (
(376,-38,l),
(376,248,l),
(430,248,l),
(596,-38,l),
(837,-38,l),
(608,304,l),
(690,350,o),
(741,420,o),
(741,515,cs),
(741,668,o),
(634,747,o),
(421,747,cs),
(163,747,l),
(163,-38,l)
);
},
{
closed = 1;
nodes = (
(376,587,l),
(418,587,l),
(495,587,o),
(526,556,o),
(526,505,cs),
(526,432,o),
(480,408,o),
(415,408,cs),
(376,408,l)
);
}
);
width = 1000;
}
);
unicode = 65330;
},
{
glyphname = S.full;
lastChange = "2022-10-29 10:34:20 +0000";
layers = (
{
layerId = m002;
shapes = (
{
closed = 1;
nodes = (
(740,291,o),
(650,334,o),
(510,379,cs),
(394,417,o),
(312,450,o),
(312,562,cs),
(312,669,o),
(404,719,o),
(516,719,cs),
(576,719,o),
(639,708,o),
(704,679,c),
(721,717,l),
(657,745,o),
(591,758,o),
(518,758,cs),
(378,758,o),
(268,690,o),
(268,560,cs),
(268,431,o),
(355,387,o),
(484,345,cs),
(620,300,o),
(696,265,o),
(696,161,cs),
(696,45,o),
(598,-9,o),
(476,-9,cs),
(388,-9,o),
(317,7,o),
(260,29,c),
(260,-16,l),
(311,-34,o),
(375,-49,o),
(473,-49,cs),
(623,-49,o),
(740,21,o),
(740,162,cs)
);
}
);
width = 1000;
},
{
layerId = m01;
shapes = (
{
closed = 1;
nodes = (
(748,295,o),
(672,347,o),
(534,399,cs),
(406,446,o),
(362,478,o),
(362,557,cs),
(362,625,o),
(413,672,o),
(510,672,cs),
(579,672,o),
(644,653,o),
(699,630,c),
(729,714,l),
(670,741,o),
(598,758,o),
(513,758,cs),
(364,758,o),
(262,683,o),
(262,558,cs),
(262,436,o),
(330,373,o),
(464,325,cs),
(606,273,o),
(649,240,o),
(649,163,cs),
(649,85,o),
(589,37,o),
(472,37,cs),
(388,37,o),
(305,60,o),
(252,83,c),
(252,-12,l),
(301,-36,o),
(380,-49,o),
(468,-49,cs),
(639,-49,o),
(748,32,o),
(748,172,cs)
);
}
);
width = 1000;
},
{
layerId = m003;
shapes = (
{
closed = 1;
nodes = (
(775,323,o),
(709,379,o),
(595,431,cs),
(478,483,o),
(441,501,o),
(441,538,cs),
(441,567,o),
(465,589,o),
(520,589,cs),
(576,589,o),
(643,569,o),
(710,538,c),
(775,702,l),
(710,731,o),
(629,758,o),
(526,758,cs),
(350,758,o),
(231,680,o),
(231,529,cs),
(231,393,o),
(304,339,o),
(421,285,cs),
(523,239,o),
(563,223,o),
(563,182,cs),
(563,148,o),
(534,124,o),
(471,124,cs),
(401,124,o),
(310,147,o),
(225,190,c),
(225,1,l),
(300,-35,o),
(359,-49,o),
(467,-49,cs),
(682,-49,o),
(775,72,o),
(775,201,cs)
);
}
);
width = 1000;
}
);
unicode = 65331;
},
{
glyphname = T.full;
lastChange = "2022-10-29 10:38:25 +0000";
layers = (
{
layerId = m002;
shapes = (
{
closed = 1;
nodes = (
(521,-38,l),
(521,708,l),
(779,708,l),
(779,747,l),
(221,747,l),
(221,708,l),
(478,708,l),
(478,-38,l)
);
}
);
width = 1000;
},
{
layerId = m01;
shapes = (
{
closed = 1;
nodes = (
(550,-38,l),
(550,661,l),
(794,661,l),
(794,747,l),
(206,747,l),
(206,661,l),
(451,661,l),
(451,-38,l)
);
}
);
width = 1000;
},
{
layerId = m003;
shapes = (
{
closed = 1;
nodes = (
(596,-38,l),
(596,582,l),
(808,582,l),
(808,747,l),
(192,747,l),
(192,582,l),
(403,582,l),
(403,-38,l)
);
}
);
width = 1000;
}
);
unicode = 65332;
},
{
glyphname = U.full;
lastChange = "2022-10-29 10:40:17 +0000";
layers = (
{
layerId = m002;
shapes = (
{
closed = 1;
nodes = (
(790,747,l),
(749,747,l),
(749,233,ls),
(749,75,o),
(654,-9,o),
(500,-9,cs),
(342,-9,o),
(253,76,o),
(253,243,cs),
(253,747,l),
(210,747,l),
(210,241,ls),
(210,54,o),
(314,-49,o),
(498,-49,cs),
(676,-49,o),
(790,50,o),
(790,239,cs)
);
}
);
width = 1000;
},
{
layerId = m01;
shapes = (
{
closed = 1;
nodes = (
(803,747,l),
(705,747,l),
(705,239,ls),
(705,120,o),
(644,37,o),
(502,37,cs),
(365,37,o),
(297,111,o),
(297,238,cs),
(297,747,l),
(198,747,l),
(198,241,ls),
(198,67,o),
(301,-49,o),
(497,-49,cs),
(705,-49,o),
(803,76,o),
(803,239,cs)
);
}
);
width = 1000;
},
{
layerId = m003;
shapes = (
{
closed = 1;
nodes = (
(836,747,l),
(624,747,l),
(624,288,ls),
(624,175,o),
(587,128,o),
(501,128,cs),
(419,128,o),
(377,175,o),
(377,287,cs),
(377,747,l),
(164,747,l),
(164,270,ls),
(164,67,o),
(281,-49,o),
(497,-49,cs),
(724,-49,o),
(836,76,o),
(836,274,cs)
);
}
);
width = 1000;
}
);
unicode = 65333;
},
{
glyphname = V.full;
lastChange = "2022-10-29 11:02:09 +0000";
layers = (
{
layerId = m002;
shapes = (
{
closed = 1;
nodes = (
(520,-38,l),
(814,747,l),
(768,747,l),
(543,145,ls),
(524,92,o),
(510,53,o),
(501,17,c),
(490,53,o),
(474,98,o),
(457,145,cs),
(231,747,l),
(186,747,l),
(479,-38,l)
);
}
);
width = 1000;
},
{
layerId = m01;
shapes = (
{
closed = 1;
nodes = (
(550,-38,l),
(830,747,l),
(726,747,l),
(550,246,ls),
(526,180,o),
(510,124,o),
(500,72,c),
(489,124,o),
(474,179,o),
(451,244,cs),
(273,747,l),
(170,747,l),
(451,-38,l)
);
}
);
width = 1000;
},
{
layerId = m003;
shapes = (
{
closed = 1;
nodes = (
(624,-38,l),
(882,747,l),
(644,747,l),
(535,347,ls),
(522,302,o),
(504,208,o),
(500,164,c),
(497,208,o),
(475,304,o),
(464,349,cs),
(357,747,l),
(118,747,l),
(375,-38,l)
);
}
);
width = 1000;
}
);
unicode = 65334;
},
{
glyphname = W.full;
lastChange = "2022-10-29 14:38:52 +0000";
layers = (
{
layerId = m002;
shapes = (
{
closed = 1;
nodes = (
(300,-38,l),
(473,596,ls),
(482,629,o),
(489,656,o),
(495,690,c),
(502,654,o),
(512,623,o),
(524,577,cs),
(697,-38,l),
(738,-38,l),
(954,747,l),
(909,747,l),
(750,172,ls),
(733,112,o),
(726,74,o),
(717,28,c),
(707,73,o),
(698,113,o),
(680,172,cs),
(518,747,l),
(475,747,l),
(316,175,ls),
(300,118,o),
(290,76,o),
(280,31,c),
(271,76,o),
(259,116,o),
(245,173,cs),
(90,747,l),
(46,747,l),
(259,-38,l)
);
}
);
width = 1000;
},
{
layerId = m01;
shapes = (
{
closed = 1;
nodes = (
(310,-38,l),
(459,474,ls),
(479,541,o),
(494,612,o),
(496,632,c),
(499,612,o),
(517,540,o),
(536,477,cs),
(689,-38,l),
(789,-38,l),
(998,747,l),
(894,747,l),
(773,269,ls),
(756,200,o),
(741,135,o),
(735,81,c),
(727,131,o),
(713,202,o),
(692,270,cs),
(548,747,l),
(446,747,l),
(307,273,ls),
(288,208,o),
(273,138,o),
(265,81,c),
(257,136,o),
(245,200,o),
(228,268,cs),
(106,747,l),
(2,747,l),
(210,-38,l)
);
}
);
width = 1000;
},
{
layerId = m003;
shapes = (
{
closed = 1;
nodes = (
(401,-38,l),
(470,304,ls),
(475,329,o),
(497,443,o),
(501,497,c),
(506,443,o),
(527,329,o),
(532,304,cs),
(600,-38,l),
(850,-38,l),
(1010,747,l),
(805,747,l),
(736,353,ls),
(722,278,o),
(707,183,o),
(703,146,c),
(694,232,o),
(662,389,o),
(650,450,cs),
(590,747,l),
(412,747,l),
(350,450,ls),
(337,387,o),
(307,235,o),
(297,146,c),
(295,164,o),
(280,259,o),
(263,354,cs),
(195,747,l),
(-10,747,l),
(151,-38,l)
);
}
);
width = 1000;
}
);
unicode = 65335;
},
{
glyphname = X.full;
lastChange = "2022-10-29 11:19:04 +0000";
layers = (
{
layerId = m002;
shapes = (
{
closed = 1;
nodes = (
(258,-38,l),
(501,338,l),
(741,-38,l),
(790,-38,l),
(529,370,l),
(771,747,l),
(722,747,l),
(503,401,l),
(284,747,l),
(235,747,l),
(475,369,l),
(210,-38,l)
);
}
);
width = 1000;
},
{
layerId = m01;
shapes = (
{
closed = 1;
nodes = (
(287,-38,l),
(498,303,l),
(706,-38,l),
(818,-38,l),
(556,373,l),
(799,747,l),
(695,747,l),
(501,439,l),
(309,747,l),
(199,747,l),
(443,371,l),
(182,-38,l)
);
}
);
width = 1000;
},
{
layerId = m003;
shapes = (
{
closed = 1;
nodes = (
(345,-38,l),
(497,207,l),
(650,-38,l),
(895,-38,l),
(628,347,l),
(876,747,l),
(634,747,l),
(498,504,l),
(356,747,l),
(121,747,l),
(366,364,l),
(105,-38,l)
);
}
);
width = 1000;
}
);
unicode = 65336;
},
{
glyphname = Y.full;
lastChange = "2022-10-29 11:21:59 +0000";
layers = (
{
layerId = m002;
shapes = (
{
closed = 1;
nodes = (
(523,-38,l),
(523,265,l),
(784,747,l),
(737,747,l),
(501,307,l),
(264,747,l),
(216,747,l),
(480,260,l),
(480,-38,l)
);
}
);
width = 1000;
},
{
layerId = m01;
shapes = (
{
closed = 1;
nodes = (
(550,-38,l),
(550,267,l),
(811,747,l),
(705,747,l),
(500,361,l),
(297,747,l),
(189,747,l),
(451,262,l),
(451,-38,l)
);
}
);
width = 1000;
},
{
layerId = m003;
shapes = (
{
closed = 1;
nodes = (
(607,-38,l),
(607,269,l),
(865,747,l),
(635,747,l),
(500,456,l),
(366,747,l),
(135,747,l),
(393,262,l),
(393,-38,l)
);
}
);
width = 1000;
}
);
unicode = 65337;
},
{
glyphname = Z.full;
lastChange = "2022-10-29 11:26:53 +0000";
layers = (
{
layerId = m002;
shapes = (
{
closed = 1;
nodes = (
(776,-38,l),
(776,2,l),
(282,2,l),
(762,717,l),
(762,747,l),
(252,747,l),
(252,708,l),
(706,708,l),
(224,-7,l),
(224,-38,l)
);
}
);
width = 1000;
},
{
layerId = m01;
shapes = (
{
closed = 1;
nodes = (
(772,-38,l),
(772,50,l),
(348,50,l),
(761,673,l),
(761,747,l),
(241,747,l),
(241,659,l),
(641,659,l),
(228,37,l),
(228,-38,l)
);
}
);
width = 1000;
},
{
layerId = m003;
shapes = (
{
closed = 1;
nodes = (
(806,-38,l),
(806,134,l),
(457,134,l),
(797,617,l),
(797,747,l),
(202,747,l),
(202,576,l),
(534,576,l),
(194,93,l),
(194,-38,l)
);
}
);
width = 1000;
}
);
unicode = 65338;
},
{
glyphname = a.full;
lastChange = "2022-10-31 03:27:56 +0000";
layers = (
{
layerId = m002;
shapes = (
{
closed = 1;
nodes = (
(461,555,o),
(397,536,o),
(341,510,c),
(354,472,l),
(415,502,o),
(468,516,o),
(527,516,cs),
(624,516,o),
(672,467,o),
(672,342,cs),
(672,298,l),
(562,291,ls),
(385,282,o),
(285,224,o),
(285,108,cs),
(285,10,o),
(348,-49,o),
(462,-49,cs),
(578,-49,o),
(636,3,o),
(671,70,c),
(673,70,l),
(681,-38,l),
(715,-38,l),
(715,350,ls),
(715,492,o),
(652,555,o),
(528,555,cs)
);
},
{
closed = 1;
nodes = (
(672,261,l),
(672,203,ls),
(671,73,o),
(604,-12,o),
(466,-12,cs),
(380,-12,o),
(329,32,o),
(329,108,cs),
(329,205,o),
(417,249,o),
(567,257,cs)
);
}
);
width = 1000;
},
{
layerId = m01;
shapes = (
{
closed = 1;
nodes = (
(451,562,o),
(378,538,o),
(326,511,c),
(356,438,l),
(404,461,o),
(460,483,o),
(522,483,cs),
(599,483,o),
(644,450,o),
(644,353,cs),
(644,317,l),
(544,314,ls),
(352,309,o),
(261,244,o),
(261,126,cs),
(261,6,o),
(341,-49,o),
(447,-49,cs),
(546,-49,o),
(594,-19,o),
(645,46,c),
(650,46,l),
(668,-38,l),
(739,-38,l),
(739,364,ls),
(739,501,o),
(671,562,o),
(528,562,cs)
);
},
{
closed = 1;
nodes = (
(643,250,l),
(643,197,ls),
(643,83,o),
(568,29,o),
(469,29,cs),
(405,29,o),
(361,59,o),
(361,125,cs),
(361,200,o),
(409,241,o),
(556,247,cs)
);
}
);
width = 1000;
},
{
layerId = m003;
shapes = (
{
closed = 1;
nodes = (
(432,581,o),
(344,563,o),
(274,526,c),
(334,388,l),
(394,414,o),
(455,433,o),
(504,433,cs),
(549,433,o),
(578,412,o),
(578,358,cs),
(578,349,l),
(476,346,ls),
(305,338,o),
(212,278,o),
(212,148,cs),
(212,15,o),
(292,-49,o),
(397,-49,cs),
(498,-49,o),
(546,-23,o),
(597,42,c),
(602,42,l),
(642,-38,l),
(788,-38,l),
(788,361,ls),
(788,502,o),
(696,581,o),
(542,581,cs)
);
},
{
closed = 1;
nodes = (
(579,234,l),
(579,186,l),
(579,135,o),
(537,100,o),
(486,100,cs),
(450,100,o),
(426,118,o),
(426,160,cs),
(426,204,o),
(453,228,o),
(530,232,cs)
);
}
);
width = 1000;
}
);
unicode = 65345;
},
{
glyphname = b.full;
lastChange = "2022-10-31 03:30:38 +0000";
layers = (
{
layerId = m002;
shapes = (
{
closed = 1;
nodes = (
(299,798,l),
(256,798,l),
(256,-38,l),
(290,-38,l),
(297,69,l),
(300,69,l),
(329,1,o),
(392,-49,o),
(494,-49,cs),
(664,-49,o),
(744,81,o),
(744,255,cs),
(744,453,o),
(660,556,o),
(508,556,cs),
(400,556,o),
(325,499,o),
(299,422,c),
(296,422,l),
(297,456,o),
(299,513,o),
(299,551,cs)
);
},
{
closed = 1;
nodes = (
(635,518,o),
(700,430,o),
(700,256,cs),
(700,85,o),
(628,-10,o),
(491,-10,cs),
(359,-10,o),
(299,79,o),
(299,244,cs),
(299,254,ls),
(299,421,o),
(363,518,o),
(505,518,cs)
);
}
);
width = 1000;
},
{
layerId = m01;
shapes = (
{
closed = 1;
nodes = (
(336,798,l),
(239,798,l),
(239,-38,l),
(308,-38,l),
(328,37,l),
(336,37,l),
(369,-10,o),
(426,-49,o),
(518,-49,cs),
(663,-49,o),
(761,54,o),
(761,257,cs),
(761,459,o),
(664,562,o),
(518,562,cs),
(426,562,o),
(369,523,o),
(336,474,c),
(330,474,l),
(332,498,o),
(336,545,o),
(336,595,cs)
);
},
{
closed = 1;
nodes = (
(609,481,o),
(661,406,o),
(661,258,cs),
(661,112,o),
(609,31,o),
(504,31,cs),
(374,31,o),
(336,111,o),
(336,256,cs),
(336,260,ls),
(336,411,o),
(376,481,o),
(502,481,cs)
);
}
);
width = 1000;
},
{
layerId = m003;
shapes = (
{
closed = 1;
nodes = (
(416,798,l),
(206,798,l),
(206,-38,l),
(370,-38,l),
(403,21,l),
(416,21,l),
(447,-13,o),
(486,-49,o),
(572,-49,cs),
(704,-49,o),
(794,60,o),
(794,268,cs),
(794,471,o),
(705,581,o),
(578,581,cs),
(496,581,o),
(447,542,o),
(416,492,c),
(409,492,l),
(413,526,o),
(416,566,o),
(416,609,cs)
);
},
{
closed = 1;
nodes = (
(555,416,o),
(580,367,o),
(580,270,cs),
(580,172,o),
(553,120,o),
(503,120,cs),
(438,120,o),
(416,166,o),
(416,260,cs),
(416,290,ls),
(416,377,o),
(443,416,o),
(501,416,c)
);
}
);
width = 1000;
}
);
unicode = 65346;
},
{
glyphname = c.full;
lastChange = "2022-10-31 03:34:24 +0000";
layers = (
{
layerId = m002;
shapes = (
{
closed = 1;
nodes = (
(618,-49,o),
(669,-36,o),
(706,-19,c),
(706,19,l),
(663,2,o),
(611,-10,o),
(556,-10,cs),
(400,-10,o),
(332,102,o),
(332,250,cs),
(332,410,o),
(421,516,o),
(572,516,cs),
(614,516,o),
(659,509,o),
(702,490,c),
(712,529,l),
(672,546,o),
(627,556,o),
(572,556,cs),
(398,556,o),
(288,435,o),
(288,250,cs),
(288,72,o),
(376,-49,o),
(557,-49,cs)
);
}
);
width = 1000;
},
{
layerId = m01;
shapes = (
{
closed = 1;
nodes = (
(621,-49,o),
(666,-38,o),
(706,-17,c),
(706,69,l),
(665,50,o),
(617,35,o),
(553,35,cs),
(442,35,o),
(385,113,o),
(385,255,cs),
(385,402,o),
(441,478,o),
(558,478,cs),
(599,478,o),
(651,464,o),
(686,450,c),
(716,531,l),
(680,548,o),
(620,563,o),
(561,563,cs),
(402,563,o),
(284,471,o),
(284,254,cs),
(284,45,o),
(397,-49,o),
(554,-49,cs)
);
}
);
width = 1000;
},
{
layerId = m003;
shapes = (
{
closed = 1;
nodes = (
(628,-49,o),
(688,-28,o),
(739,5,c),
(739,172,l),
(685,138,o),
(622,118,o),
(562,118,cs),
(498,118,o),
(454,159,o),
(454,265,cs),
(454,367,o),
(497,416,o),
(561,416,cs),
(607,416,o),
(647,402,o),
(698,380,c),
(760,535,l),
(702,564,o),
(635,581,o),
(561,581,cs),
(377,581,o),
(240,485,o),
(240,263,cs),
(240,47,o),
(359,-49,o),
(544,-49,cs)
);
}
);
width = 1000;
}
);
unicode = 65347;
},
{
glyphname = d.full;
lastChange = "2022-10-31 03:36:13 +0000";
layers = (
{
layerId = m002;
shapes = (
{
closed = 1;
nodes = (
(613,-49,o),
(673,8,o),
(702,78,c),
(704,78,l),
(708,-38,l),
(744,-38,l),
(744,798,l),
(702,798,l),
(702,560,ls),
(702,519,o),
(703,472,o),
(705,430,c),
(702,430,l),
(674,500,o),
(612,556,o),
(509,556,cs),
(348,556,o),
(256,446,o),
(256,245,cs),
(256,53,o),
(339,-49,o),
(502,-49,cs)
);
},
{
closed = 1;
nodes = (
(366,-10,o),
(300,75,o),
(300,244,cs),
(300,424,o),
(375,518,o),
(512,518,cs),
(642,518,o),
(702,425,o),
(702,255,cs),
(702,248,ls),
(702,84,o),
(647,-10,o),
(505,-10,cs)
);
}
);
width = 1000;
},
{
layerId = m01;
shapes = (
{
closed = 1;
nodes = (
(573,-49,o),
(629,-9,o),
(664,41,c),
(669,41,l),
(683,-38,l),
(761,-38,l),
(761,798,l),
(664,798,l),
(664,563,ls),
(664,541,o),
(669,494,o),
(671,476,c),
(664,476,l),
(628,524,o),
(573,563,o),
(482,563,cs),
(336,563,o),
(239,458,o),
(239,256,cs),
(239,53,o),
(334,-49,o),
(481,-49,cs)
);
},
{
closed = 1;
nodes = (
(391,31,o),
(339,113,o),
(339,254,cs),
(339,393,o),
(391,482,o),
(495,482,cs),
(626,482,o),
(666,401,o),
(666,255,cs),
(666,237,ls),
(666,100,o),
(620,31,o),
(496,31,cs)
);
}
);
width = 1000;
},
{
layerId = m003;
shapes = (
{
closed = 1;
nodes = (
(505,-49,o),
(553,-9,o),
(583,39,c),
(591,39,l),
(636,-38,l),
(794,-38,l),
(794,798,l),
(583,798,l),
(583,635,ls),
(583,584,o),
(587,523,o),
(593,492,c),
(589,492,l),
(557,543,o),
(510,581,o),
(429,581,cs),
(297,581,o),
(206,474,o),
(206,266,cs),
(206,60,o),
(296,-49,o),
(421,-49,cs)
);
},
{
closed = 1;
nodes = (
(454,117,o),
(418,161,o),
(418,262,cs),
(418,365,o),
(454,412,o),
(505,412,cs),
(579,412,o),
(601,359,o),
(601,263,cs),
(601,247,ls),
(598,159,o),
(574,117,o),
(507,117,cs)
);
}
);
width = 1000;
}
);
unicode = 65348;
},
{
glyphname = e.full;
lastChange = "2022-10-31 03:37:46 +0000";
layers = (
{
layerId = m002;
shapes = (
{
closed = 1;
nodes = (
(350,556,o),
(265,419,o),
(265,248,cs),
(265,72,o),
(350,-49,o),
(530,-49,cs),
(602,-49,o),
(655,-38,o),
(712,-13,c),
(712,29,l),
(645,-2,o),
(602,-10,o),
(531,-10,cs),
(387,-10,o),
(308,83,o),
(309,251,c),
(735,251,l),
(735,285,ls),
(735,439,o),
(666,556,o),
(518,556,cs)
);
},
{
closed = 1;
nodes = (
(635,518,o),
(691,425,o),
(691,289,c),
(310,289,l),
(323,437,o),
(401,518,o),
(518,518,cs)
);
}
);
width = 1000;
},
{
layerId = m01;
shapes = (
{
closed = 1;
nodes = (
(353,563,o),
(248,446,o),
(248,252,cs),
(248,56,o),
(364,-49,o),
(532,-49,cs),
(612,-49,o),
(665,-37,o),
(726,-10,c),
(726,74,l),
(664,48,o),
(611,34,o),
(536,34,cs),
(419,34,o),
(352,105,o),
(348,238,c),
(752,238,l),
(752,296,ls),
(752,457,o),
(660,563,o),
(509,563,cs)
);
},
{
closed = 1;
nodes = (
(606,483,o),
(650,415,o),
(651,315,c),
(350,315,l),
(360,421,o),
(415,483,o),
(508,483,cs)
);
}
);
width = 1000;
},
{
layerId = m003;
shapes = (
{
closed = 1;
nodes = (
(327,581,o),
(206,481,o),
(206,262,cs),
(206,46,o),
(343,-49,o),
(526,-49,cs),
(632,-49,o),
(696,-35,o),
(754,-4,c),
(754,147,l),
(687,115,o),
(628,101,o),
(552,101,cs),
(466,101,o),
(422,146,o),
(419,210,c),
(794,210,l),
(794,303,l),
(794,489,o),
(684,581,o),
(507,581,cs)
);
},
{
closed = 1;
nodes = (
(572,438,o),
(602,395,o),
(603,342,c),
(423,342,l),
(429,409,o),
(465,438,o),
(514,438,cs)
);
}
);
width = 1000;
}
);
unicode = 65349;
},
{
glyphname = f.full;
lastChange = "2022-10-31 03:40:45 +0000";
layers = (
{
layerId = m002;
shapes = (
{
closed = 1;
nodes = (
(479,-38,l),
(479,505,l),
(724,505,l),
(724,545,l),
(479,545,l),
(479,612,ls),
(479,728,o),
(529,765,o),
(631,765,cs),
(674,765,o),
(722,760,o),
(753,751,c),
(761,788,l),
(732,796,o),
(674,804,o),
(630,804,cs),
(499,804,o),
(436,743,o),
(436,624,cs),
(436,545,l),
(239,538,l),
(239,505,l),
(436,505,l),
(436,-38,l)
);
}
);
width = 1000;
},
{
layerId = m01;
shapes = (
{
closed = 1;
nodes = (
(514,-38,l),
(514,469,l),
(737,469,l),
(737,552,l),
(514,552,l),
(514,606,ls),
(514,697,o),
(558,722,o),
(635,722,cs),
(678,722,o),
(726,714,o),
(755,706,c),
(777,782,l),
(742,793,o),
(694,804,o),
(630,804,cs),
(501,804,o),
(415,758,o),
(415,619,cs),
(415,552,l),
(223,537,l),
(223,469,l),
(415,469,l),
(415,-38,l)
);
}
);
width = 1000;
},
{
layerId = m003;
shapes = (
{
closed = 1;
nodes = (
(561,-38,l),
(561,416,l),
(743,416,l),
(743,570,l),
(561,570,l),
(561,578,ls),
(561,626,o),
(585,646,o),
(651,646,cs),
(673,646,o),
(713,644,o),
(756,629,c),
(800,777,l),
(734,798,o),
(682,804,o),
(633,804,cs),
(452,804,o),
(368,725,o),
(368,601,cs),
(368,569,l),
(200,521,l),
(200,416,l),
(368,416,l),
(368,-38,l)
);
}
);
width = 1000;
}
);
unicode = 65350;
},
{
glyphname = g.full;
lastChange = "2022-11-09 00:54:50 +0000";
layers = (
{
layerId = m002;
shapes = (
{
closed = 1;
nodes = (
(343,556,o),
(257,437,o),
(257,246,cs),
(257,53,o),
(346,-49,o),
(497,-49,cs),
(600,-49,o),
(671,-5,o),
(700,81,c),
(704,81,l),
(701,43,o),
(700,16,o),
(700,-21,cs),
(700,-63,ls),
(700,-185,o),
(643,-263,o),
(498,-263,cs),
(415,-263,o),
(345,-244,o),
(291,-217,c),
(291,-262,l),
(345,-284,o),
(409,-302,o),
(497,-302,cs),
(674,-302,o),
(743,-207,o),
(743,-62,cs),
(743,545,l),
(708,545,l),
(701,449,l),
(698,449,l),
(665,512,o),
(609,556,o),
(509,556,cs)
);
},
{
closed = 1;
nodes = (
(654,518,o),
(701,422,o),
(701,280,cs),
(701,233,ls),
(701,107,o),
(661,-10,o),
(500,-10,cs),
(371,-10,o),
(301,79,o),
(301,246,cs),
(301,416,o),
(369,518,o),
(511,518,cs)
);
}
);
vertOrigin = 253;
width = 1000;
},
{
layerId = m01;
shapes = (
{
closed = 1;
nodes = (
(329,563,o),
(239,444,o),
(239,256,cs),
(239,63,o),
(329,-49,o),
(482,-49,cs),
(562,-49,o),
(624,-20,o),
(664,40,c),
(669,40,l),
(668,27,o),
(666,-15,o),
(666,-32,cs),
(666,-56,l),
(666,-159,o),
(604,-222,o),
(503,-222,cs),
(418,-222,o),
(341,-205,o),
(285,-175,c),
(285,-265,l),
(341,-290,o),
(411,-302,o),
(497,-302,cs),
(678,-302,o),
(761,-216,o),
(761,-48,cs),
(761,552,l),
(684,552,l),
(671,474,l),
(666,474,l),
(622,534,o),
(558,563,o),
(481,563,cs)
);
},
{
closed = 1;
nodes = (
(613,481,o),
(667,416,o),
(667,256,cs),
(667,233,ls),
(667,91,o),
(615,30,o),
(496,30,cs),
(393,30,o),
(339,109,o),
(339,255,cs),
(339,400,o),
(395,481,o),
(494,481,cs)
);
}
);
vertOrigin = 249;
width = 1000;
},
{
layerId = m003;
shapes = (
{
closed = 1;
nodes = (
(296,581,o),
(206,471,o),
(206,266,cs),
(206,60,o),
(294,-49,o),
(424,-49,cs),
(507,-49,o),
(556,-9,o),
(584,39,c),
(591,39,l),
(586,9,o),
(584,-18,o),
(584,-37,cs),
(584,-48,l),
(584,-106,o),
(542,-138,o),
(458,-138,cs),
(362,-138,o),
(306,-123,o),
(232,-92,c),
(232,-267,l),
(301,-293,o),
(372,-302,o),
(470,-302,cs),
(690,-302,o),
(794,-211,o),
(794,-39,c),
(794,570,l),
(613,570,l),
(597,496,l),
(593,496,l),
(561,544,o),
(512,581,o),
(427,581,cs)
);
},
{
closed = 1;
nodes = (
(581,419,o),
(601,364,o),
(601,269,cs),
(601,244,ls),
(601,157,o),
(578,114,o),
(509,114,cs),
(448,114,o),
(419,157,o),
(419,262,cs),
(419,365,o),
(448,419,o),
(506,419,cs)
);
}
);
vertOrigin = 240;
width = 1000;
}
);
unicode = 65351;
},
{
glyphname = h.full;
lastChange = "2022-10-31 03:44:06 +0000";
layers = (
{
layerId = m002;
shapes = (
{
closed = 1;
nodes = (
(317,798,l),
(275,798,l),
(275,-38,l),
(317,-38,l),
(317,289,ls),
(317,443,o),
(393,518,o),
(521,518,cs),
(624,518,o),
(683,463,o),
(683,342,cs),
(683,-38,l),
(726,-38,l),
(726,344,ls),
(726,489,o),
(653,555,o),
(524,555,cs),
(410,555,o),
(343,499,o),
(317,431,c),
(314,431,l),
(315,461,o),
(317,485,o),
(317,516,cs)
);
}
);
width = 1000;
},
{
layerId = m01;
shapes = (
{
closed = 1;
nodes = (
(348,798,l),
(251,798,l),
(251,-38,l),
(348,-38,l),
(348,267,ls),
(348,404,o),
(389,481,o),
(521,481,cs),
(611,481,o),
(653,434,o),
(653,339,cs),
(653,-38,l),
(749,-38,l),
(749,346,ls),
(749,497,o),
(676,562,o),
(533,562,cs),
(457,562,o),
(387,531,o),
(349,470,c),
(343,470,l),
(346,493,o),
(348,524,o),
(348,553,cs)
);
}
);
width = 1000;
},
{
layerId = m003;
shapes = (
{
closed = 1;
nodes = (
(413,798,l),
(203,798,l),
(203,-38,l),
(413,-38,l),
(413,229,ls),
(413,349,o),
(437,416,o),
(513,416,cs),
(563,416,o),
(586,375,o),
(586,294,cs),
(586,-38,l),
(797,-38,l),
(797,358,ls),
(797,515,o),
(701,581,o),
(581,581,cs),
(509,581,o),
(454,558,o),
(414,496,c),
(404,496,l),
(408,527,o),
(413,589,o),
(413,679,cs)
);
}
);
width = 1000;
}
);
unicode = 65352;
},
{
glyphname = i.full;
lastChange = "2022-10-31 03:46:34 +0000";
layers = (
{
layerId = m002;
shapes = (
{
closed = 1;
nodes = (
(740,-38,l),
(740,-6,l),
(528,1,l),
(528,545,l),
(280,545,l),
(280,512,l),
(485,505,l),
(485,1,l),
(260,-6,l),
(260,-38,l)
);
},
{
closed = 1;
nodes = (
(532,683,o),
(542,703,o),
(542,729,cs),
(542,755,o),
(530,775,o),
(501,775,cs),
(470,775,o),
(459,755,o),
(459,729,cs),
(459,701,o),
(471,683,o),
(501,683,cs)
);
}
);
width = 1000;
},
{
layerId = m01;
shapes = (
{
closed = 1;
nodes = (
(753,-38,l),
(753,28,l),
(556,45,l),
(556,552,l),
(265,552,l),
(265,483,l),
(457,469,l),
(457,45,l),
(247,28,l),
(247,-38,l)
);
},
{
closed = 1;
nodes = (
(534,658,o),
(566,681,o),
(566,728,cs),
(566,776,o),
(534,798,o),
(497,798,cs),
(458,798,o),
(427,776,o),
(427,728,cs),
(427,681,o),
(458,658,o),
(497,658,cs)
);
}
);
width = 1000;
},
{
layerId = m003;
shapes = (
{
closed = 1;
nodes = (
(786,-38,l),
(786,98,l),
(611,116,l),
(611,570,l),
(261,570,l),
(261,432,l),
(419,416,l),
(419,116,l),
(214,98,l),
(214,-38,l)
);
},
{
closed = 1;
nodes = (
(594,623,o),
(628,661,o),
(628,721,cs),
(628,783,o),
(592,817,o),
(514,817,cs),
(436,817,o),
(399,783,o),
(399,721,cs),
(399,656,o),
(440,623,o),
(514,623,cs)
);
}
);
width = 1000;
}
);
unicode = 65353;
},
{
glyphname = j.full;
lastChange = "2022-11-09 01:02:55 +0000";
layers = (
{
layerId = m002;
shapes = (
{
closed = 1;
nodes = (
(457,-310,o),
(527,-249,o),
(527,-127,cs),
(527,545,l),
(280,545,l),
(280,512,l),
(484,505,l),
(484,-117,ls),
(484,-214,o),
(440,-270,o),
(344,-270,cs),
(300,-270,o),
(236,-258,o),
(210,-247,c),
(210,-289,l),
(232,-296,o),
(293,-310,o),
(346,-310,cs)
);
},
{
closed = 1;
nodes = (
(532,683,o),
(542,703,o),
(542,729,cs),
(542,755,o),
(529,775,o),
(501,775,cs),
(470,775,o),
(459,755,o),
(459,729,cs),
(459,701,o),
(471,683,o),
(501,683,cs)
);
}
);
vertOrigin = 148;
width = 1000;
},
{
layerId = m01;
shapes = (
{
closed = 1;
nodes = (
(475,-307,o),
(556,-232,o),
(556,-95,cs),
(556,552,l),
(264,552,l),
(264,483,l),
(457,469,l),
(457,-79,ls),
(457,-178,o),
(417,-225,o),
(319,-225,cs),
(275,-225,o),
(224,-215,o),
(185,-202,c),
(185,-289,l),
(223,-300,o),
(284,-307,o),
(330,-307,cs)
);
},
{
closed = 1;
nodes = (
(532,658,o),
(565,680,o),
(565,729,cs),
(565,776,o),
(533,798,o),
(495,798,cs),
(456,798,o),
(427,775,o),
(427,729,cs),
(427,681,o),
(457,658,o),
(495,658,cs)
);
}
);
vertOrigin = 135;
width = 1000;
},
{
layerId = m003;
shapes = (
{
closed = 1;
nodes = (
(548,-307,o),
(620,-223,o),
(620,-51,cs),
(620,570,l),
(239,570,l),
(239,431,l),
(427,416,l),
(427,-7,ls),
(427,-118,o),
(405,-150,o),
(319,-150,cs),
(282,-150,o),
(222,-145,o),
(162,-129,c),
(162,-280,l),
(229,-300,o),
(299,-307,o),
(357,-307,cs)
);
},
{
closed = 1;
nodes = (
(594,623,o),
(628,661,o),
(628,721,cs),
(628,783,o),
(592,817,o),
(514,817,cs),
(436,817,o),
(399,783,o),
(399,721,cs),
(399,656,o),
(440,623,o),
(514,623,cs)
);
}
);
vertOrigin = 125;
width = 1000;
}
);
unicode = 65354;
},
{
glyphname = k.full;
lastChange = "2022-10-31 04:30:38 +0000";
layers = (
{
layerId = m002;
shapes = (
{
closed = 1;
nodes = (
(314,-38,l),
(314,148,l),
(451,279,l),
(679,-38,l),
(729,-38,l),
(480,306,l),
(708,545,l),
(655,545,l),
(389,272,ls),
(361,244,o),
(337,218,o),
(314,193,c),
(311,193,l),
(312,259,o),
(314,322,o),
(314,388,cs),
(314,798,l),
(271,798,l),
(271,-38,l)
);
}
);
width = 1000;
},
{
layerId = m01;
shapes = (
{
closed = 1;
nodes = (
(343,-38,l),
(343,146,l),
(440,239,l),
(641,-38,l),
(756,-38,l),
(506,298,l),
(740,552,l),
(622,552,l),
(418,326,ls),
(389,294,o),
(365,266,o),
(338,229,c),
(336,229,l),
(339,281,o),
(343,349,o),
(343,395,cs),
(343,798,l),
(244,798,l),
(244,-38,l)
);
}
);
width = 1000;
},
{
layerId = m003;
shapes = (
{
closed = 1;
nodes = (
(385,-38,l),
(385,128,l),
(453,180,l),
(586,-38,l),
(826,-38,l),
(602,312,l),
(813,570,l),
(579,570,l),
(442,399,ls),
(422,373,o),
(394,329,o),
(377,304,c),
(373,304,l),
(381,354,o),
(385,420,o),
(385,469,cs),
(385,798,l),
(174,798,l),
(174,-38,l)
);
}
);
width = 1000;
}
);
unicode = 65355;
},
{
glyphname = l.full;
lastChange = "2022-10-31 04:23:39 +0000";
layers = (
{
layerId = m002;
shapes = (
{
closed = 1;
nodes = (
(740,-38,l),
(740,-6,l),
(523,1,l),
(523,798,l),
(281,798,l),
(281,766,l),
(480,760,l),
(480,1,l),
(260,-6,l),
(260,-38,l)
);
}
);
width = 1000;
},
{
layerId = m01;
shapes = (
{
closed = 1;
nodes = (
(753,-38,l),
(753,28,l),
(562,45,l),
(562,798,l),
(254,798,l),
(254,730,l),
(463,716,l),
(463,45,l),
(247,28,l),
(247,-38,l)
);
}
);
width = 1000;
},
{
layerId = m003;
shapes = (
{
closed = 1;
nodes = (
(786,-38,l),
(786,96,l),
(611,116,l),
(611,798,l),
(257,798,l),
(257,658,l),
(419,644,l),
(419,116,l),
(214,96,l),
(214,-38,l)
);
}
);
width = 1000;
}
);
unicode = 65356;
},
{
glyphname = m.full;
lastChange = "2022-10-31 04:27:43 +0000";
layers = (
{
layerId = m002;
shapes = (
{
closed = 1;
nodes = (
(608,556,o),
(542,511,o),
(511,439,c),
(509,439,l),
(487,515,o),
(426,556,o),
(344,556,cs),
(240,556,o),
(185,500,o),
(160,444,c),
(157,444,l),
(150,545,l),
(116,545,l),
(116,-38,l),
(159,-38,l),
(159,309,ls),
(159,455,o),
(235,518,o),
(341,518,cs),
(421,518,o),
(479,467,o),
(479,355,cs),
(479,-38,l),
(521,-38,l),
(521,313,ls),
(521,456,o),
(592,518,o),
(704,518,cs),
(784,518,o),
(842,467,o),
(842,355,cs),
(842,-38,l),
(884,-38,l),
(884,357,ls),
(884,493,o),
(812,556,o),
(707,556,cs)
);
}
);
width = 1000;
},
{
layerId = m01;
shapes = (
{
closed = 1;
nodes = (
(647,563,o),
(574,531,o),
(535,464,c),
(529,464,l),
(501,531,o),
(439,563,o),
(349,563,cs),
(278,563,o),
(211,533,o),
(175,471,c),
(169,471,l),
(155,552,l),
(77,552,l),
(77,-38,l),
(174,-38,l),
(174,268,ls),
(174,405,o),
(212,481,o),
(331,481,cs),
(414,481,o),
(452,434,o),
(452,342,cs),
(452,-38,l),
(548,-38,l),
(548,288,ls),
(548,413,o),
(593,481,o),
(707,481,cs),
(789,481,o),
(827,434,o),
(827,342,cs),
(827,-38,l),
(923,-38,l),
(923,346,ls),
(923,498,o),
(857,563,o),
(724,563,cs)
);
}
);
width = 1000;
},
{
layerId = m003;
shapes = (
{
closed = 1;
nodes = (
(688,581,o),
(625,551,o),
(587,497,c),
(580,497,l),
(544,549,o),
(488,581,o),
(399,581,cs),
(309,581,o),
(248,545,o),
(216,496,c),
(211,496,l),
(180,570,l),
(22,570,l),
(22,-38,l),
(232,-38,l),
(232,228,ls),
(232,349,o),
(251,416,o),
(324,416,cs),
(371,416,o),
(394,381,o),
(394,293,cs),
(394,-38,l),
(605,-38,l),
(605,246,ls),
(605,355,o),
(627,416,o),
(695,416,cs),
(743,416,o),
(768,386,o),
(768,293,cs),
(768,-38,l),
(979,-38,l),
(979,358,ls),
(979,514,o),
(903,581,o),
(764,581,cs)
);
}
);
width = 1000;
}
);
unicode = 65357;
},
{
glyphname = n.full;
lastChange = "2022-10-31 04:32:17 +0000";
layers = (
{
layerId = m002;
shapes = (
{
closed = 1;
nodes = (
(411,556,o),
(346,497,o),
(319,431,c),
(315,431,l),
(309,545,l),
(275,545,l),
(275,-38,l),
(317,-38,l),
(317,289,ls),
(317,443,o),
(393,518,o),
(521,518,cs),
(624,518,o),
(683,463,o),
(683,342,cs),
(683,-38,l),
(726,-38,l),
(726,344,ls),
(726,489,o),
(653,556,o),
(524,556,cs)
);
}
);
width = 1000;
},
{
layerId = m01;
shapes = (
{
closed = 1;
nodes = (
(460,563,o),
(388,533,o),
(349,471,c),
(344,471,l),
(330,552,l),
(251,552,l),
(251,-38,l),
(348,-38,l),
(348,268,ls),
(348,405,o),
(390,481,o),
(521,481,cs),
(611,481,o),
(653,434,o),
(653,339,cs),
(653,-38,l),
(749,-38,l),
(749,346,ls),
(749,498,o),
(676,563,o),
(535,563,cs)
);
}
);
width = 1000;
},
{
layerId = m003;
shapes = (
{
closed = 1;
nodes = (
(498,581,o),
(436,547,o),
(398,490,c),
(390,490,l),
(361,570,l),
(203,570,l),
(203,-38,l),
(413,-38,l),
(413,228,ls),
(413,349,o),
(434,416,o),
(513,416,cs),
(565,416,o),
(587,375,o),
(587,294,cs),
(587,-38,l),
(797,-38,l),
(797,358,ls),
(797,514,o),
(709,581,o),
(584,581,cs)
);
}
);
width = 1000;
}
);
unicode = 65358;
},
{
glyphname = o.full;
lastChange = "2022-10-31 04:34:58 +0000";
layers = (
{
layerId = m002;
shapes = (
{
closed = 1;
nodes = (
(755,427,o),
(677,556,o),
(504,556,cs),
(342,556,o),
(245,441,o),
(245,254,cs),
(245,76,o),
(334,-49,o),
(499,-49,cs),
(671,-49,o),
(755,78,o),
(755,254,cs)
);
},
{
closed = 1;
nodes = (
(289,419,o),
(365,518,o),
(504,518,cs),
(653,518,o),
(711,403,o),
(711,254,cs),
(711,98,o),
(646,-10,o),
(499,-10,cs),
(357,-10,o),
(289,96,o),
(289,254,cs)
);
}
);
width = 1000;
},
{
layerId = m01;
shapes = (
{
closed = 1;
nodes = (
(773,453,o),
(661,563,o),
(501,563,cs),
(332,563,o),
(227,453,o),
(227,258,cs),
(227,62,o),
(342,-49,o),
(498,-49,cs),
(666,-49,o),
(773,62,o),
(773,258,cs)
);
},
{
closed = 1;
nodes = (
(327,398,o),
(379,481,o),
(499,481,cs),
(619,481,o),
(673,398,o),
(673,258,cs),
(673,118,o),
(619,31,o),
(500,31,cs),
(380,31,o),
(327,118,o),
(327,258,cs)
);
}
);
width = 1000;
},
{
layerId = m003;
shapes = (
{
closed = 1;
nodes = (
(804,469,o),
(677,581,o),
(502,581,cs),
(312,581,o),
(196,469,o),
(196,268,cs),
(196,64,o),
(323,-49,o),
(499,-49,cs),
(688,-49,o),
(804,64,o),
(804,268,cs)
);
},
{
closed = 1;
nodes = (
(410,371,o),
(436,425,o),
(500,425,cs),
(566,425,o),
(590,371,o),
(590,268,cs),
(590,163,o),
(566,107,o),
(501,107,cs),
(435,107,o),
(410,163,o),
(410,268,cs)
);
}
);
width = 1000;
}
);
unicode = 65359;
},
{
glyphname = p.full;
lastChange = "2022-11-09 00:56:39 +0000";
layers = (
{
layerId = m002;
shapes = (
{
closed = 1;
nodes = (
(392,556,o),
(325,490,o),
(298,417,c),
(296,417,l),
(292,545,l),
(256,545,l),
(256,-295,l),
(298,-295,l),
(298,-56,ls),
(298,-13,o),
(298,35,o),
(296,79,c),
(298,79,l),
(325,8,o),
(388,-49,o),
(498,-49,cs),
(652,-49,o),
(744,61,o),
(744,258,cs),
(744,454,o),
(660,556,o),
(507,556,cs)
);
},
{
closed = 1;
nodes = (
(634,518,o),
(700,430,o),
(700,258,cs),
(700,84,o),
(625,-10,o),
(496,-10,cs),
(370,-10,o),
(298,73,o),
(298,251,cs),
(298,258,ls),
(299,423,o),
(367,518,o),
(504,518,cs)
);
}
);
vertOrigin = 249;
width = 1000;
},
{
layerId = m01;
shapes = (
{
closed = 1;
nodes = (
(424,563,o),
(371,522,o),
(336,471,c),
(331,471,l),
(318,552,l),
(239,552,l),
(239,-302,l),
(336,-302,l),
(336,-60,ls),
(336,-32,o),
(331,12,o),
(329,37,c),
(336,37,l),
(370,-9,o),
(427,-49,o),
(518,-49,cs),
(664,-49,o),
(761,57,o),
(761,258,cs),
(761,461,o),
(664,563,o),
(519,563,cs)
);
},
{
closed = 1;
nodes = (
(611,481,o),
(661,393,o),
(661,259,cs),
(661,127,o),
(611,31,o),
(504,31,cs),
(375,31,o),
(336,113,o),
(336,258,cs),
(336,277,ls),
(338,414,o),
(382,481,o),
(502,481,cs)
);
}
);
vertOrigin = 249;
width = 1000;
},
{
layerId = m003;
shapes = (
{
closed = 1;
nodes = (
(493,581,o),
(446,541,o),
(416,493,c),
(407,493,l),
(377,570,l),
(206,570,l),
(206,-302,l),
(416,-302,l),
(416,-80,ls),
(416,-37,o),
(413,-6,o),
(410,21,c),
(416,21,l),
(443,-12,o),
(486,-49,o),
(572,-49,cs),
(699,-49,o),
(794,60,o),
(794,268,cs),
(794,470,o),
(712,581,o),
(578,581,cs)
);
},
{
closed = 1;
nodes = (
(552,416,o),
(580,377,o),
(580,270,cs),
(580,162,o),
(553,120,o),
(500,120,cs),
(435,120,o),
(416,172,o),
(416,269,cs),
(416,285,ls),
(419,372,o),
(437,416,o),
(499,416,cs)
);
}
);
vertOrigin = 240;
width = 1000;
}
);
unicode = 65360;
},
{
glyphname = q.full;
lastChange = "2022-11-09 00:57:19 +0000";
layers = (
{
layerId = m002;
shapes = (
{
closed = 1;
nodes = (
(701,-295,l),
(744,-295,l),
(744,545,l),
(708,545,l),
(702,437,l),
(700,437,l),
(672,502,o),
(608,556,o),
(506,556,cs),
(336,556,o),
(256,426,o),
(256,251,cs),
(256,54,o),
(340,-50,o),
(492,-50,cs),
(600,-50,o),
(674,7,o),
(701,85,c),
(704,85,l),
(702,51,o),
(701,-4,o),
(701,-38,cs)
);
},
{
closed = 1;
nodes = (
(365,-12,o),
(300,79,o),
(300,251,cs),
(300,420,o),
(372,518,o),
(509,518,cs),
(641,518,o),
(702,428,o),
(702,262,cs),
(702,250,ls),
(701,85,o),
(638,-12,o),
(495,-12,cs)
);
}
);
vertOrigin = 249;
width = 1000;
},
{
layerId = m01;
shapes = (
{
closed = 1;
nodes = (
(664,-302,l),
(761,-302,l),
(761,552,l),
(684,552,l),
(670,471,l),
(666,471,l),
(630,522,o),
(574,563,o),
(482,563,cs),
(338,563,o),
(239,458,o),
(239,256,cs),
(239,53,o),
(336,-49,o),
(479,-49,cs),
(572,-49,o),
(629,-9,o),
(663,41,c),
(670,41,l),
(666,16,o),
(664,-24,o),
(664,-50,cs)
);
},
{
closed = 1;
nodes = (
(389,31,o),
(339,114,o),
(339,254,cs),
(339,393,o),
(389,482,o),
(495,482,cs),
(623,482,o),
(666,404,o),
(666,255,cs),
(666,235,ls),
(663,97,o),
(618,31,o),
(497,31,cs)
);
}
);
vertOrigin = 249;
width = 1000;
},
{
layerId = m003;
shapes = (
{
closed = 1;
nodes = (
(584,-302,l),
(794,-302,l),
(794,570,l),
(613,570,l),
(597,496,l),
(593,496,l),
(561,544,o),
(512,581,o),
(427,581,cs),
(296,581,o),
(206,471,o),
(206,266,cs),
(206,60,o),
(294,-49,o),
(424,-49,cs),
(507,-49,o),
(556,-9,o),
(584,39,c),
(591,39,l),
(586,9,o),
(584,-20,o),
(584,-50,cs)
);
},
{
closed = 1;
nodes = (
(448,114,o),
(419,157,o),
(419,262,cs),
(419,365,o),
(448,419,o),
(506,419,cs),
(581,419,o),
(601,364,o),
(601,269,cs),
(601,244,ls),
(601,157,o),
(578,114,o),
(509,114,cs)
);
}
);
vertOrigin = 240;
width = 1000;
}
);
unicode = 65361;
},
{
glyphname = r.full;
lastChange = "2022-10-31 07:35:48 +0000";
layers = (
{
layerId = m002;
shapes = (
{
closed = 1;
nodes = (
(680,-38,l),
(680,-6,l),
(470,1,l),
(470,261,ls),
(470,412,o),
(534,513,o),
(654,513,cs),
(690,513,o),
(724,507,o),
(751,497,c),
(762,537,l),
(737,546,o),
(696,554,o),
(655,554,cs),
(558,554,o),
(496,496,o),
(473,416,c),
(469,416,l),
(466,545,l),
(258,545,l),
(258,512,l),
(427,505,l),
(427,1,l),
(238,-6,l),
(238,-38,l)
);
}
);
width = 1000;
},
{
layerId = m01;
shapes = (
{
closed = 1;
nodes = (
(671,-38,l),
(671,28,l),
(499,45,l),
(499,258,ls),
(499,377,o),
(566,476,o),
(661,476,cs),
(697,476,o),
(730,465,o),
(754,452,c),
(781,538,l),
(749,553,o),
(710,563,o),
(661,563,cs),
(579,563,o),
(536,521,o),
(496,444,c),
(491,444,l),
(478,552,l),
(237,552,l),
(237,483,l),
(399,469,l),
(399,45,l),
(220,28,l),
(220,-38,l)
);
}
);
width = 1000;
},
{
layerId = m003;
shapes = (
{
closed = 1;
nodes = (
(700,-38,l),
(700,98,l),
(531,116,l),
(531,233,ls),
(531,348,o),
(587,399,o),
(669,399,cs),
(691,399,o),
(735,394,o),
(761,383,c),
(806,565,l),
(749,581,o),
(709,581,o),
(689,581,cs),
(608,581,o),
(550,534,o),
(525,471,c),
(517,471,l),
(487,570,l),
(220,570,l),
(220,432,l),
(355,416,l),
(355,116,l),
(194,98,l),
(194,-38,l)
);
}
);
width = 1000;
}
);
unicode = 65362;
},
{
glyphname = s.full;
lastChange = "2022-10-31 07:39:37 +0000";
layers = (
{
layerId = m002;
shapes = (
{
closed = 1;
nodes = (
(706,221,o),
(613,248,o),
(513,281,cs),
(420,313,o),
(352,328,o),
(352,410,cs),
(352,481,o),
(412,518,o),
(512,518,cs),
(569,518,o),
(633,503,o),
(675,483,c),
(691,521,l),
(643,541,o),
(583,556,o),
(513,556,cs),
(388,556,o),
(309,501,o),
(309,409,cs),
(309,303,o),
(388,280,o),
(493,246,cs),
(594,215,o),
(663,189,o),
(663,111,cs),
(663,36,o),
(610,-12,o),
(485,-12,cs),
(416,-12,o),
(349,5,o),
(294,32,c),
(294,-12,l),
(336,-31,o),
(403,-49,o),
(484,-49,cs),
(629,-49,o),
(706,12,o),
(706,113,cs)
);
}
);
width = 1000;
},
{
layerId = m01;
shapes = (
{
closed = 1;
nodes = (
(711,219,o),
(646,258,o),
(534,300,cs),
(420,343,o),
(382,362,o),
(382,412,cs),
(382,456,o),
(425,483,o),
(504,483,cs),
(561,483,o),
(616,467,o),
(666,446,c),
(699,523,l),
(644,547,o),
(582,563,o),
(510,563,cs),
(378,563,o),
(289,507,o),
(289,406,cs),
(289,310,o),
(358,274,o),
(472,230,cs),
(587,186,o),
(617,160,o),
(617,116,cs),
(617,63,o),
(575,29,o),
(477,29,cs),
(408,29,o),
(337,53,o),
(290,76,c),
(290,-12,l),
(336,-36,o),
(393,-49,o),
(475,-49,cs),
(619,-49,o),
(711,10,o),
(711,125,cs)
);
}
);
width = 1000;
},
{
layerId = m003;
shapes = (
{
closed = 1;
nodes = (
(739,256,o),
(689,300,o),
(583,343,cs),
(482,383,o),
(461,391,o),
(461,414,cs),
(461,431,o),
(480,439,o),
(513,439,cs),
(549,439,o),
(617,422,o),
(678,394,c),
(735,530,l),
(659,564,o),
(592,581,o),
(512,581,cs),
(361,581,o),
(261,521,o),
(261,402,cs),
(261,302,o),
(310,255,o),
(411,213,cs),
(514,171,o),
(541,161,o),
(541,135,cs),
(541,114,o),
(520,104,o),
(473,104,cs),
(427,104,o),
(339,118,o),
(262,153,c),
(262,-15,l),
(332,-41,o),
(395,-49,o),
(482,-49,cs),
(667,-49,o),
(739,34,o),
(739,149,cs)
);
}
);
width = 1000;
}
);
unicode = 65363;
},
{
glyphname = t.full;
lastChange = "2022-10-31 07:43:37 +0000";
layers = (
{
layerId = m002;
shapes = (
{
closed = 1;
nodes = (
(673,-49,o),
(701,-42,o),
(727,-34,c),
(727,4,l),
(702,-5,o),
(671,-10,o),
(634,-10,cs),
(526,-10,o),
(494,50,o),
(494,162,cs),
(494,505,l),
(732,505,l),
(732,545,l),
(494,545,l),
(494,691,l),
(459,691,l),
(450,545,l),
(268,538,l),
(268,505,l),
(451,505,l),
(451,157,ls),
(451,23,o),
(502,-49,o),
(633,-49,cs)
);
}
);
width = 1000;
},
{
layerId = m01;
shapes = (
{
closed = 1;
nodes = (
(675,-49,o),
(718,-40,o),
(753,-31,c),
(753,48,l),
(721,40,o),
(673,31,o),
(634,31,cs),
(543,31,o),
(507,71,o),
(507,160,cs),
(507,469,l),
(737,469,l),
(737,552,l),
(507,552,l),
(507,709,l),
(427,709,l),
(408,555,l),
(247,537,l),
(247,469,l),
(408,469,l),
(408,141,ls),
(408,-7,o),
(502,-49,o),
(628,-49,cs)
);
}
);
width = 1000;
},
{
layerId = m003;
shapes = (
{
closed = 1;
nodes = (
(660,-49,o),
(713,-40,o),
(778,-18,c),
(778,135,l),
(724,116,o),
(695,111,o),
(658,111,cs),
(627,111,o),
(566,115,o),
(566,215,cs),
(566,416,l),
(776,416,l),
(776,570,l),
(566,570,l),
(566,707,l),
(423,707,l),
(393,569,l),
(222,510,l),
(222,416,l),
(374,416,l),
(374,186,ls),
(374,31,o),
(429,-49,o),
(602,-49,cs)
);
}
);
width = 1000;
}
);
unicode = 65364;
},
{
glyphname = u.full;
lastChange = "2022-10-31 07:45:31 +0000";
layers = (
{
layerId = m002;
shapes = (
{
closed = 1;
nodes = (
(590,-49,o),
(655,9,o),
(682,75,c),
(684,75,l),
(691,-38,l),
(726,-38,l),
(726,545,l),
(683,545,l),
(683,217,ls),
(683,63,o),
(606,-10,o),
(479,-10,cs),
(374,-10,o),
(317,46,o),
(317,168,cs),
(317,545,l),
(274,545,l),
(274,163,ls),
(274,23,o),
(343,-49,o),
(475,-49,cs)
);
}
);
width = 1000;
},
{
layerId = m01;
shapes = (
{
closed = 1;
nodes = (
(541,-49,o),
(613,-21,o),
(652,40,c),
(656,40,l),
(671,-38,l),
(750,-38,l),
(750,552,l),
(653,552,l),
(653,245,ls),
(653,107,o),
(610,31,o),
(479,31,cs),
(390,31,o),
(348,78,o),
(348,172,cs),
(348,552,l),
(250,552,l),
(250,166,ls),
(250,16,o),
(323,-49,o),
(465,-49,cs)
);
}
);
width = 1000;
},
{
layerId = m003;
shapes = (
{
closed = 1;
nodes = (
(491,-49,o),
(561,-24,o),
(600,38,c),
(612,38,l),
(638,-38,l),
(796,-38,l),
(796,570,l),
(586,570,l),
(586,304,ls),
(586,183,o),
(565,117,o),
(486,117,cs),
(435,117,o),
(414,159,o),
(414,238,cs),
(414,570,l),
(204,570,l),
(204,174,ls),
(204,18,o),
(296,-49,o),
(416,-49,cs)
);
}
);
width = 1000;
}
);
unicode = 65365;
},
{
glyphname = v.full;
lastChange = "2022-10-31 08:00:01 +0000";
layers = (
{
layerId = m002;
shapes = (
{
closed = 1;
nodes = (
(521,-38,l),
(745,545,l),
(700,545,l),
(544,133,ls),
(525,85,o),
(513,48,o),
(501,12,c),
(499,12,l),
(488,48,o),
(475,84,o),
(456,133,cs),
(300,545,l),
(255,545,l),
(479,-38,l)
);
}
);
width = 1000;
},
{
layerId = m01;
shapes = (
{
closed = 1;
nodes = (
(555,-38,l),
(779,552,l),
(676,552,l),
(551,204,ls),
(534,157,o),
(509,84,o),
(501,48,c),
(497,48,l),
(490,84,o),
(467,156,o),
(449,204,cs),
(324,552,l),
(221,552,l),
(444,-38,l)
);
}
);
width = 1000;
},
{
layerId = m003;
shapes = (
{
closed = 1;
nodes = (
(604,-38,l),
(836,570,l),
(617,570,l),
(509,210,ls),
(506,197,o),
(499,173,o),
(499,149,c),
(496,149,l),
(496,172,o),
(488,204,o),
(486,211,cs),
(383,570,l),
(164,570,l),
(396,-38,l)
);
}
);
width = 1000;
}
);
unicode = 65366;
},
{
glyphname = w.full;
lastChange = "2022-10-31 08:01:02 +0000";
layers = (
{
layerId = m002;
shapes = (
{
closed = 1;
nodes = (
(337,-39,l),
(471,370,ls),
(485,410,o),
(495,446,o),
(504,483,c),
(508,483,l),
(518,446,o),
(528,413,o),
(541,370,cs),
(672,-39,l),
(715,-39,l),
(872,544,l),
(829,544,l),
(724,155,ls),
(708,91,o),
(698,53,o),
(694,18,c),
(690,18,l),
(683,54,o),
(669,97,o),
(653,152,cs),
(528,544,l),
(488,544,l),
(357,151,ls),
(336,89,o),
(328,53,o),
(320,18,c),
(316,18,l),
(310,54,o),
(301,89,o),
(282,155,cs),
(174,544,l),
(128,544,l),
(295,-39,l)
);
}
);
width = 1000;
},
{
layerId = m01;
shapes = (
{
closed = 1;
nodes = (
(352,-37,l),
(457,294,ls),
(477,356,o),
(491,419,o),
(497,452,c),
(501,452,l),
(508,419,o),
(523,356,o),
(542,295,cs),
(643,-37,l),
(756,-37,l),
(920,553,l),
(821,553,l),
(739,238,ls),
(721,171,o),
(704,100,o),
(699,63,c),
(695,63,l),
(689,105,o),
(671,170,o),
(655,221,cs),
(554,553,l),
(448,553,l),
(344,221,ls),
(328,172,o),
(312,98,o),
(304,62,c),
(300,62,l),
(294,104,o),
(278,174,o),
(261,238,cs),
(180,553,l),
(80,553,l),
(242,-37,l)
);
}
);
width = 1000;
},
{
layerId = m003;
shapes = (
{
closed = 1;
nodes = (
(400,-38,l),
(462,221,ls),
(476,283,o),
(492,377,o),
(497,410,c),
(500,410,l),
(504,377,o),
(519,283,o),
(532,228,cs),
(596,-38,l),
(820,-38,l),
(987,570,l),
(785,570,l),
(731,337,ls),
(720,290,o),
(708,196,o),
(704,137,c),
(700,137,l),
(695,194,o),
(678,280,o),
(669,322,cs),
(618,570,l),
(386,570,l),
(330,325,ls),
(325,304,o),
(303,195,o),
(300,137,c),
(297,137,l),
(293,195,o),
(280,285,o),
(269,337,cs),
(220,570,l),
(13,570,l),
(179,-38,l)
);
}
);
width = 1000;
}
);
unicode = 65367;
},
{
glyphname = x.full;
lastChange = "2022-10-31 08:02:29 +0000";
layers = (
{
layerId = m002;
shapes = (
{
closed = 1;
nodes = (
(309,-38,l),
(499,232,l),
(690,-38,l),
(741,-38,l),
(526,261,l),
(728,545,l),
(677,545,l),
(499,291,l),
(320,545,l),
(269,545,l),
(473,261,l),
(259,-38,l)
);
}
);
width = 1000;
},
{
layerId = m01;
shapes = (
{
closed = 1;
nodes = (
(338,-38,l),
(501,197,l),
(661,-38,l),
(771,-38,l),
(557,263,l),
(760,552,l),
(651,552,l),
(501,329,l),
(349,552,l),
(239,552,l),
(442,263,l),
(229,-38,l)
);
}
);
width = 1000;
},
{
layerId = m003;
shapes = (
{
closed = 1;
nodes = (
(398,-38,l),
(500,147,l),
(602,-38,l),
(841,-38,l),
(643,272,l),
(833,570,l),
(595,570,l),
(500,400,l),
(408,570,l),
(169,570,l),
(355,272,l),
(159,-38,l)
);
}
);
width = 1000;
}
);
unicode = 65368;
},
{
glyphname = y.full;
lastChange = "2022-11-09 00:58:39 +0000";
layers = (
{
layerId = m002;
shapes = (
{
closed = 1;
nodes = (
(396,-304,o),
(438,-255,o),
(476,-156,cs),
(745,545,l),
(700,545,l),
(555,161,ls),
(530,96,o),
(513,47,o),
(502,14,c),
(500,14,l),
(489,48,o),
(471,96,o),
(446,164,cs),
(300,545,l),
(255,545,l),
(479,-34,l),
(437,-144,ls),
(403,-232,o),
(371,-267,o),
(312,-267,cs),
(289,-267,o),
(271,-262,o),
(251,-256,c),
(251,-294,l),
(272,-301,o),
(292,-304,o),
(315,-304,cs)
);
}
);
vertOrigin = 259;
width = 1000;
},
{
layerId = m01;
shapes = (
{
closed = 1;
nodes = (
(426,-302,o),
(484,-230,o),
(526,-119,cs),
(780,552,l),
(675,552,l),
(556,217,ls),
(535,157,o),
(514,92,o),
(505,56,c),
(501,56,l),
(492,104,o),
(473,157,o),
(451,216,cs),
(323,552,l),
(220,552,l),
(458,-40,l),
(427,-118,ls),
(403,-182,o),
(363,-223,o),
(296,-223,cs),
(271,-223,o),
(246,-219,o),
(231,-216,c),
(231,-293,l),
(250,-298,o),
(276,-302,o),
(311,-302,cs)
);
}
);
vertOrigin = 255;
width = 1000;
},
{
layerId = m003;
shapes = (
{
closed = 1;
nodes = (
(465,-302,o),
(539,-225,o),
(595,-76,cs),
(836,570,l),
(622,570,l),
(516,221,ls),
(512,206,o),
(506,184,o),
(503,156,c),
(498,156,l),
(497,179,o),
(493,206,o),
(488,222,cs),
(385,570,l),
(164,570,l),
(404,-29,l),
(402,-35,ls),
(381,-87,o),
(354,-135,o),
(285,-135,cs),
(260,-135,o),
(235,-131,o),
(220,-128,c),
(220,-293,l),
(241,-298,o),
(267,-302,o),
(306,-302,cs)
);
}
);
vertOrigin = 246;
width = 1000;
}
);
unicode = 65369;
},
{
glyphname = z.full;
lastChange = "2022-10-31 07:58:24 +0000";
layers = (
{
layerId = m002;
shapes = (
{
closed = 1;
nodes = (
(706,-38,l),
(706,-1,l),
(347,-1,l),
(707,516,l),
(707,545,l),
(321,545,l),
(321,508,l),
(652,508,l),
(293,-10,l),
(293,-38,l)
);
}
);
width = 1000;
},
{
layerId = m01;
shapes = (
{
closed = 1;
nodes = (
(716,-38,l),
(716,37,l),
(396,37,l),
(708,479,l),
(708,552,l),
(303,552,l),
(303,477,l),
(601,477,l),
(284,26,l),
(284,-38,l)
);
}
);
width = 1000;
},
{
layerId = m003;
shapes = (
{
closed = 1;
nodes = (
(752,-38,l),
(752,123,l),
(499,123,l),
(740,441,l),
(740,570,l),
(262,570,l),
(262,410,l),
(500,410,l),
(248,82,l),
(248,-38,l)
);
}
);
width = 1000;
}
);
unicode = 65370;
},
{
glyphname = zero.full;
lastChange = "2022-10-28 12:30:16 +0000";
layers = (
{
layerId = m002;
shapes = (
{
closed = 1;
nodes = (
(748,597,o),
(686,760,o),
(502,760,cs),
(319,760,o),
(252,591,o),
(252,358,cs),
(252,86,o),
(341,-49,o),
(501,-49,cs),
(669,-49,o),
(748,91,o),
(748,358,cs)
);
},
{
closed = 1;
nodes = (
(296,574,o),
(345,721,o),
(502,721,cs),
(660,721,o),
(705,580,o),
(705,358,cs),
(705,109,o),
(645,-10,o),
(501,-10,cs),
(362,-10,o),
(296,108,o),
(296,358,cs)
);
}
);
width = 1000;
},
{
layerId = m01;
shapes = (
{
closed = 1;
nodes = (
(761,611,o),
(675,760,o),
(499,760,cs),
(311,760,o),
(239,610,o),
(239,356,cs),
(239,102,o),
(322,-49,o),
(499,-49,cs),
(687,-49,o),
(761,102,o),
(761,356,cs)
);
},
{
closed = 1;
nodes = (
(336,570,o),
(380,677,o),
(499,677,cs),
(617,677,o),
(663,570,o),
(663,356,cs),
(663,139,o),
(617,34,o),
(499,34,cs),
(380,34,o),
(336,140,o),
(336,356,cs)
);
}
);
width = 1000;
},
{
layerId = m003;
shapes = (
{
closed = 1;
nodes = (
(784,609,o),
(696,758,o),
(500,758,cs),
(290,758,o),
(216,608,o),
(216,354,cs),
(216,102,o),
(303,-49,o),
(500,-49,cs),
(710,-49,o),
(784,102,o),
(784,354,cs)
);
},
{
closed = 1;
nodes = (
(427,509,o),
(441,589,o),
(500,589,cs),
(558,589,o),
(573,509,o),
(573,354,cs),
(573,199,o),
(558,120,o),
(500,120,cs),
(441,120,o),
(427,200,o),
(427,354,cs)
);
}
);
width = 1000;
}
);
unicode = 65296;
},
{
glyphname = one.full;
lastChange = "2022-10-28 12:38:33 +0000";
layers = (
{
layerId = m002;
shapes = (
{
closed = 1;
nodes = (
(553,-38,l),
(553,747,l),
(517,747,l),
(301,600,l),
(325,567,l),
(451,656,ls),
(480,676,o),
(494,687,o),
(513,701,c),
(512,668,o),
(512,618,o),
(512,555,cs),
(512,-38,l)
);
},
{
closed = 1;
nodes = (
(699,-38,l),
(699,-7,l),
(553,-1,l),
(511,-1,l),
(361,-7,l),
(361,-38,l)
);
}
);
width = 1000;
},
{
layerId = m01;
shapes = (
{
closed = 1;
nodes = (
(567,-38,l),
(567,747,l),
(486,747,l),
(267,636,l),
(310,562,l),
(402,609,ls),
(439,628,o),
(452,633,o),
(476,646,c),
(474,598,o),
(472,514,o),
(472,453,cs),
(472,-38,l)
);
},
{
closed = 1;
nodes = (
(733,-38,l),
(733,28,l),
(567,39,l),
(472,39,l),
(307,28,l),
(307,-38,l)
);
}
);
width = 1000;
},
{
layerId = m003;
shapes = (
{
closed = 1;
nodes = (
(627,-38,l),
(627,747,l),
(454,747,l),
(225,617,l),
(302,470,l),
(369,507,ls),
(389,518,o),
(409,531,o),
(435,548,c),
(433,500,o),
(433,399,o),
(433,364,cs),
(433,-38,l)
);
},
{
closed = 1;
nodes = (
(775,-38,l),
(775,105,l),
(627,118,l),
(434,118,l),
(284,105,l),
(284,-38,l)
);
}
);
width = 1000;
}
);
unicode = 65297;
},
{
glyphname = two.full;
lastChange = "2022-10-28 12:41:56 +0000";
layers = (
{
layerId = m002;
shapes = (
{
closed = 1;
nodes = (
(742,-38,l),
(742,2,l),
(314,2,l),
(314,4,l),
(530,229,ls),
(640,343,o),
(707,424,o),
(707,554,cs),
(707,677,o),
(621,758,o),
(491,758,cs),
(422,758,o),
(344,733,o),
(278,679,c),
(302,648,l),
(360,696,o),
(426,720,o),
(491,720,cs),
(598,720,o),
(663,658,o),
(663,553,cs),
(663,434,o),
(605,362,o),
(496,248,cs),
(258,-2,l),
(258,-38,l)
);
}
);
width = 1000;
},
{
layerId = m01;
shapes = (
{
closed = 1;
nodes = (
(760,-38,l),
(760,50,l),
(363,50,l),
(363,54,l),
(526,216,ls),
(647,334,o),
(728,426,o),
(728,549,cs),
(728,679,o),
(636,758,o),
(490,758,cs),
(390,758,o),
(311,718,o),
(249,666,c),
(301,601,l),
(361,648,o),
(413,676,o),
(490,676,cs),
(573,676,o),
(629,630,o),
(629,544,cs),
(629,437,o),
(564,369,o),
(446,250,cs),
(240,42,l),
(240,-38,l)
);
}
);
width = 1000;
},
{
layerId = m003;
shapes = (
{
closed = 1;
nodes = (
(789,-38,l),
(789,137,l),
(492,137,l),
(492,142,l),
(550,194,ls),
(699,329,o),
(774,408,o),
(774,544,cs),
(774,667,o),
(672,758,o),
(512,758,cs),
(356,758,o),
(281,696,o),
(211,633,c),
(327,497,l),
(391,552,o),
(438,580,o),
(488,580,cs),
(529,580,o),
(564,560,o),
(564,514,cs),
(564,457,o),
(530,420,o),
(411,295,cs),
(220,102,l),
(220,-38,l)
);
}
);
width = 1000;
}
);
unicode = 65298;
},
{
glyphname = three.full;
lastChange = "2022-11-04 13:37:21 +0000";
layers = (
{
layerId = m002;
shapes = (
{
closed = 1;
nodes = (
(654,-49,o),
(748,46,o),
(748,178,cs),
(748,291,o),
(679,356,o),
(556,372,c),
(556,375,l),
(653,392,o),
(723,464,o),
(723,567,cs),
(723,687,o),
(636,758,o),
(501,758,cs),
(402,758,o),
(323,725,o),
(260,677,c),
(282,645,l),
(350,695,o),
(419,720,o),
(501,720,cs),
(609,720,o),
(679,669,o),
(679,566,cs),
(679,446,o),
(579,389,o),
(460,389,cs),
(372,389,l),
(372,350,l),
(460,350,ls),
(605,350,o),
(702,303,o),
(702,178,cs),
(702,63,o),
(627,-10,o),
(471,-10,cs),
(392,-10,o),
(310,10,o),
(253,39,c),
(253,-4,l),
(310,-31,o),
(386,-49,o),
(471,-49,cs)
);
}
);
width = 1000;
},
{
layerId = m01;
shapes = (
{
closed = 1;
nodes = (
(665,-49,o),
(759,48,o),
(759,185,cs),
(759,289,o),
(697,356,o),
(572,371,c),
(572,376,l),
(671,395,o),
(734,458,o),
(734,564,cs),
(734,676,o),
(655,758,o),
(491,758,cs),
(386,758,o),
(302,721,o),
(246,677,c),
(294,611,l),
(353,650,o),
(408,677,o),
(492,677,cs),
(580,677,o),
(635,633,o),
(635,557,cs),
(635,468,o),
(567,409,o),
(438,409,cs),
(361,409,l),
(361,326,l),
(437,326,ls),
(576,326,o),
(657,285,o),
(657,188,cs),
(657,91,o),
(599,32,o),
(458,32,cs),
(388,32,o),
(308,51,o),
(242,84,c),
(242,-6,l),
(306,-38,o),
(375,-49,o),
(457,-49,cs)
);
}
);
width = 1000;
},
{
layerId = m003;
shapes = (
{
closed = 1;
nodes = (
(681,-49,o),
(781,58,o),
(781,186,cs),
(781,298,o),
(710,357,o),
(584,372,c),
(584,376,l),
(678,401,o),
(758,465,o),
(758,577,cs),
(758,690,o),
(659,758,o),
(497,758,cs),
(361,758,o),
(285,723,o),
(220,679,c),
(308,537,l),
(331,552,o),
(393,588,o),
(464,588,cs),
(517,588,o),
(552,568,o),
(552,526,cs),
(552,478,o),
(510,444,o),
(391,444,cs),
(341,444,l),
(341,284,l),
(389,284,ls),
(525,284,o),
(557,252,o),
(557,200,cs),
(557,150,o),
(526,118,o),
(422,118,cs),
(363,118,o),
(287,135,o),
(219,170,c),
(219,-6,l),
(286,-32,o),
(352,-49,o),
(453,-49,cs)
);
}
);
width = 1000;
}
);
unicode = 65299;
},
{
glyphname = four.full;
lastChange = "2022-10-28 12:49:15 +0000";
layers = (
{
layerId = m002;
shapes = (
{
closed = 1;
nodes = (
(653,-38,l),
(653,169,l),
(794,169,l),
(794,207,l),
(653,207,l),
(653,752,l),
(609,752,l),
(206,201,l),
(206,169,l),
(611,169,l),
(611,-38,l)
);
},
{
closed = 1;
nodes = (
(545,603,ls),
(575,643,o),
(588,666,o),
(611,702,c),
(613,702,l),
(612,648,o),
(611,617,o),
(611,525,cs),
(611,207,l),
(257,207,l)
);
}
);
width = 1000;
},
{
layerId = m01;
shapes = (
{
closed = 1;
nodes = (
(678,-38,l),
(678,140,l),
(792,140,l),
(792,227,l),
(678,227,l),
(678,752,l),
(578,752,l),
(208,223,l),
(208,140,l),
(584,140,l),
(584,-38,l)
);
},
{
closed = 1;
nodes = (
(538,563,ls),
(553,585,o),
(573,621,o),
(585,648,c),
(590,648,l),
(587,600,o),
(584,551,o),
(584,475,cs),
(584,227,l),
(303,227,l)
);
}
);
width = 1000;
},
{
layerId = m003;
shapes = (
{
closed = 1;
nodes = (
(718,-38,l),
(718,114,l),
(805,114,l),
(805,272,l),
(718,272,l),
(718,747,l),
(522,747,l),
(195,270,l),
(195,114,l),
(509,114,l),
(509,-38,l)
);
},
{
closed = 1;
nodes = (
(466,402,ls),
(485,431,o),
(493,447,o),
(508,479,c),
(513,479,l),
(512,477,o),
(509,397,o),
(509,364,cs),
(509,272,l),
(379,272,l)
);
}
);
width = 1000;
}
);
unicode = 65300;
},
{
glyphname = five.full;
lastChange = "2022-10-28 12:54:17 +0000";
layers = (
{
layerId = m002;
shapes = (
{
closed = 1;
nodes = (
(413,433,o),
(363,421,o),
(329,413,c),
(354,708,l),
(691,708,l),
(691,747,l),
(318,747,l),
(285,391,l),
(311,371,l),
(361,386,o),
(414,394,o),
(476,394,cs),
(622,394,o),
(695,322,o),
(695,201,cs),
(695,67,o),
(602,-10,o),
(459,-10,cs),
(381,-10,o),
(310,12,o),
(261,41,c),
(261,-4,l),
(307,-30,o),
(375,-49,o),
(459,-49,cs),
(628,-49,o),
(739,47,o),
(739,203,cs),
(739,350,o),
(641,433,o),
(483,433,cs)
);
}
);
width = 1000;
},
{
layerId = m01;
shapes = (
{
closed = 1;
nodes = (
(433,444,o),
(389,436,o),
(364,432,c),
(382,659,l),
(694,659,l),
(694,747,l),
(300,747,l),
(270,377,l),
(319,346,l),
(350,354,o),
(411,362,o),
(453,362,cs),
(589,362,o),
(650,305,o),
(650,203,cs),
(650,87,o),
(572,34,o),
(456,34,cs),
(387,34,o),
(304,53,o),
(251,85,c),
(251,-6,l),
(300,-35,o),
(374,-49,o),
(455,-49,cs),
(640,-49,o),
(749,50,o),
(749,213,cs),
(749,359,o),
(645,444,o),
(485,444,cs)
);
}
);
width = 1000;
},
{
layerId = m003;
shapes = (
{
closed = 1;
nodes = (
(482,477,o),
(465,471,o),
(442,467,c),
(452,570,l),
(719,570,l),
(719,747,l),
(271,747,l),
(242,333,l),
(320,294,l),
(348,303,o),
(388,313,o),
(427,313,cs),
(514,313,o),
(557,277,o),
(557,217,cs),
(557,152,o),
(513,118,o),
(435,118,cs),
(370,118,o),
(283,142,o),
(228,168,c),
(228,-6,l),
(287,-35,o),
(361,-49,o),
(453,-49,cs),
(667,-49,o),
(772,48,o),
(772,224,cs),
(772,386,o),
(665,477,o),
(534,477,cs)
);
}
);
width = 1000;
}
);
unicode = 65301;
},
{
glyphname = six.full;
lastChange = "2022-10-28 12:57:16 +0000";
layers = (
{
layerId = m002;
shapes = (
{
closed = 1;
nodes = (
(253,114,o),
(332,-49,o),
(510,-49,cs),
(660,-49,o),
(748,56,o),
(748,211,cs),
(748,356,o),
(662,447,o),
(519,447,cs),
(399,447,o),
(327,386,o),
(298,325,c),
(294,325,l),
(301,598,o),
(409,722,o),
(588,722,cs),
(630,722,o),
(667,716,o),
(694,707,c),
(694,746,l),
(665,755,o),
(630,761,o),
(588,761,cs),
(378,761,o),
(253,609,o),
(253,295,cs)
);
},
{
closed = 1;
nodes = (
(345,-10,o),
(301,155,o),
(301,244,cs),
(301,316,o),
(382,410,o),
(514,410,cs),
(642,410,o),
(705,334,o),
(705,211,cs),
(705,71,o),
(634,-10,o),
(510,-10,cs)
);
}
);
width = 1000;
},
{
layerId = m01;
shapes = (
{
closed = 1;
nodes = (
(242,62,o),
(359,-49,o),
(509,-49,cs),
(662,-49,o),
(759,51,o),
(759,215,cs),
(759,367,o),
(667,454,o),
(531,454,cs),
(436,454,o),
(378,413,o),
(345,361,c),
(338,361,l),
(346,533,o),
(400,679,o),
(603,679,cs),
(636,679,o),
(672,675,o),
(698,666,c),
(698,749,l),
(674,755,o),
(632,758,o),
(601,758,cs),
(305,758,o),
(242,523,o),
(242,298,cs)
);
},
{
closed = 1;
nodes = (
(397,32,o),
(339,138,o),
(339,234,cs),
(339,303,o),
(408,378,o),
(511,378,cs),
(612,378,o),
(663,315,o),
(663,215,cs),
(663,91,o),
(600,32,o),
(508,32,cs)
);
}
);
width = 1000;
},
{
layerId = m003;
shapes = (
{
closed = 1;
nodes = (
(213,59,o),
(341,-49,o),
(509,-49,cs),
(681,-49,o),
(787,54,o),
(787,230,cs),
(787,393,o),
(704,486,o),
(567,486,cs),
(483,486,o),
(439,446,o),
(411,394,c),
(405,394,l),
(411,519,o),
(461,593,o),
(620,593,cs),
(673,593,o),
(707,589,o),
(737,584,c),
(737,750,l),
(707,754,o),
(656,758,o),
(625,758,cs),
(277,758,o),
(213,520,o),
(213,294,cs)
);
},
{
closed = 1;
nodes = (
(449,119,o),
(425,181,o),
(425,237,cs),
(425,279,o),
(454,322,o),
(507,322,cs),
(559,322,o),
(581,285,o),
(581,226,cs),
(581,152,o),
(550,119,o),
(505,119,cs)
);
}
);
width = 1000;
}
);
unicode = 65302;
},
{
glyphname = seven.full;
lastChange = "2022-10-28 12:59:17 +0000";
layers = (
{
layerId = m002;
shapes = (
{
closed = 1;
nodes = (
(425,-38,l),
(752,718,l),
(752,747,l),
(248,747,l),
(248,708,l),
(705,708,l),
(378,-38,l)
);
}
);
width = 1000;
},
{
layerId = m01;
shapes = (
{
closed = 1;
nodes = (
(444,-38,l),
(763,673,l),
(763,747,l),
(237,747,l),
(237,659,l),
(660,659,l),
(338,-38,l)
);
}
);
width = 1000;
},
{
layerId = m003;
shapes = (
{
closed = 1;
nodes = (
(507,-38,l),
(783,622,l),
(783,747,l),
(217,747,l),
(217,571,l),
(557,571,l),
(287,-38,l)
);
}
);
width = 1000;
}
);
unicode = 65303;
},
{
glyphname = eight.full;
lastChange = "2022-10-28 13:01:46 +0000";
layers = (
{
layerId = m002;
shapes = (
{
closed = 1;
nodes = (
(638,-49,o),
(745,28,o),
(745,162,cs),
(745,274,o),
(667,337,o),
(544,381,c),
(649,425,o),
(719,481,o),
(719,577,cs),
(719,691,o),
(632,758,o),
(499,758,cs),
(371,758,o),
(280,688,o),
(280,576,cs),
(280,469,o),
(357,419,o),
(452,379,c),
(335,338,o),
(255,273,o),
(255,156,cs),
(255,32,o),
(352,-49,o),
(497,-49,cs)
);
},
{
closed = 1;
nodes = (
(375,-12,o),
(298,53,o),
(298,156,cs),
(298,266,o),
(381,321,o),
(495,360,c),
(522,350,ls),
(639,307,o),
(702,254,o),
(702,162,cs),
(702,50,o),
(618,-12,o),
(496,-12,cs)
);
},
{
closed = 1;
nodes = (
(396,438,o),
(323,483,o),
(323,575,cs),
(323,668,o),
(397,721,o),
(499,721,cs),
(609,721,o),
(676,672,o),
(676,577,cs),
(676,491,o),
(614,445,o),
(503,400,c)
);
}
);
width = 1000;
},
{
layerId = m01;
shapes = (
{
closed = 1;
nodes = (
(659,-49,o),
(760,34,o),
(760,166,cs),
(760,272,o),
(682,331,o),
(585,378,c),
(667,420,o),
(735,476,o),
(735,570,cs),
(735,692,o),
(637,758,o),
(499,758,cs),
(365,758,o),
(265,691,o),
(265,571,cs),
(265,475,o),
(326,416,o),
(403,372,c),
(316,333,o),
(240,269,o),
(240,162,cs),
(240,29,o),
(333,-49,o),
(503,-49,cs)
);
},
{
closed = 1;
nodes = (
(387,28,o),
(334,85,o),
(334,161,cs),
(334,241,o),
(386,291,o),
(483,333,c),
(501,326,ls),
(601,288,o),
(666,240,o),
(666,164,cs),
(666,84,o),
(607,28,o),
(501,28,cs)
);
},
{
closed = 1;
nodes = (
(424,449,o),
(360,486,o),
(360,567,cs),
(360,640,o),
(417,680,o),
(498,680,cs),
(583,680,o),
(639,640,o),
(639,567,cs),
(639,488,o),
(580,447,o),
(504,415,c)
);
}
);
width = 1000;
},
{
layerId = m003;
shapes = (
{
closed = 1;
nodes = (
(697,-49,o),
(787,45,o),
(787,171,cs),
(787,274,o),
(702,334,o),
(628,376,c),
(707,414,o),
(763,472,o),
(763,567,cs),
(763,696,o),
(657,758,o),
(502,758,cs),
(347,758,o),
(237,695,o),
(237,568,cs),
(237,477,o),
(290,416,o),
(356,372,c),
(274,331,o),
(213,278,o),
(213,169,cs),
(213,40,o),
(300,-49,o),
(499,-49,cs)
);
},
{
closed = 1;
nodes = (
(441,104,o),
(408,134,o),
(408,178,cs),
(408,225,o),
(449,257,o),
(497,282,c),
(512,273,ls),
(539,257,o),
(592,222,o),
(592,173,cs),
(592,130,o),
(562,104,o),
(497,104,cs)
);
},
{
closed = 1;
nodes = (
(463,487,o),
(436,514,o),
(436,548,cs),
(436,584,o),
(465,606,o),
(501,606,cs),
(535,606,o),
(564,584,o),
(564,548,cs),
(564,507,o),
(529,485,o),
(498,467,c)
);
}
);
width = 1000;
}
);
unicode = 65304;
},
{
glyphname = nine.full;
lastChange = "2022-10-28 13:03:50 +0000";
layers = (
{
layerId = m002;
shapes = (
{
closed = 1;
nodes = (
(748,599,o),
(673,758,o),
(491,758,cs),
(341,758,o),
(253,655,o),
(253,500,cs),
(253,355,o),
(336,262,o),
(480,262,cs),
(600,262,o),
(673,325,o),
(702,386,c),
(706,386,l),
(699,114,o),
(590,-13,o),
(412,-13,cs),
(368,-13,o),
(324,-5,o),
(298,4,c),
(298,-37,l),
(326,-46,o),
(372,-51,o),
(412,-51,cs),
(622,-51,o),
(748,102,o),
(748,415,cs)
);
},
{
closed = 1;
nodes = (
(656,720,o),
(699,555,o),
(699,468,cs),
(699,394,o),
(618,300,o),
(486,300,cs),
(358,300,o),
(295,377,o),
(295,501,cs),
(295,639,o),
(367,720,o),
(491,720,cs)
);
}
);
width = 1000;
},
{
layerId = m01;
shapes = (
{
closed = 1;
nodes = (
(759,646,o),
(642,758,o),
(492,758,cs),
(341,758,o),
(242,657,o),
(242,493,cs),
(242,342,o),
(332,256,o),
(467,256,cs),
(563,256,o),
(621,296,o),
(654,347,c),
(661,347,l),
(654,175,o),
(600,30,o),
(396,30,cs),
(363,30,o),
(325,36,o),
(299,45,c),
(299,-38,l),
(323,-46,o),
(368,-49,o),
(398,-49,cs),
(695,-49,o),
(759,186,o),
(759,412,cs)
);
},
{
closed = 1;
nodes = (
(605,677,o),
(661,570,o),
(661,476,cs),
(661,405,o),
(594,332,o),
(488,332,cs),
(386,332,o),
(337,393,o),
(337,494,cs),
(337,618,o),
(401,677,o),
(492,677,cs)
);
}
);
width = 1000;
},
{
layerId = m003;
shapes = (
{
closed = 1;
nodes = (
(787,651,o),
(656,758,o),
(492,758,cs),
(319,758,o),
(213,655,o),
(213,480,cs),
(213,316,o),
(298,224,o),
(430,224,cs),
(519,224,o),
(560,262,o),
(589,315,c),
(595,315,l),
(589,197,o),
(543,116,o),
(366,116,cs),
(326,116,o),
(297,119,o),
(266,125,c),
(266,-43,l),
(296,-48,o),
(344,-49,o),
(376,-49,cs),
(668,-49,o),
(787,123,o),
(787,403,cs)
);
},
{
closed = 1;
nodes = (
(552,589,o),
(575,529,o),
(575,472,cs),
(575,431,o),
(542,387,o),
(495,387,cs),
(444,387,o),
(419,424,o),
(419,482,cs),
(419,557,o),
(448,589,o),
(497,589,cs)
);
}
);
width = 1000;
}
);
unicode = 65305;
},
{
glyphname = zero.full.uv001;
lastChange = "2022-11-04 15:22:32 +0000";
layers = (
{
layerId = m002;
shapes = (
{
closed = 1;
nodes = (
(715,546,l),
(690,576,l),
(288,174,l),
(311,141,l)
);
},
{
ref = zero.full;
}
);
width = 1000;
},
{
layerId = m01;
shapes = (
{
closed = 1;
nodes = (
(712,512,l),
(651,574,l),
(288,211,l),
(349,149,l)
);
},
{
ref = zero.full;
}
);
width = 1000;
},
{
layerId = m003;
shapes = (
{
closed = 1;
nodes = (
(705,499,l),
(627,576,l),
(295,244,l),
(372,166,l)
);
},
{
ref = zero.full;
}
);
width = 1000;
}
);
},
{
glyphname = .notdef;
lastChange = "2022-11-04 12:37:28 +0000";
layers = (
{
layerId = m002;
shapes = (
{
closed = 1;
nodes = (
(352,440,o),
(669,573,o),
(864,767,c),
(838,784,l),
(654,600,o),
(335,463,o),
(36,388,c),
(42,381,o),
(51,366,o),
(54,358,c)
);
},
{
closed = 1;
nodes = (
(381,3,l),
(372,42,o),
(345,101,o),
(315,144,c),
(290,135,l),
(319,91,o),
(345,33,o),
(354,-7,c)
);
},
{
closed = 1;
nodes = (
(937,-41,l),
(937,-12,l),
(68,-12,l),
(68,-41,l)
);
},
{
closed = 1;
nodes = (
(664,31,o),
(694,88,o),
(719,138,c),
(690,148,l),
(672,105,o),
(639,40,o),
(613,0,c),
(637,-9,l)
);
},
{
closed = 1;
nodes = (
(279,298,l),
(775,298,l),
(775,190,l),
(279,190,l)
);
},
{
closed = 1;
nodes = (
(805,160,l),
(805,464,l),
(249,464,l),
(249,160,l)
);
},
{
closed = 1;
nodes = (
(279,435,l),
(775,435,l),
(775,328,l),
(279,328,l)
);
},
{
closed = 1;
nodes = (
(941,550,l),
(941,579,l),
(63,579,l),
(63,550,l)
);
},
{
closed = 1;
nodes = (
(454,564,l),
(454,831,l),
(425,831,l),
(425,564,l)
);
},
{
closed = 1;
nodes = (
(697,706,l),
(697,735,l),
(149,735,l),
(149,706,l)
);
}
);
width = 1000;
},
{
layerId = m01;
shapes = (
{
closed = 1;
nodes = (
(319,403,o),
(684,556,o),
(881,766,c),
(820,803,l),
(645,613,o),
(320,473,o),
(29,405,c),
(42,390,o),
(61,356,o),
(67,340,c)
);
},
{
closed = 1;
nodes = (
(400,26,l),
(391,61,o),
(370,113,o),
(344,152,c),
(279,135,l),
(300,96,o),
(323,44,o),
(329,7,c)
);
},
{
closed = 1;
nodes = (
(937,-51,l),
(937,13,l),
(66,13,l),
(66,-51,l)
);
},
{
closed = 1;
nodes = (
(681,42,o),
(708,91,o),
(730,138,c),
(656,155,l),
(642,115,o),
(617,60,o),
(596,23,c),
(662,8,l)
);
},
{
closed = 1;
nodes = (
(306,279,l),
(744,279,l),
(744,199,l),
(306,199,l)
);
},
{
closed = 1;
nodes = (
(817,145,l),
(817,463,l),
(234,463,l),
(234,145,l)
);
},
{
closed = 1;
nodes = (
(306,409,l),
(744,409,l),
(744,331,l),
(306,331,l)
);
},
{
closed = 1;
nodes = (
(940,536,l),
(940,600,l),
(61,600,l),
(61,536,l)
);
},
{
closed = 1;
nodes = (
(474,570,l),
(474,835,l),
(400,835,l),
(400,570,l)
);
},
{
closed = 1;
nodes = (
(698,694,l),
(698,757,l),
(148,757,l),
(148,694,l)
);
}
);
width = 1000;
},
{
layerId = m003;
shapes = (
{
closed = 1;
nodes = (
(398.665,394.444,o),
(719.364,542.169,o),
(917,775,c),
(798,843,l),
(626,636,o),
(324.096,502.844,o),
(9,434,c),
(30.481,407.149,o),
(60.351,359.484,o),
(82,310,c)
);
},
{
closed = 1;
nodes = (
(429,53,l),
(421,83.667,o),
(405.333,126.667,o),
(388,160,c),
(254,130,l),
(269,95,o),
(284.667,47.667,o),
(290,17,c)
);
},
{
closed = 1;
nodes = (
(947,-76,l),
(947,44,l),
(55,44,l),
(55,-76,l)
);
},
{
closed = 1;
nodes = (
(723,62,o),
(744,106,o),
(755,134,c),
(603,160,l),
(598,128,o),
(583,84,o),
(571,52,c),
(703,27,l)
);
},
{
closed = 1;
nodes = (
(346,271,l),
(698,271,l),
(698,237,l),
(346,237,l)
);
},
{
closed = 1;
nodes = (
(845,144,l),
(845,485,l),
(206,485,l),
(206,144,l)
);
},
{
closed = 1;
nodes = (
(346,392,l),
(698,392,l),
(698,359,l),
(346,359,l)
);
},
{
closed = 1;
nodes = (
(950,527,l),
(950,647,l),
(49,647,l),
(49,527,l)
);
},
{
closed = 1;
nodes = (
(506,584,l),
(506,854,l),
(358,854,l),
(358,584,l)
);
},
{
closed = 1;
nodes = (
(703,685,l),
(703,802,l),
(140,802,l),
(140,685,l)
);
}
);
width = 1000;
}
);
},
{
glyphname = "comma-han";
kernLeft = PeriodComma;
kernRight = PeriodComma;
lastChange = "2022-11-17 03:28:00 +0000";
layers = (
{
layerId = m01;
shapes = (
{
closed = 1;
nodes = (
(341,2,l),
(279,75,o),
(189,166,o),
(117,224,c),
(52,167,l),
(123,109,o),
(209,23,o),
(273,-56,c)
);
}
);
width = 1000;
},
{
layerId = m002;
shapes = (
{
closed = 1;
nodes = (
(320,-19,l),
(246,65,o),
(162,148,o),
(89,206,c),
(64,182,l),
(136,126,o),
(223,41,o),
(291,-43,c)
);
}
);
width = 1000;
},
{
layerId = m003;
shapes = (
{
closed = 1;
nodes = (
(374,35,l),
(330,91,o),
(230,194,o),
(160,252,c),
(33,143,l),
(102,82,o),
(186,-4,o),
(245,-76,c)
);
}
);
width = 1000;
}
);
unicode = 12289;
},
{
glyphname = "period-han";
kernLeft = PeriodComma;
kernRight = PeriodComma;
lastChange = "2022-11-17 01:45:45 +0000";
layers = (
{
layerId = m01;
shapes = (
{
closed = 1;
nodes = (
(278,-61,o),
(346,7,o),
(346,92,cs),
(346,177,o),
(278,245,o),
(193,245,cs),
(108,245,o),
(40,177,o),
(40,92,cs),
(40,7,o),
(108,-61,o),
(193,-61,cs)
);
},
{
closed = 1;
nodes = (
(139,-4,o),
(97,38,o),
(97,92,cs),
(97,146,o),
(139,188,o),
(193,188,cs),
(247,188,o),
(289,146,o),
(289,92,cs),
(289,38,o),
(247,-4,o),
(193,-4,cs)
);
}
);
width = 1000;
},
{
layerId = m002;
shapes = (
{
closed = 1;
nodes = (
(273,-46,o),
(336,17,o),
(336,97,cs),
(336,177,o),
(273,240,o),
(193,240,cs),
(113,240,o),
(50,177,o),
(50,97,cs),
(50,17,o),
(113,-46,o),
(193,-46,cs)
);
},
{
closed = 1;
nodes = (
(131,-14,o),
(82,35,o),
(82,97,cs),
(82,159,o),
(131,208,o),
(193,208,cs),
(255,208,o),
(304,159,o),
(304,97,cs),
(304,35,o),
(255,-14,o),
(193,-14,cs)
);
}
);
width = 1000;
},
{
layerId = m003;
shapes = (
{
closed = 1;
nodes = (
(286,-84,o),
(360,-10,o),
(360,83,cs),
(360,176,o),
(286,250,o),
(193,250,cs),
(100,250,o),
(26,176,o),
(26,83,cs),
(26,-10,o),
(100,-84,o),
(193,-84,cs)
);
},
{
closed = 1;
nodes = (
(149,3,o),
(113,39,o),
(113,83,cs),
(113,127,o),
(149,163,o),
(193,163,cs),
(237,163,o),
(273,127,o),
(273,83,cs),
(273,39,o),
(237,3,o),
(193,3,cs)
);
}
);
width = 1000;
}
);
unicode = 12290;
},
{
glyphname = "dot-kata";
kernBottom = CenteredVert;
kernLeft = Centered;
kernRight = Centered;
kernTop = CenteredVert;
lastChange = "2022-11-17 03:04:23 +0000";
layers = (
{
layerId = m002;
shapes = (
{
closed = 1;
nodes = (
(440,337,o),
(455,311,o),
(500,311,cs),
(545,311,o),
(560,337,o),
(560,380,cs),
(560,423,o),
(545,449,o),
(500,449,cs),
(455,449,o),
(440,423,o),
(440,380,cs)
);
}
);
width = 1000;
},
{
layerId = m01;
shapes = (
{
closed = 1;
nodes = (
(402,304,o),
(447,274,o),
(500,274,cs),
(553,274,o),
(598,304,o),
(598,380,cs),
(598,456,o),
(553,486,o),
(500,486,cs),
(447,486,o),
(402,456,o),
(402,380,cs)
);
}
);
width = 1000;
},
{
layerId = m003;
shapes = (
{
closed = 1;
nodes = (
(360,285,o),
(425,251,o),
(500,251,cs),
(575,251,o),
(640,285,o),
(640,380,cs),
(640,475,o),
(575,509,o),
(500,509,cs),
(425,509,o),
(360,475,o),
(360,380,cs)
);
}
);
width = 1000;
}
);
unicode = 12539;
},
{
glyphname = "dblhyphen-kana";
lastChange = "2022-10-28 11:53:24 +0000";
layers = (
{
layerId = m002;
shapes = (
{
closed = 1;
nodes = (
(260,450,l),
(740,450,l),
(740,490,l),
(260,490,l)
);
},
{
closed = 1;
nodes = (
(260,270,l),
(740,270,l),
(740,310,l),
(260,310,l)
);
}
);
width = 1000;
},
{
layerId = m01;
shapes = (
{
closed = 1;
nodes = (
(260,435,l),
(740,435,l),
(740,515,l),
(260,515,l)
);
},
{
closed = 1;
nodes = (
(260,245,l),
(740,245,l),
(740,325,l),
(260,325,l)
);
}
);
width = 1000;
},
{
layerId = m003;
shapes = (
{
closed = 1;
nodes = (
(245,425,l),
(755,425,l),
(755,555,l),
(245,555,l)
);
},
{
closed = 1;
nodes = (
(245,205,l),
(755,205,l),
(755,335,l),
(245,335,l)
);
}
);
width = 1000;
}
);
unicode = 12448;
},
{
glyphname = periodcentered;
lastChange = "2022-10-27 04:19:43 +0000";
layers = (
{
layerId = m01;
shapes = (
{
closed = 1;
nodes = (
(182,327,o),
(213,306,o),
(250,306,cs),
(287,306,o),
(318,327,o),
(318,380,cs),
(318,433,o),
(287,454,o),
(250,454,cs),
(213,454,o),
(182,433,o),
(182,380,cs)
);
}
);
width = 500;
},
{
layerId = m002;
shapes = (
{
closed = 1;
nodes = (
(213,354,o),
(222,338,o),
(250,338,cs),
(278,338,o),
(287,354,o),
(287,380,cs),
(287,406,o),
(278,422,o),
(250,422,cs),
(222,422,o),
(213,406,o),
(213,380,cs)
);
}
);
width = 500;
},
{
layerId = m003;
shapes = (
{
closed = 1;
nodes = (
(138,304,o),
(190,277,o),
(250,277,cs),
(310,277,o),
(362,304,o),
(362,380,cs),
(362,456,o),
(310,483,o),
(250,483,cs),
(190,483,o),
(138,456,o),
(138,380,cs)
);
}
);
width = 500;
}
);
unicode = (183,8231);
},
{
glyphname = ampersand.full;
lastChange = "2022-10-28 13:12:00 +0000";
layers = (
{
layerId = m002;
shapes = (
{
closed = 1;
nodes = (
(530,-49,o),
(608,2,o),
(677,73,c),
(783,-38,l),
(840,-38,l),
(704,101,l),
(755,163,o),
(793,238,o),
(815,329,c),
(771,329,l),
(754,250,o),
(719,181,o),
(677,130,c),
(420,388,l),
(530,443,o),
(602,500,o),
(602,599,cs),
(602,699,o),
(530,760,o),
(427,760,cs),
(316,760,o),
(241,695,o),
(241,595,cs),
(241,518,o),
(284,469,o),
(354,397,c),
(231,336,o),
(160,281,o),
(160,160,cs),
(160,26,o),
(257,-49,o),
(400,-49,cs)
);
},
{
closed = 1;
nodes = (
(283,-9,o),
(204,53,o),
(204,161,cs),
(204,268,o),
(267,313,o),
(382,369,c),
(649,100,l),
(586,34,o),
(517,-9,o),
(402,-9,cs)
);
},
{
closed = 1;
nodes = (
(322,485,o),
(284,530,o),
(284,595,cs),
(284,673,o),
(338,721,o),
(426,721,cs),
(507,721,o),
(559,675,o),
(559,599,cs),
(559,515,o),
(497,464,o),
(391,415,c)
);
}
);
width = 1000;
},
{
layerId = m01;
shapes = (
{
closed = 1;
nodes = (
(497,-49,o),
(576,-7,o),
(646,54,c),
(741,-38,l),
(872,-38,l),
(712,118,l),
(767,179,o),
(801,260,o),
(824,355,c),
(726,355,l),
(710,285,o),
(688,225,o),
(649,180,c),
(437,384,l),
(527,437,o),
(594,498,o),
(594,590,cs),
(594,697,o),
(521,760,o),
(404,760,cs),
(278,760,o),
(201,696,o),
(201,588,cs),
(201,508,o),
(250,450,o),
(297,398,c),
(193,338,o),
(128,279,o),
(128,167,cs),
(128,28,o),
(223,-49,o),
(375,-49,cs)
);
},
{
closed = 1;
nodes = (
(287,37,o),
(229,90,o),
(229,170,cs),
(229,249,o),
(276,290,o),
(355,337,c),
(584,115,l),
(538,72,o),
(472,37,o),
(378,37,cs)
);
},
{
closed = 1;
nodes = (
(325,496,o),
(296,536,o),
(296,589,cs),
(296,646,o),
(339,680,o),
(400,680,cs),
(460,680,o),
(498,643,o),
(498,590,cs),
(498,531,o),
(464,491,o),
(377,442,c)
);
}
);
width = 1000;
},
{
layerId = m003;
shapes = (
{
closed = 1;
nodes = (
(493,-49,o),
(539,-20,o),
(598,17,c),
(651,-38,l),
(923,-38,l),
(751,127,l),
(805,192,o),
(857,296,o),
(880,403,c),
(662,403,l),
(651,350,o),
(631,302,o),
(606,263,c),
(499,365,l),
(583,415,o),
(641,479,o),
(641,570,cs),
(641,688,o),
(550,757,o),
(402,757,cs),
(239,757,o),
(153,679,o),
(153,570,cs),
(153,500,o),
(179,446,o),
(223,395,c),
(129,347,o),
(77,273,o),
(77,180,cs),
(77,53,o),
(178,-49,o),
(362,-49,cs)
);
},
{
closed = 1;
nodes = (
(329,118,o),
(294,150,o),
(294,195,cs),
(294,228,o),
(307,257,o),
(338,280,c),
(471,145,l),
(454,131,o),
(422,118,o),
(382,118,cs)
);
},
{
closed = 1;
nodes = (
(364,503,o),
(342,532,o),
(342,564,cs),
(342,603,o),
(369,620,o),
(398,620,cs),
(429,620,o),
(452,606,o),
(452,570,cs),
(452,537,o),
(430,503,o),
(389,480,c)
);
}
);
width = 1000;
}
);
unicode = 65286;
},
{
glyphname = asterisk.full;
lastChange = "2022-10-28 15:14:43 +0000";
layers = (
{
layerId = m002;
shapes = (
{
closed = 1;
nodes = (
(520,5,l),
(520,345,l),
(815,175,l),
(835,210,l),
(540,380,l),
(835,550,l),
(815,585,l),
(520,415,l),
(520,755,l),
(480,755,l),
(480,415,l),
(185,585,l),
(165,550,l),
(460,380,l),
(165,210,l),
(185,175,l),
(480,345,l),
(480,5,l)
);
}
);
width = 1000;
},
{
layerId = m01;
shapes = (
{
closed = 1;
nodes = (
(540,18,l),
(540,311,l),
(794,164,l),
(834,233,l),
(580,380,l),
(834,527,l),
(794,596,l),
(540,449,l),
(540,743,l),
(460,743,l),
(460,449,l),
(206,596,l),
(166,527,l),
(420,380,l),
(166,233,l),
(206,164,l),
(460,311,l),
(460,18,l)
);
}
);
width = 1000;
},
{
layerId = m003;
shapes = (
{
closed = 1;
nodes = (
(575,30,l),
(561,274,l),
(766,140,l),
(841,270,l),
(623,380,l),
(841,490,l),
(766,620,l),
(561,486,l),
(575,730,l),
(425,730,l),
(439,486,l),
(234,620,l),
(159,490,l),
(377,380,l),
(159,270,l),
(234,140,l),
(439,274,l),
(425,30,l)
);
}
);
width = 1000;
}
);
unicode = 65290;
},
{
glyphname = at.full;
lastChange = "2022-10-28 13:34:52 +0000";
layers = (
{
layerId = m002;
shapes = (
{
closed = 1;
nodes = (
(927,590,o),
(774,741,o),
(532,741,cs),
(258,741,o),
(73,568,o),
(73,273,cs),
(73,16,o),
(225,-146,o),
(475,-146,cs),
(561,-146,o),
(636,-129,o),
(700,-103,c),
(700,-63,l),
(631,-92,o),
(552,-108,o),
(475,-108,cs),
(247,-108,o),
(113,36,o),
(113,274,cs),
(113,545,o),
(282,703,o),
(532,703,cs),
(759,703,o),
(887,565,o),
(887,349,cs),
(887,215,o),
(844,116,o),
(753,116,cs),
(693,116,o),
(666,157,o),
(666,235,cs),
(666,266,o),
(668,300,o),
(669,326,cs),
(678,499,l),
(638,513,o),
(587,522,o),
(532,522,cs),
(392,522,o),
(299,419,o),
(299,277,cs),
(299,151,o),
(359,80,o),
(468,80,cs),
(541,80,o),
(603,115,o),
(635,192,c),
(636,192,l),
(641,122,o),
(685,80,o),
(752,80,cs),
(871,80,o),
(927,202,o),
(927,349,cs)
);
},
{
closed = 1;
nodes = (
(339,401,o),
(414,486,o),
(532,486,cs),
(575,486,o),
(609,480,o),
(639,470,c),
(630,311,ls),
(622,180,o),
(569,116,o),
(471,116,cs),
(383,116,o),
(339,173,o),
(339,277,cs)
);
}
);
width = 1000;
},
{
layerId = m01;
shapes = (
{
closed = 1;
nodes = (
(931,598,o),
(765,747,o),
(536,747,cs),
(245,747,o),
(69,544,o),
(69,270,cs),
(69,15,o),
(222,-136,o),
(482,-136,cs),
(576,-136,o),
(656,-117,o),
(718,-91,c),
(718,-16,l),
(656,-40,o),
(571,-63,o),
(482,-63,cs),
(266,-63,o),
(149,57,o),
(149,273,cs),
(149,507,o),
(285,675,o),
(536,675,cs),
(718,675,o),
(854,559,o),
(854,356,cs),
(854,243,o),
(815,150,o),
(747,150,cs),
(711,150,o),
(679,168,o),
(679,245,cs),
(679,249,o),
(679,258,o),
(680,284,cs),
(691,508,l),
(656,521,o),
(587,534,o),
(523,534,cs),
(380,534,o),
(289,431,o),
(289,287,cs),
(289,163,o),
(352,82,o),
(464,82,cs),
(542,82,o),
(593,124,o),
(619,178,c),
(625,178,l),
(634,127,o),
(673,82,o),
(740,82,cs),
(868,82,o),
(931,221,o),
(931,355,cs)
);
},
{
closed = 1;
nodes = (
(375,375,o),
(415,465,o),
(524,465,cs),
(554,465,o),
(585,459,o),
(605,454,c),
(598,316,ls),
(593,218,o),
(560,150,o),
(479,150,cs),
(415,150,o),
(375,190,o),
(375,284,cs)
);
}
);
width = 1000;
},
{
layerId = m003;
shapes = (
{
closed = 1;
nodes = (
(949,609,o),
(781,757,o),
(527,757,cs),
(237,757,o),
(51,554,o),
(51,290,cs),
(51,36,o),
(216,-120,o),
(497,-120,cs),
(595,-120,o),
(690,-102,o),
(766,-70,c),
(766,53,l),
(678,21,o),
(571,2,o),
(490,2,cs),
(295,2,o),
(197,114,o),
(197,288,cs),
(197,491,o),
(311,637,o),
(529,637,cs),
(714,637,o),
(807,533,o),
(807,369,cs),
(807,280,o),
(784,204,o),
(745,204,cs),
(729,204,o),
(718,216,o),
(718,250,cs),
(718,270,o),
(719,293,o),
(719,301,c),
(730,527,l),
(684,544,o),
(611,560,o),
(539,560,cs),
(360,560,o),
(264,450,o),
(264,305,cs),
(264,174,o),
(331,87,o),
(468,87,cs),
(528,87,o),
(574,115,o),
(607,151,c),
(615,151,l),
(642,109,o),
(693,87,o),
(746,87,cs),
(878,87,o),
(949,230,o),
(949,368,c)
);
},
{
closed = 1;
nodes = (
(415,380,o),
(453,443,o),
(541,443,cs),
(554,443,o),
(563,442,o),
(578,439,c),
(572,356,ls),
(565,248,o),
(545,204,o),
(486,204,cs),
(443,204,o),
(415,235,o),
(415,306,cs)
);
}
);
width = 1000;
}
);
unicode = 65312;
},
{
glyphname = backslash.full;
lastChange = "2022-10-28 17:03:20 +0000";
layers = (
{
layerId = m002;
shapes = (
{
closed = 1;
nodes = (
(915,-86,l),
(138,846,l),
(85,846,l),
(862,-86,l)
);
}
);
width = 1000;
},
{
layerId = m01;
shapes = (
{
closed = 1;
nodes = (
(915,-86,l),
(187,846,l),
(85,846,l),
(813,-86,l)
);
}
);
width = 1000;
},
{
layerId = m003;
shapes = (
{
closed = 1;
nodes = (
(915,-86,l),
(267,846,l),
(85,846,l),
(733,-86,l)
);
}
);
width = 1000;
}
);
unicode = 65340;
},
{
glyphname = comma.full;
kernLeft = PeriodComma;
kernRight = PeriodComma;
lastChange = "2022-11-17 01:57:42 +0000";
layers = (
{
layerId = m01;
shapes = (
{
closed = 1;
nodes = (
(297,170,l),
(194,170,l),
(183,93,o),
(160,-16,o),
(139,-100,c),
(210,-100,l),
(246,-21,o),
(285,80,o),
(305,158,c)
);
}
);
width = 1000;
},
{
layerId = m002;
shapes = (
{
closed = 1;
nodes = (
(270,170,l),
(225,170,l),
(212,87,o),
(194,3,o),
(164,-100,c),
(198,-100,l),
(229,-24,o),
(256,76,o),
(274,157,c)
);
}
);
width = 1000;
},
{
layerId = m003;
shapes = (
{
closed = 1;
nodes = (
(355,214,l),
(172,214,l),
(162,126,o),
(140,0,o),
(119,-100,c),
(269,-100,l),
(305,-18,o),
(343,122,o),
(363,202,c)
);
}
);
width = 1000;
}
);
unicode = 65292;
},
{
glyphname = exclam.full;
kernLeft = PeriodComma;
kernRight = PeriodComma;
lastChange = "2022-11-17 01:45:45 +0000";
layers = (
{
layerId = m002;
shapes = (
{
closed = 1;
nodes = (
(268,190,l),
(275,780,l),
(225,780,l),
(232,190,l)
);
},
{
ref = period.full;
}
);
width = 1000;
},
{
layerId = m01;
shapes = (
{
closed = 1;
nodes = (
(282,217,l),
(309,780,l),
(191,780,l),
(218,217,l)
);
},
{
ref = period.full;
}
);
width = 1000;
},
{
layerId = m003;
shapes = (
{
closed = 1;
nodes = (
(339,271,l),
(366,780,l),
(134,780,l),
(161,271,l)
);
},
{
ref = period.full;
}
);
width = 1000;
}
);
unicode = 65281;
},
{
glyphname = numbersign.full;
lastChange = "2022-10-28 13:15:00 +0000";
layers = (
{
layerId = m002;
shapes = (
{
closed = 1;
nodes = (
(321,-38,l),
(369,207,l),
(575,207,l),
(527,-38,l),
(564,-38,l),
(613,207,l),
(783,207,l),
(783,244,l),
(619,244,l),
(662,465,l),
(825,465,l),
(825,500,l),
(668,500,l),
(716,747,l),
(679,747,l),
(631,500,l),
(425,500,l),
(472,747,l),
(433,747,l),
(386,500,l),
(218,500,l),
(218,465,l),
(381,465,l),
(337,244,l),
(175,244,l),
(175,207,l),
(331,207,l),
(284,-38,l)
);
},
{
closed = 1;
nodes = (
(418,465,l),
(624,465,l),
(581,244,l),
(375,244,l)
);
}
);
width = 1000;
},
{
layerId = m01;
shapes = (
{
closed = 1;
nodes = (
(347,-38,l),
(389,192,l),
(547,192,l),
(502,-38,l),
(580,-38,l),
(625,192,l),
(790,192,l),
(790,266,l),
(639,266,l),
(673,442,l),
(827,442,l),
(827,514,l),
(688,514,l),
(732,747,l),
(656,747,l),
(612,514,l),
(453,514,l),
(497,747,l),
(418,747,l),
(374,514,l),
(213,514,l),
(213,442,l),
(361,442,l),
(326,266,l),
(173,266,l),
(173,192,l),
(311,192,l),
(270,-38,l)
);
},
{
closed = 1;
nodes = (
(438,442,l),
(595,442,l),
(561,266,l),
(404,266,l)
);
}
);
width = 1000;
},
{
layerId = m003;
shapes = (
{
closed = 1;
nodes = (
(381,-38,l),
(420,172,l),
(510,172,l),
(470,-38,l),
(614,-38,l),
(654,172,l),
(810,172,l),
(810,309,l),
(679,309,l),
(696,399,l),
(844,399,l),
(844,538,l),
(721,538,l),
(761,747,l),
(617,747,l),
(578,538,l),
(489,538,l),
(529,747,l),
(385,747,l),
(346,538,l),
(192,538,l),
(192,399,l),
(320,399,l),
(303,309,l),
(156,309,l),
(156,172,l),
(277,172,l),
(238,-38,l)
);
},
{
closed = 1;
nodes = (
(463,399,l),
(552,399,l),
(535,309,l),
(446,309,l)
);
}
);
width = 1000;
}
);
unicode = 65283;
},
{
glyphname = percent.full;
lastChange = "2022-10-28 13:18:26 +0000";
layers = (
{
layerId = m002;
shapes = (
{
closed = 1;
nodes = (
(304,-38,l),
(739,747,l),
(697,747,l),
(262,-38,l)
);
},
{
closed = 1;
nodes = (
(372,266,o),
(428,349,o),
(428,513,cs),
(428,672,o),
(378,758,o),
(276,758,cs),
(178,758,o),
(122,675,o),
(122,513,cs),
(122,351,o),
(176,266,o),
(274,266,cs)
);
},
{
closed = 1;
nodes = (
(201,302,o),
(162,373,o),
(162,513,cs),
(162,654,o),
(202,722,o),
(276,722,cs),
(354,722,o),
(388,650,o),
(388,513,cs),
(388,375,o),
(351,302,o),
(274,302,cs)
);
},
{
closed = 1;
nodes = (
(822,-49,o),
(878,35,o),
(878,199,cs),
(878,357,o),
(827,444,o),
(725,444,cs),
(628,444,o),
(571,360,o),
(571,199,cs),
(571,37,o),
(625,-49,o),
(723,-49,cs)
);
},
{
closed = 1;
nodes = (
(650,-13,o),
(612,59,o),
(612,199,cs),
(612,339,o),
(652,408,o),
(725,408,cs),
(803,408,o),
(837,335,o),
(837,199,cs),
(837,60,o),
(800,-13,o),
(723,-13,cs)
);
}
);
width = 1000;
},
{
layerId = m01;
shapes = (
{
closed = 1;
nodes = (
(325,-38,l),
(760,747,l),
(675,747,l),
(240,-38,l)
);
},
{
closed = 1;
nodes = (
(371,266,o),
(422,358,o),
(422,513,cs),
(422,668,o),
(365,758,o),
(257,758,cs),
(146,758,o),
(97,668,o),
(97,513,cs),
(97,358,o),
(153,266,o),
(257,266,cs)
);
},
{
closed = 1;
nodes = (
(201,335,o),
(177,395,o),
(177,513,cs),
(177,631,o),
(201,690,o),
(257,690,cs),
(315,690,o),
(342,631,o),
(342,513,cs),
(342,394,o),
(315,335,o),
(257,335,cs)
);
},
{
closed = 1;
nodes = (
(851,-49,o),
(903,43,o),
(903,199,cs),
(903,354,o),
(845,444,o),
(738,444,cs),
(627,444,o),
(578,354,o),
(578,199,cs),
(578,43,o),
(634,-49,o),
(738,-49,cs)
);
},
{
closed = 1;
nodes = (
(682,20,o),
(658,80,o),
(658,199,cs),
(658,316,o),
(682,375,o),
(738,375,cs),
(795,375,o),
(823,316,o),
(823,199,cs),
(823,79,o),
(795,20,o),
(738,20,cs)
);
}
);
width = 1000;
},
{
layerId = m003;
shapes = (
{
closed = 1;
nodes = (
(360,-38,l),
(795,747,l),
(636,747,l),
(200,-38,l)
);
},
{
closed = 1;
nodes = (
(332,266,o),
(404,358,o),
(404,513,cs),
(404,668,o),
(322,758,o),
(199,758,cs),
(70,758,o),
(-1,668,o),
(-1,513,cs),
(-1,358,o),
(79,266,o),
(199,266,cs)
);
},
{
closed = 1;
nodes = (
(171,394,o),
(161,441,o),
(161,511,cs),
(161,582,o),
(171,628,o),
(201,628,cs),
(232,628,o),
(242,582,o),
(242,511,cs),
(242,439,o),
(232,394,o),
(201,394,cs)
);
},
{
closed = 1;
nodes = (
(930,-47,o),
(1001,46,o),
(1001,201,cs),
(1001,356,o),
(920,446,o),
(796,446,cs),
(668,446,o),
(596,356,o),
(596,201,cs),
(596,46,o),
(677,-47,o),
(796,-47,cs)
);
},
{
closed = 1;
nodes = (
(768,82,o),
(758,128,o),
(758,199,cs),
(758,270,o),
(768,315,o),
(799,315,cs),
(829,315,o),
(839,272,o),
(839,199,cs),
(839,127,o),
(829,82,o),
(799,82,cs)
);
}
);
width = 1000;
}
);
unicode = 65285;
},
{
glyphname = question.full;
kernLeft = PeriodComma;
kernRight = PeriodComma;
lastChange = "2022-11-17 01:45:45 +0000";
layers = (
{
layerId = m002;
shapes = (
{
closed = 1;
nodes = (
(180,190,l),
(217,190,l),
(217,206,ls),
(217,298,o),
(239,335,o),
(300,380,cs),
(384,442,o),
(441,494,o),
(441,602,cs),
(441,726,o),
(360,790,o),
(234,790,cs),
(169,790,o),
(121,778,o),
(59,750,c),
(74,712,l),
(127,737,o),
(175,750,o),
(232,750,cs),
(331,750,o),
(399,703,o),
(399,602,cs),
(399,508,o),
(353,466,o),
(273,407,cs),
(198,352,o),
(180,311,o),
(180,208,cs)
);
},
{
pos = (-48,0);
ref = period.full;
}
);
width = 1000;
},
{
layerId = m01;
shapes = (
{
closed = 1;
nodes = (
(173,217,l),
(250,217,l),
(250,235,ls),
(250,298,o),
(264,327,o),
(338,389,cs),
(417,455,o),
(468,500,o),
(468,599,cs),
(468,718,o),
(389,792,o),
(249,792,cs),
(161,792,o),
(91,769,o),
(32,738,c),
(66,661,l),
(117,685,o),
(170,707,o),
(242,707,cs),
(328,707,o),
(375,668,o),
(375,597,cs),
(375,531,o),
(350,505,o),
(265,433,cs),
(194,373,o),
(173,329,o),
(173,246,cs)
);
},
{
pos = (-34,0);
ref = period.full;
}
);
width = 1000;
},
{
layerId = m003;
shapes = (
{
closed = 1;
nodes = (
(146,271,l),
(305,271,l),
(305,298,ls),
(305,332,o),
(317,347,o),
(378,392,cs),
(460,450,o),
(496,505,o),
(496,594,cs),
(496,713,o),
(410,790,o),
(255,790,cs),
(162,790,o),
(80,762,o),
(4,714,c),
(72,571,l),
(134,607,o),
(190,627,o),
(238,627,cs),
(282,627,o),
(308,609,o),
(308,577,cs),
(308,543,o),
(296,521,o),
(234,477,cs),
(167,429,o),
(146,385,o),
(146,317,cs)
);
},
{
pos = (-21,0);
ref = period.full;
}
);
width = 1000;
}
);
unicode = 65311;
},
{
glyphname = quotedbl.full;
lastChange = "2022-10-28 13:24:27 +0000";
layers = (
{
layerId = m002;
shapes = (
{
closed = 1;
nodes = (
(599,464,l),
(608,747,l),
(562,747,l),
(569,464,l)
);
},
{
closed = 1;
nodes = (
(431,464,l),
(438,747,l),
(392,747,l),
(401,464,l)
);
}
);
width = 1000;
},
{
layerId = m01;
shapes = (
{
closed = 1;
nodes = (
(631,464,l),
(653,747,l),
(548,747,l),
(570,464,l)
);
},
{
closed = 1;
nodes = (
(430,464,l),
(452,747,l),
(347,747,l),
(369,464,l)
);
}
);
width = 1000;
},
{
layerId = m003;
shapes = (
{
closed = 1;
nodes = (
(701,464,l),
(723,747,l),
(532,747,l),
(554,464,l)
);
},
{
closed = 1;
nodes = (
(446,464,l),
(468,747,l),
(277,747,l),
(299,464,l)
);
}
);
width = 1000;
}
);
unicode = 65282;
},
{
glyphname = quotesingle.full;
lastChange = "2022-10-28 13:26:33 +0000";
layers = (
{
layerId = m002;
shapes = (
{
closed = 1;
nodes = (
(515,464,l),
(523,747,l),
(477,747,l),
(486,464,l)
);
}
);
width = 1000;
},
{
layerId = m01;
shapes = (
{
closed = 1;
nodes = (
(530,464,l),
(552,747,l),
(448,747,l),
(470,464,l)
);
}
);
width = 1000;
},
{
layerId = m003;
shapes = (
{
closed = 1;
nodes = (
(574,464,l),
(596,747,l),
(404,747,l),
(426,464,l)
);
}
);
width = 1000;
}
);
unicode = 65287;
},
{
glyphname = slash.full;
lastChange = "2022-10-28 17:01:47 +0000";
layers = (
{
layerId = m002;
shapes = (
{
closed = 1;
nodes = (
(138,-86,l),
(915,846,l),
(862,846,l),
(85,-86,l)
);
}
);
width = 1000;
},
{
layerId = m01;
shapes = (
{
closed = 1;
nodes = (
(187,-86,l),
(915,846,l),
(813,846,l),
(85,-86,l)
);
}
);
width = 1000;
},
{
layerId = m003;
shapes = (
{
closed = 1;
nodes = (
(267,-86,l),
(915,846,l),
(733,846,l),
(85,-86,l)
);
}
);
width = 1000;
}
);
unicode = 65295;
},
{
glyphname = underscore.full;
lastChange = "2022-10-29 12:04:06 +0000";
layers = (
{
layerId = m002;
shapes = (
{
closed = 1;
nodes = (
(1001,-45,l),
(-1,-45,l),
(-1,-85,l),
(1001,-85,l)
);
}
);
width = 1000;
},
{
layerId = m01;
shapes = (
{
closed = 1;
nodes = (
(1001,-40,l),
(-1,-40,l),
(-1,-120,l),
(1001,-120,l)
);
}
);
width = 1000;
},
{
layerId = m003;
shapes = (
{
closed = 1;
nodes = (
(1001,30,l),
(-1,30,l),
(-1,-120,l),
(1001,-120,l)
);
}
);
width = 1000;
}
);
unicode = 65343;
},
{
color = 4;
glyphname = comma.full.ss02;
kernLeft = PeriodComma;
kernRight = PeriodComma;
lastChange = "2023-04-08 08:02:54 +0000";
layers = (
{
layerId = m002;
shapes = (
{
closed = 1;
nodes = (
(261,-40,o),
(290,5,o),
(290,77,cs),
(290,114,o),
(278,130,o),
(250,130,cs),
(222,130,o),
(213,114,o),
(213,88,cs),
(213,62,o),
(221,46,o),
(255,46,c),
(255,10,o),
(231,-26,o),
(202,-33,c),
(202,-60,l)
);
}
);
width = 1000;
},
{
background = {
shapes = (
{
closed = 1;
nodes = (
(270,-123,o),
(324,-24,o),
(324,89,cs),
(324,143,o),
(288,163,o),
(251,163,cs),
(214,163,o),
(184,143,o),
(184,89,cs),
(184,36,o),
(214,14,o),
(251,14,cs),
(253,14,o),
(256,14,o),
(259,14,c),
(248,-35,o),
(220,-72,o),
(173,-88,c),
(173,-140,l)
);
}
);
};
layerId = m01;
shapes = (
{
closed = 1;
nodes = (
(269,-120,o),
(324,-40,o),
(324,78,cs),
(324,142,o),
(287,163,o),
(250,163,cs),
(213,163,o),
(182,142,o),
(182,89,cs),
(182,46,o),
(209,21,o),
(255,21,c),
(255,-24,o),
(218,-75,o),
(175,-88,c),
(175,-137,l)
);
}
);
width = 1000;
},
{
layerId = m003;
shapes = (
{
closed = 1;
nodes = (
(279,-135,o),
(370,-39,o),
(370,109,cs),
(370,211,o),
(310,238,o),
(250,238,cs),
(190,238,o),
(138,211,o),
(138,135,cs),
(138,75,o),
(174,39,o),
(236,38,c),
(236,-10,o),
(185,-56,o),
(125,-62,c),
(125,-146,l)
);
}
);
width = 1000;
}
);
},
{
color = 1;
glyphname = question.full.uv002;
kernBottom = ColonExclamQuestionVert;
kernLeft = Centered;
kernRight = Centered;
kernTop = ColonExclamQuestionVert;
lastChange = "2022-11-17 02:47:00 +0000";
layers = (
{
layerId = m002;
shapes = (
{
closed = 1;
nodes = (
(467,190,l),
(467,206,ls),
(467,298,o),
(489,335,o),
(550,380,cs),
(634,442,o),
(691,494,o),
(691,602,cs),
(691,726,o),
(610,790,o),
(484,790,cs),
(419,790,o),
(371,778,o),
(309,750,c),
(324,712,l),
(377,737,o),
(425,750,o),
(482,750,cs),
(581,750,o),
(649,703,o),
(649,602,cs),
(649,508,o),
(603,466,o),
(523,407,cs),
(448,352,o),
(430,311,o),
(430,208,cs),
(430,190,l)
);
},
{
pos = (202,0);
ref = period.full;
}
);
width = 1000;
},
{
layerId = m01;
shapes = (
{
closed = 1;
nodes = (
(500,217,l),
(500,235,ls),
(500,298,o),
(514,327,o),
(588,389,cs),
(667,455,o),
(718,500,o),
(718,599,cs),
(718,718,o),
(639,792,o),
(499,792,cs),
(411,792,o),
(341,769,o),
(282,738,c),
(316,661,l),
(367,685,o),
(420,707,o),
(492,707,cs),
(578,707,o),
(625,668,o),
(625,597,cs),
(625,531,o),
(600,505,o),
(515,433,cs),
(444,373,o),
(423,329,o),
(423,246,cs),
(423,217,l)
);
},
{
pos = (216,0);
ref = period.full;
}
);
width = 1000;
},
{
layerId = m003;
shapes = (
{
closed = 1;
nodes = (
(555,271,l),
(555,299,ls),
(555,333,o),
(575,350,o),
(640,392,cs),
(731,452,o),
(768,511,o),
(768,596,cs),
(768,714,o),
(674,792,o),
(511,792,cs),
(404,792,o),
(312,763,o),
(232,717,c),
(307,569,l),
(378,607,o),
(442,626,o),
(496,626,cs),
(540,626,o),
(570,608,o),
(570,578,cs),
(570,548,o),
(561,524,o),
(488,478,cs),
(411,430,o),
(390,383,o),
(390,317,cs),
(390,271,l)
);
},
{
pos = (223,0);
ref = period.full;
}
);
width = 1000;
}
);
},
{
glyphname = hyphen;
lastChange = "2022-10-25 18:44:31 +0000";
layers = (
{
layerId = m01;
shapes = (
{
closed = 1;
nodes = (
(375,420,l),
(125,420,l),
(125,340,l),
(375,340,l)
);
}
);
width = 500;
},
{
layerId = m002;
shapes = (
{
closed = 1;
nodes = (
(375,400,l),
(125,400,l),
(125,360,l),
(375,360,l)
);
}
);
width = 500;
},
{
layerId = m003;
shapes = (
{
closed = 1;
nodes = (
(390,455,l),
(110,455,l),
(110,305,l),
(390,305,l)
);
}
);
width = 500;
}
);
unicode = 45;
},
{
glyphname = endash;
lastChange = "2022-10-26 14:39:48 +0000";
layers = (
{
layerId = m01;
shapes = (
{
closed = 1;
nodes = (
(445,420,l),
(55,420,l),
(55,340,l),
(445,340,l)
);
}
);
width = 500;
},
{
layerId = m002;
shapes = (
{
closed = 1;
nodes = (
(445,400,l),
(55,400,l),
(55,360,l),
(445,360,l)
);
}
);
width = 500;
},
{
layerId = m003;
shapes = (
{
closed = 1;
nodes = (
(460,455,l),
(40,455,l),
(40,305,l),
(460,305,l)
);
}
);
width = 500;
}
);
unicode = 8211;
},
{
glyphname = emdash;
lastChange = "2022-10-26 16:50:42 +0000";
layers = (
{
layerId = m01;
shapes = (
{
closed = 1;
nodes = (
(935,420,l),
(65,420,l),
(65,340,l),
(935,340,l)
);
}
);
width = 1000;
},
{
layerId = m002;
shapes = (
{
closed = 1;
nodes = (
(935,400,l),
(65,400,l),
(65,360,l),
(935,360,l)
);
}
);
width = 1000;
},
{
layerId = m003;
shapes = (
{
closed = 1;
nodes = (
(950,455,l),
(50,455,l),
(50,305,l),
(950,305,l)
);
}
);
width = 1000;
}
);
unicode = 8212;
},
{
glyphname = threeemdash;
lastChange = "2022-10-27 03:48:48 +0000";
layers = (
{
layerId = m01;
shapes = (
{
closed = 1;
nodes = (
(2900,420,l),
(100,420,l),
(100,340,l),
(2900,340,l)
);
}
);
width = 3000;
},
{
layerId = m002;
shapes = (
{
closed = 1;
nodes = (
(2900,400,l),
(100,400,l),
(100,360,l),
(2900,360,l)
);
}
);
width = 3000;
},
{
layerId = m003;
shapes = (
{
closed = 1;
nodes = (
(2930,455,l),
(70,455,l),
(70,305,l),
(2930,305,l)
);
}
);
width = 3000;
}
);
unicode = 11835;
},
{
glyphname = twoemdash;
lastChange = "2022-10-27 03:36:36 +0000";
layers = (
{
layerId = m01;
shapes = (
{
closed = 1;
nodes = (
(1900,420,l),
(100,420,l),
(100,340,l),
(1900,340,l)
);
}
);
width = 2000;
},
{
layerId = m002;
shapes = (
{
closed = 1;
nodes = (
(1900,400,l),
(100,400,l),
(100,360,l),
(1900,360,l)
);
}
);
width = 2000;
},
{
layerId = m003;
shapes = (
{
closed = 1;
nodes = (
(1930,455,l),
(70,455,l),
(70,305,l),
(1930,305,l)
);
}
);
width = 2000;
}
);
unicode = 11834;
},
{
glyphname = hyphen.full;
lastChange = "2022-10-28 15:18:24 +0000";
layers = (
{
layerId = m002;
shapes = (
{
closed = 1;
nodes = (
(835,400,l),
(165,400,l),
(165,360,l),
(835,360,l)
);
}
);
width = 1000;
},
{
layerId = m01;
shapes = (
{
closed = 1;
nodes = (
(835,420,l),
(165,420,l),
(165,340,l),
(835,340,l)
);
}
);
width = 1000;
},
{
layerId = m003;
shapes = (
{
closed = 1;
nodes = (
(850,455,l),
(150,455,l),
(150,305,l),
(850,305,l)
);
}
);
width = 1000;
}
);
unicode = 65293;
},
{
glyphname = whiteparenleft.full;
kernLeft = OpeningBracket;
kernRight = OpeningBracket;
lastChange = "2022-11-17 01:45:30 +0000";
layers = (
{
layerId = m002;
shapes = (
{
closed = 1;
nodes = (
(759,195,o),
(811,35,o),
(904,-86,c),
(950,-86,l),
(849,42,o),
(801,205,o),
(801,380,cs),
(801,555,o),
(849,718,o),
(950,846,c),
(904,846,l),
(811,725,o),
(759,565,o),
(759,380,cs)
);
},
{
closed = 1;
nodes = (
(616,195,o),
(668,35,o),
(761,-86,c),
(807,-86,l),
(706,42,o),
(658,205,o),
(658,380,cs),
(658,555,o),
(706,718,o),
(807,846,c),
(761,846,l),
(668,725,o),
(616,565,o),
(616,380,cs)
);
}
);
width = 1000;
},
{
layerId = m01;
shapes = (
{
closed = 1;
nodes = (
(735,207,o),
(782,45,o),
(882,-86,c),
(970,-86,l),
(877,49,o),
(830,212,o),
(830,380,cs),
(830,548,o),
(877,711,o),
(970,846,c),
(882,846,l),
(782,715,o),
(735,553,o),
(735,380,cs)
);
},
{
closed = 1;
nodes = (
(567,207,o),
(614,45,o),
(714,-86,c),
(802,-86,l),
(709,49,o),
(662,212,o),
(662,380,cs),
(662,548,o),
(709,711,o),
(802,846,c),
(714,846,l),
(614,715,o),
(567,553,o),
(567,380,cs)
);
}
);
width = 1000;
},
{
layerId = m003;
shapes = (
{
closed = 1;
nodes = (
(710,211,o),
(743,39,o),
(834,-86,c),
(978,-86,l),
(898,46,o),
(862,216,o),
(862,380,cs),
(862,544,o),
(898,714,o),
(978,846,c),
(834,846,l),
(743,721,o),
(710,549,o),
(710,380,cs)
);
},
{
closed = 1;
nodes = (
(512,211,o),
(545,39,o),
(636,-86,c),
(780,-86,l),
(700,46,o),
(664,216,o),
(664,380,cs),
(664,544,o),
(700,714,o),
(780,846,c),
(636,846,l),
(545,721,o),
(512,549,o),
(512,380,cs)
);
}
);
width = 1000;
}
);
unicode = 65375;
},
{
glyphname = anglebracketleft;
kernLeft = OpeningBracket;
kernRight = OpeningBracket;
lastChange = "2022-11-17 01:45:30 +0000";
layers = (
{
layerId = m002;
shapes = (
{
closed = 1;
nodes = (
(894,846,l),
(660,380,l),
(894,-86,l),
(940,-86,l),
(706,380,l),
(940,846,l)
);
}
);
width = 1000;
},
{
layerId = m01;
shapes = (
{
closed = 1;
nodes = (
(848,846,l),
(614,380,l),
(848,-86,l),
(940,-86,l),
(706,380,l),
(940,846,l)
);
}
);
width = 1000;
},
{
layerId = m003;
shapes = (
{
closed = 1;
nodes = (
(773,846,l),
(539,380,l),
(773,-86,l),
(940,-86,l),
(706,380,l),
(940,846,l)
);
}
);
width = 1000;
}
);
unicode = 12296;
},
{
glyphname = blacklenticularbracketleft;
kernLeft = OpeningBracket;
kernRight = OpeningBracket;
lastChange = "2022-11-17 01:59:00 +0000";
layers = (
{
layerId = m002;
shapes = (
{
attr = {
strokePos = "1";
};
closed = 1;
nodes = (
(965,-86,l),
(965,-66,l),
(841,6,o),
(768,172,o),
(768,380,cs),
(768,588,o),
(841,754,o),
(965,826,c),
(965,846,l),
(660,846,l),
(660,-86,l)
);
}
);
width = 1000;
},
{
layerId = m01;
shapes = (
{
attr = {
strokePos = "1";
};
closed = 1;
nodes = (
(965,-86,l),
(965,-66,l),
(824,15,o),
(740,181,o),
(740,380,cs),
(740,579,o),
(824,745,o),
(965,826,c),
(965,846,l),
(599,846,l),
(599,-86,l)
);
}
);
width = 1000;
},
{
layerId = m003;
shapes = (
{
attr = {
strokePos = "1";
};
closed = 1;
nodes = (
(965,-86,l),
(965,-66,l),
(811,22,o),
(720,187,o),
(720,380,cs),
(720,573,o),
(811,738,o),
(965,826,c),
(965,846,l),
(555,846,l),
(555,-86,l)
);
}
);
width = 1000;
}
);
unicode = 12304;
},
{
glyphname = braceleft.full;
kernLeft = OpeningBracket;
kernRight = OpeningBracket;
lastChange = "2022-11-17 01:45:30 +0000";
layers = (
{
layerId = m002;
shapes = (
{
closed = 1;
nodes = (
(965,-48,l),
(869,-48,o),
(824,-14,o),
(824,69,cs),
(824,245,ls),
(824,318,o),
(799,367,o),
(733,379,c),
(733,381,l),
(799,393,o),
(824,442,o),
(824,515,cs),
(824,691,ls),
(824,774,o),
(869,808,o),
(965,808,c),
(965,846,l),
(845,846,o),
(782,793,o),
(782,696,cs),
(782,519,ls),
(782,431,o),
(747,398,o),
(662,398,c),
(662,362,l),
(747,362,o),
(782,329,o),
(782,241,cs),
(782,64,ls),
(782,-33,o),
(845,-86,o),
(965,-86,c)
);
}
);
width = 1000;
},
{
layerId = m01;
shapes = (
{
closed = 1;
nodes = (
(965,-9,l),
(889,-8,o),
(846,21,o),
(846,90,cs),
(846,246,ls),
(846,319,o),
(809,363,o),
(730,377,c),
(730,383,l),
(809,397,o),
(846,441,o),
(846,514,cs),
(846,670,ls),
(846,739,o),
(889,768,o),
(965,769,c),
(965,846,l),
(834,846,o),
(753,790,o),
(753,676,cs),
(753,519,ls),
(753,446,o),
(707,419,o),
(623,419,c),
(623,341,l),
(707,341,o),
(753,314,o),
(753,241,cs),
(753,84,ls),
(753,-30,o),
(834,-86,o),
(965,-86,c)
);
}
);
width = 1000;
},
{
layerId = m003;
shapes = (
{
closed = 1;
nodes = (
(975,56,l),
(935,57,o),
(880,58,o),
(880,110,cs),
(880,250,ls),
(880,335,o),
(839,364,o),
(761,377,c),
(761,383,l),
(839,396,o),
(880,425,o),
(880,510,cs),
(880,650,ls),
(880,702,o),
(935,703,o),
(975,704,c),
(975,846,l),
(763,846,o),
(720,794,o),
(720,671,cs),
(720,543,ls),
(720,479,o),
(660,456,o),
(597,456,c),
(597,304,l),
(660,304,o),
(720,281,o),
(720,217,cs),
(720,89,ls),
(720,-34,o),
(763,-86,o),
(975,-86,c)
);
}
);
width = 1000;
}
);
unicode = 65371;
},
{
glyphname = cornerbracketleft;
kernLeft = OpeningBracket;
kernRight = OpeningBracket;
lastChange = "2022-11-17 01:45:30 +0000";
layers = (
{
layerId = m002;
shapes = (
{
closed = 1;
nodes = (
(660,186,l),
(702,186,l),
(702,803,l),
(965,803,l),
(965,840,l),
(660,840,l)
);
}
);
width = 1000;
},
{
layerId = m01;
shapes = (
{
closed = 1;
nodes = (
(650,196,l),
(742,196,l),
(742,769,l),
(965,769,l),
(965,846,l),
(650,846,l)
);
}
);
width = 1000;
},
{
layerId = m003;
shapes = (
{
closed = 1;
nodes = (
(635,212,l),
(795,212,l),
(795,727,l),
(975,727,l),
(975,855,l),
(635,855,l)
);
}
);
width = 1000;
}
);
unicode = 12300;
},
{
glyphname = dblanglebracketleft;
kernLeft = OpeningBracket;
kernRight = OpeningBracket;
lastChange = "2022-11-17 01:45:30 +0000";
layers = (
{
layerId = m002;
shapes = (
{
closed = 1;
nodes = (
(908,846,l),
(674,380,l),
(908,-86,l),
(950,-86,l),
(716,380,l),
(950,846,l)
);
},
{
closed = 1;
nodes = (
(765,846,l),
(531,380,l),
(765,-86,l),
(807,-86,l),
(573,380,l),
(807,846,l)
);
}
);
width = 1000;
},
{
layerId = m01;
shapes = (
{
closed = 1;
nodes = (
(890,846,l),
(656,380,l),
(890,-86,l),
(970,-86,l),
(736,380,l),
(970,846,l)
);
},
{
closed = 1;
nodes = (
(737,846,l),
(503,380,l),
(737,-86,l),
(817,-86,l),
(583,380,l),
(817,846,l)
);
}
);
width = 1000;
},
{
layerId = m003;
shapes = (
{
closed = 1;
nodes = (
(874,846,l),
(653,380,l),
(874,-86,l),
(978,-86,l),
(757,380,l),
(978,846,l)
);
},
{
closed = 1;
nodes = (
(724,846,l),
(503,380,l),
(724,-86,l),
(828,-86,l),
(607,380,l),
(828,846,l)
);
}
);
width = 1000;
}
);
unicode = 12298;
},
{
glyphname = tortoiseshellbracketleft;
kernLeft = OpeningBracket;
kernRight = OpeningBracket;
lastChange = "2022-11-17 01:45:30 +0000";
layers = (
{
layerId = m002;
shapes = (
{
closed = 1;
nodes = (
(930,-91,l),
(954,-57,l),
(763,60,l),
(763,700,l),
(954,817,l),
(930,851,l),
(721,715,l),
(721,45,l)
);
}
);
width = 1000;
},
{
layerId = m01;
shapes = (
{
closed = 1;
nodes = (
(918,-98,l),
(966,-28,l),
(773,95,l),
(773,665,l),
(966,788,l),
(918,858,l),
(681,704,l),
(681,56,l)
);
}
);
width = 1000;
},
{
layerId = m003;
shapes = (
{
closed = 1;
nodes = (
(903,-108,l),
(982,6,l),
(791,128,l),
(791,632,l),
(982,754,l),
(903,868,l),
(631,694,l),
(631,66,l)
);
}
);
width = 1000;
}
);
unicode = 12308;
},
{
glyphname = whitecornerbracketleft;
kernLeft = OpeningBracket;
kernRight = OpeningBracket;
lastChange = "2022-11-17 01:45:30 +0000";
layers = (
{
layerId = m002;
shapes = (
{
attr = {
strokePos = 1;
strokeWidth = 30;
};
closed = 1;
nodes = (
(598,186,l),
(748,186,l),
(748,706,l),
(960,706,l),
(960,840,l),
(598,840,l)
);
}
);
width = 1000;
},
{
layerId = m01;
shapes = (
{
attr = {
strokePos = 1;
strokeWidth = 45;
};
closed = 1;
nodes = (
(599,196,l),
(770,196,l),
(770,690,l),
(966,690,l),
(966,846,l),
(599,846,l)
);
}
);
width = 1000;
},
{
layerId = m003;
shapes = (
{
attr = {
strokePos = 1;
strokeWidth = 65;
};
closed = 1;
nodes = (
(595,212,l),
(805,212,l),
(805,665,l),
(975,665,l),
(975,855,l),
(595,855,l)
);
}
);
width = 1000;
}
);
unicode = 12302;
},
{
glyphname = whitelenticularbracketleft;
kernLeft = OpeningBracket;
kernRight = OpeningBracket;
lastChange = "2022-11-17 01:45:30 +0000";
layers = (
{
layerId = m002;
shapes = (
{
attr = {
strokePos = 1;
strokeWidth = 30;
};
closed = 1;
nodes = (
(965,-86,l),
(965,-66,l),
(841,6,o),
(768,172,o),
(768,380,cs),
(768,588,o),
(841,754,o),
(965,826,c),
(965,846,l),
(660,846,l),
(660,-86,l)
);
}
);
width = 1000;
},
{
layerId = m01;
shapes = (
{
attr = {
strokePos = "1";
strokeWidth = 45;
};
closed = 1;
nodes = (
(965,-86,l),
(965,-56,l),
(824,25,o),
(740,187,o),
(740,380,cs),
(740,573,o),
(824,735,o),
(965,816,c),
(965,846,l),
(599,846,l),
(599,-86,l)
);
}
);
width = 1000;
},
{
layerId = m003;
shapes = (
{
attr = {
strokePos = 1;
strokeWidth = 65;
};
closed = 1;
nodes = (
(965,-86,l),
(965,-46,l),
(811,42,o),
(720,200,o),
(720,380,cs),
(720,560,o),
(811,718,o),
(965,806,c),
(965,846,l),
(545,846,l),
(545,-86,l)
);
}
);
width = 1000;
}
);
unicode = 12310;
},
{
glyphname = whitesquarebracketleft;
kernLeft = OpeningBracket;
kernRight = OpeningBracket;
lastChange = "2022-11-17 01:45:30 +0000";
layers = (
{
layerId = m002;
shapes = (
{
closed = 1;
nodes = (
(965,-86,l),
(965,-56,l),
(661,-56,l),
(661,816,l),
(965,816,l),
(965,846,l),
(631,846,l),
(631,-86,l)
);
},
{
closed = 1;
nodes = (
(751,-71,l),
(781,-71,l),
(781,831,l),
(751,831,l)
);
}
);
width = 1000;
},
{
layerId = m01;
shapes = (
{
closed = 1;
nodes = (
(965,-86,l),
(965,-41,l),
(661,-41,l),
(661,801,l),
(965,801,l),
(965,846,l),
(616,846,l),
(616,-86,l)
);
},
{
closed = 1;
nodes = (
(741,-71,l),
(786,-71,l),
(786,831,l),
(741,831,l)
);
}
);
width = 1000;
},
{
layerId = m003;
shapes = (
{
closed = 1;
nodes = (
(975,-86,l),
(975,-21,l),
(645,-21,l),
(645,781,l),
(975,781,l),
(975,846,l),
(580,846,l),
(580,-86,l)
);
},
{
closed = 1;
nodes = (
(725,-71,l),
(790,-71,l),
(790,831,l),
(725,831,l)
);
}
);
width = 1000;
}
);
unicode = 12314;
},
{
glyphname = whitetortoiseshellbracketleft;
kernLeft = OpeningBracket;
kernRight = OpeningBracket;
lastChange = "2022-11-17 01:45:30 +0000";
layers = (
{
layerId = m002;
shapes = (
{
attr = {
strokePos = 1;
strokeWidth = 30;
};
closed = 1;
nodes = (
(903,-108,l),
(982,6,l),
(791,128,l),
(791,632,l),
(982,754,l),
(903,868,l),
(641,700,l),
(641,60,l)
);
}
);
width = 1000;
},
{
layerId = m01;
shapes = (
{
attr = {
strokePos = 1;
strokeWidth = 45;
};
closed = 1;
nodes = (
(897,-107,l),
(987,31,l),
(797,153,l),
(797,607,l),
(987,729,l),
(897,867,l),
(627,700,l),
(627,60,l)
);
}
);
width = 1000;
},
{
layerId = m003;
shapes = (
{
attr = {
strokePos = 1;
strokeWidth = 65;
};
closed = 1;
nodes = (
(871,-107,l),
(980,61,l),
(814,167,l),
(814,593,l),
(980,699,l),
(871,867,l),
(604,702,l),
(604,58,l)
);
}
);
width = 1000;
}
);
unicode = 12312;
},
{
glyphname = bracketleft.full;
kernLeft = OpeningBracket;
kernRight = OpeningBracket;
lastChange = "2022-11-17 01:45:30 +0000";
layers = (
{
layerId = m002;
shapes = (
{
closed = 1;
nodes = (
(965,-86,l),
(965,-49,l),
(781,-49,l),
(781,809,l),
(965,809,l),
(965,846,l),
(739,846,l),
(739,-86,l)
);
}
);
width = 1000;
},
{
layerId = m01;
shapes = (
{
closed = 1;
nodes = (
(965,-86,l),
(965,-9,l),
(786,-9,l),
(786,769,l),
(965,769,l),
(965,846,l),
(694,846,l),
(694,-86,l)
);
}
);
width = 1000;
},
{
layerId = m003;
shapes = (
{
closed = 1;
nodes = (
(975,-86,l),
(975,42,l),
(790,42,l),
(790,718,l),
(975,718,l),
(975,846,l),
(630,846,l),
(630,-86,l)
);
}
);
width = 1000;
}
);
unicode = 65339;
},
{
glyphname = parenleft.full;
kernLeft = OpeningBracket;
kernRight = OpeningBracket;
lastChange = "2022-11-17 01:45:30 +0000";
layers = (
{
layerId = m002;
shapes = (
{
closed = 1;
nodes = (
(739,192,o),
(795,35,o),
(894,-86,c),
(940,-86,l),
(834,42,o),
(781,202,o),
(781,380,cs),
(781,558,o),
(832,719,o),
(940,846,c),
(894,846,l),
(795,725,o),
(739,568,o),
(739,380,cs)
);
}
);
width = 1000;
},
{
layerId = m01;
shapes = (
{
closed = 1;
nodes = (
(694,204,o),
(743,43,o),
(851,-86,c),
(940,-86,l),
(841,48,o),
(789,211,o),
(789,380,cs),
(789,549,o),
(841,712,o),
(940,846,c),
(851,846,l),
(743,717,o),
(694,556,o),
(694,380,cs)
);
}
);
width = 1000;
},
{
layerId = m003;
shapes = (
{
closed = 1;
nodes = (
(630,208,o),
(668,40,o),
(773,-86,c),
(940,-86,l),
(846,45,o),
(806,215,o),
(806,380,cs),
(806,545,o),
(846,715,o),
(940,846,c),
(773,846,l),
(668,720,o),
(630,552,o),
(630,380,cs)
);
}
);
width = 1000;
}
);
unicode = 65288;
},
{
glyphname = quoteleft;
kernLeft = OpeningBracket;
kernRight = OpeningBracket;
lastChange = "2022-11-17 01:45:30 +0000";
layers = (
{
layerId = m002;
shapes = (
{
closed = 1;
nodes = (
(893,561,l),
(902,639,o),
(928,752,o),
(960,830,c),
(930,830,l),
(895,754,o),
(862,659,o),
(848,571,c),
(855,561,l)
);
}
);
width = 1000;
},
{
layerId = m01;
shapes = (
{
closed = 1;
nodes = (
(911,561,l),
(922,637,o),
(945,747,o),
(966,830,c),
(894,830,l),
(859,752,o),
(819,650,o),
(799,573,c),
(806,561,l)
);
}
);
width = 1000;
},
{
layerId = m003;
shapes = (
{
closed = 1;
nodes = (
(932,546,l),
(941,626,o),
(961,740,o),
(980,831,c),
(844,831,l),
(811,757,o),
(776,629,o),
(758,557,c),
(765,546,l)
);
}
);
width = 1000;
}
);
unicode = 8216;
},
{
glyphname = lowquotedoubleprime;
kernLeft = ClosingBracket;
kernRight = ClosingBracket;
lastChange = "2022-11-17 01:45:54 +0000";
layers = (
{
layerId = m002;
shapes = (
{
closed = 1;
nodes = (
(290,-80,l),
(316,-35,l),
(68,105,l),
(54,78,l)
);
},
{
closed = 1;
nodes = (
(290,94,l),
(316,139,l),
(68,279,l),
(54,252,l)
);
}
);
width = 1000;
},
{
layerId = m01;
shapes = (
{
closed = 1;
nodes = (
(285,-89,l),
(325,-14,l),
(75,123,l),
(52,75,l)
);
},
{
closed = 1;
nodes = (
(285,99,l),
(325,174,l),
(75,310,l),
(52,263,l)
);
}
);
width = 1000;
},
{
layerId = m003;
shapes = (
{
closed = 1;
nodes = (
(277,-102,l),
(340,20,l),
(86,150,l),
(49,71,l)
);
},
{
closed = 1;
nodes = (
(277,107,l),
(340,229,l),
(86,359,l),
(49,280,l)
);
}
);
width = 1000;
}
);
unicode = 12319;
},
{
glyphname = quotedoubleprime;
kernLeft = ClosingBracket;
kernRight = ClosingBracket;
lastChange = "2022-11-17 01:45:54 +0000";
layers = (
{
layerId = m002;
shapes = (
{
closed = 1;
nodes = (
(316,621,l),
(290,666,l),
(54,508,l),
(68,481,l)
);
},
{
closed = 1;
nodes = (
(316,795,l),
(290,840,l),
(54,682,l),
(68,655,l)
);
}
);
width = 1000;
},
{
layerId = m01;
shapes = (
{
closed = 1;
nodes = (
(325,586,l),
(285,661,l),
(52,497,l),
(75,450,l)
);
},
{
closed = 1;
nodes = (
(325,774,l),
(285,849,l),
(52,685,l),
(75,637,l)
);
}
);
width = 1000;
},
{
layerId = m003;
shapes = (
{
closed = 1;
nodes = (
(340,531,l),
(277,653,l),
(49,480,l),
(86,401,l)
);
},
{
closed = 1;
nodes = (
(340,740,l),
(277,862,l),
(49,689,l),
(86,610,l)
);
}
);
width = 1000;
}
);
unicode = 12318;
},
{
glyphname = quotedoubleprimeReversed;
kernLeft = OpeningBracket;
kernRight = OpeningBracket;
lastChange = "2022-11-17 01:45:30 +0000";
layers = (
{
layerId = m002;
shapes = (
{
closed = 1;
nodes = (
(710,840,l),
(684,795,l),
(932,655,l),
(946,682,l)
);
},
{
closed = 1;
nodes = (
(710,666,l),
(684,621,l),
(932,481,l),
(946,508,l)
);
}
);
width = 1000;
},
{
layerId = m01;
shapes = (
{
closed = 1;
nodes = (
(715,849,l),
(675,774,l),
(925,637,l),
(948,685,l)
);
},
{
closed = 1;
nodes = (
(715,661,l),
(675,586,l),
(925,450,l),
(948,497,l)
);
}
);
width = 1000;
},
{
layerId = m003;
shapes = (
{
closed = 1;
nodes = (
(723,862,l),
(660,740,l),
(914,610,l),
(951,689,l)
);
},
{
closed = 1;
nodes = (
(723,653,l),
(660,531,l),
(914,401,l),
(951,480,l)
);
}
);
width = 1000;
}
);
unicode = 12317;
},
{
color = 4;
glyphname = quoteleft.ss02;
kernLeft = OpeningBracket;
kernRight = OpeningBracket;
lastChange = "2023-04-08 08:02:54 +0000";
layers = (
{
layerId = m002;
shapes = (
{
closed = 1;
nodes = (
(901,810,o),
(872,765,o),
(872,693,cs),
(872,656,o),
(884,640,o),
(912,640,cs),
(940,640,o),
(949,656,o),
(949,682,cs),
(949,708,o),
(941,724,o),
(907,724,c),
(907,760,o),
(931,796,o),
(960,803,c),
(960,830,l)
);
}
);
width = 1000;
},
{
layerId = m01;
shapes = (
{
closed = 1;
nodes = (
(872,820,o),
(817,757,o),
(817,659,cs),
(817,595,o),
(854,574,o),
(891,574,cs),
(928,574,o),
(959,595,o),
(959,648,cs),
(959,691,o),
(932,716,o),
(886,716,c),
(886,749,o),
(923,779,o),
(966,781,c),
(966,830,l)
);
}
);
width = 1000;
},
{
layerId = m003;
shapes = (
{
closed = 1;
nodes = (
(834,827,o),
(760,754,o),
(760,622,cs),
(760,530,o),
(814,506,o),
(868,506,cs),
(922,506,o),
(968,530,o),
(968,598,cs),
(968,652,o),
(936,685,o),
(880,686,c),
(880,724,o),
(923,752,o),
(980,756,c),
(980,831,l)
);
}
);
width = 1000;
}
);
},
{
color = 3;
glyphname = quoteleft.vert;
kernBottom = OpeningBracketVert;
kernTop = OpeningBracketVert;
lastChange = "2022-11-17 02:31:00 +0000";
layers = (
{
layerId = m002;
shapes = (
{
closed = 1;
nodes = (
(960,170,l),
(915,196,l),
(775,-52,l),
(802,-66,l)
);
}
);
width = 1000;
},
{
layerId = m01;
shapes = (
{
closed = 1;
nodes = (
(969,165,l),
(894,205,l),
(757,-45,l),
(805,-68,l)
);
}
);
width = 1000;
},
{
layerId = m003;
shapes = (
{
closed = 1;
nodes = (
(982,157,l),
(860,220,l),
(730,-34,l),
(809,-71,l)
);
}
);
width = 1000;
}
);
},
{
glyphname = asciicircum.full;
lastChange = "2022-10-29 11:48:33 +0000";
layers = (
{
layerId = m002;
shapes = (
{
closed = 1;
nodes = (
(278,266,l),
(499,703,l),
(722,266,l),
(765,266,l),
(515,753,l),
(485,753,l),
(235,266,l)
);
}
);
width = 1000;
},
{
layerId = m01;
shapes = (
{
closed = 1;
nodes = (
(313,256,l),
(501,651,l),
(687,256,l),
(773,256,l),
(528,753,l),
(473,753,l),
(227,256,l)
);
}
);
width = 1000;
},
{
layerId = m003;
shapes = (
{
closed = 1;
nodes = (
(357,232,l),
(505,542,l),
(643,232,l),
(801,232,l),
(546,751,l),
(454,751,l),
(199,232,l)
);
}
);
width = 1000;
}
);
unicode = 65342;
},
{
glyphname = grave.full;
lastChange = "2022-10-29 12:09:26 +0000";
layers = (
{
layerId = m002;
shapes = (
{
closed = 1;
nodes = (
(403,805,l),
(403,796,l),
(440,749,o),
(508,675,o),
(565,629,c),
(597,629,l),
(597,636,l),
(550,680,o),
(484,757,o),
(453,805,c)
);
}
);
width = 1000;
},
{
layerId = m01;
shapes = (
{
closed = 1;
nodes = (
(389,805,l),
(389,794,l),
(415,753,o),
(495,668,o),
(546,629,c),
(611,629,l),
(611,642,l),
(576,683,o),
(529,755,o),
(505,805,c)
);
}
);
width = 1000;
},
{
layerId = m003;
shapes = (
{
closed = 1;
nodes = (
(314,805,l),
(314,794,l),
(367,752,o),
(487,666,o),
(546,629,c),
(686,629,l),
(686,644,l),
(650,685,o),
(583,755,o),
(545,805,c)
);
}
);
width = 1000;
}
);
unicode = 65344;
},
{
glyphname = u1F16D;
lastChange = "2022-11-03 02:23:26 +0000";
layers = (
{
layerId = m002;
shapes = (
{
closed = 1;
nodes = (
(728,-55,o),
(912,129,o),
(912,357,cs),
(912,585,o),
(728,769,o),
(500,769,cs),
(272,769,o),
(88,585,o),
(88,357,cs),
(88,129,o),
(272,-55,o),
(500,-55,cs)
);
},
{
closed = 1;
nodes = (
(291,-22,o),
(121,148,o),
(121,357,cs),
(121,566,o),
(291,736,o),
(500,736,cs),
(709,736,o),
(879,566,o),
(879,357,cs),
(879,148,o),
(709,-22,o),
(500,-22,cs)
);
},
{
closed = 1;
nodes = (
(415,181,o),
(444,185,o),
(463,191,c),
(463,224,l),
(439,216,o),
(411,213,o),
(385,213,cs),
(289,213,o),
(242,262,o),
(242,358,cs),
(242,457,o),
(294,510,o),
(378,510,cs),
(408,510,o),
(436,503,o),
(460,492,c),
(476,522,l),
(451,534,o),
(416,542,o),
(379,542,cs),
(276,542,o),
(204,479,o),
(204,359,cs),
(204,248,o),
(263,181,o),
(384,181,cs)
);
},
{
closed = 1;
nodes = (
(715,181,o),
(744,185,o),
(763,191,c),
(763,224,l),
(739,216,o),
(711,213,o),
(685,213,cs),
(589,213,o),
(542,262,o),
(542,358,cs),
(542,457,o),
(594,510,o),
(678,510,cs),
(708,510,o),
(736,503,o),
(760,492,c),
(776,522,l),
(751,534,o),
(716,542,o),
(679,542,cs),
(576,542,o),
(504,479,o),
(504,359,cs),
(504,248,o),
(563,181,o),
(684,181,cs)
);
}
);
width = 1000;
},
{
layerId = m01;
shapes = (
{
closed = 1;
nodes = (
(728,-55,o),
(912,129,o),
(912,357,cs),
(912,585,o),
(728,769,o),
(500,769,cs),
(272,769,o),
(88,585,o),
(88,357,cs),
(88,129,o),
(272,-55,o),
(500,-55,cs)
);
},
{
closed = 1;
nodes = (
(303,1,o),
(144,160,o),
(144,357,cs),
(144,554,o),
(303,713,o),
(500,713,cs),
(697,713,o),
(856,554,o),
(856,357,cs),
(856,160,o),
(697,1,o),
(500,1,cs)
);
},
{
closed = 1;
nodes = (
(413,181,o),
(442,186,o),
(467,194,c),
(467,250,l),
(441,240,o),
(412,235,o),
(380,235,cs),
(306,235,o),
(269,276,o),
(269,360,cs),
(269,442,o),
(308,488,o),
(376,488,cs),
(403,488,o),
(431,481,o),
(458,469,c),
(482,517,l),
(450,534,o),
(415,542,o),
(377,542,cs),
(270,542,o),
(202,471,o),
(202,361,cs),
(202,250,o),
(258,181,o),
(378,181,cs)
);
},
{
closed = 1;
nodes = (
(709,181,o),
(738,186,o),
(763,194,c),
(763,250,l),
(737,240,o),
(708,235,o),
(676,235,cs),
(602,235,o),
(565,276,o),
(565,360,cs),
(565,442,o),
(604,488,o),
(672,488,cs),
(699,488,o),
(727,481,o),
(754,469,c),
(778,517,l),
(746,534,o),
(711,542,o),
(673,542,cs),
(566,542,o),
(498,471,o),
(498,361,cs),
(498,250,o),
(554,181,o),
(674,181,cs)
);
}
);
width = 1000;
},
{
layerId = m003;
shapes = (
{
closed = 1;
nodes = (
(747,-89,o),
(946,110,o),
(946,357,cs),
(946,604,o),
(747,803,o),
(500,803,cs),
(253,803,o),
(54,604,o),
(54,357,cs),
(54,110,o),
(253,-89,o),
(500,-89,cs)
);
},
{
closed = 1;
nodes = (
(313,21,o),
(164,170,o),
(164,357,cs),
(164,544,o),
(313,693,o),
(500,693,cs),
(687,693,o),
(836,544,o),
(836,357,cs),
(836,170,o),
(687,21,o),
(500,21,cs)
);
},
{
closed = 1;
nodes = (
(424,214,o),
(449,219,o),
(474,230,c),
(474,293,l),
(450,284,o),
(428,276,o),
(403,276,cs),
(362,276,o),
(342,304,o),
(342,356,cs),
(342,408,o),
(364,438,o),
(399,438,cs),
(422,438,o),
(442,431,o),
(463,421,c),
(486,480,l),
(458,494,o),
(427,500,o),
(399,500,cs),
(313,500,o),
(265,440,o),
(265,356,cs),
(265,272,o),
(304,214,o),
(395,214,cs)
);
},
{
closed = 1;
nodes = (
(663,214,o),
(688,219,o),
(713,230,c),
(713,293,l),
(689,284,o),
(667,276,o),
(642,276,cs),
(601,276,o),
(581,304,o),
(581,356,cs),
(581,408,o),
(603,438,o),
(638,438,cs),
(661,438,o),
(681,431,o),
(702,421,c),
(725,480,l),
(697,494,o),
(666,500,o),
(638,500,cs),
(552,500,o),
(504,440,o),
(504,356,cs),
(504,272,o),
(543,214,o),
(634,214,cs)
);
}
);
width = 1000;
}
);
unicode = 127341;
},
{
glyphname = u1F16E;
lastChange = "2022-11-03 02:40:25 +0000";
layers = (
{
layerId = m002;
shapes = (
{
closed = 1;
nodes = (
(728,-55,o),
(912,129,o),
(912,357,cs),
(912,585,o),
(728,769,o),
(500,769,cs),
(272,769,o),
(88,585,o),
(88,357,cs),
(88,129,o),
(272,-55,o),
(500,-55,cs)
);
},
{
closed = 1;
nodes = (
(291,-22,o),
(121,148,o),
(121,357,cs),
(121,566,o),
(291,736,o),
(500,736,cs),
(709,736,o),
(879,566,o),
(879,357,cs),
(879,148,o),
(709,-22,o),
(500,-22,cs)
);
},
{
closed = 1;
nodes = (
(552,136,o),
(591,140,o),
(614,146,c),
(614,180,l),
(584,172,o),
(546,169,o),
(516,169,cs),
(394,169,o),
(335,232,o),
(335,356,cs),
(335,484,o),
(400,552,o),
(508,552,cs),
(545,552,o),
(585,544,o),
(615,530,c),
(629,560,l),
(599,575,o),
(556,584,o),
(511,584,cs),
(383,584,o),
(296,506,o),
(296,357,cs),
(296,219,o),
(368,136,o),
(517,136,cs)
);
},
{
closed = 1;
nodes = (
(150,539,l),
(137,508,l),
(850,175,l),
(863,206,l)
);
}
);
width = 1000;
},
{
layerId = m01;
shapes = (
{
closed = 1;
nodes = (
(728,-55,o),
(912,129,o),
(912,357,cs),
(912,585,o),
(728,769,o),
(500,769,cs),
(272,769,o),
(88,585,o),
(88,357,cs),
(88,129,o),
(272,-55,o),
(500,-55,cs)
);
},
{
closed = 1;
nodes = (
(303,1,o),
(144,160,o),
(144,357,cs),
(144,554,o),
(303,713,o),
(500,713,cs),
(697,713,o),
(856,554,o),
(856,357,cs),
(856,160,o),
(697,1,o),
(500,1,cs)
);
},
{
closed = 1;
nodes = (
(558,136,o),
(593,142,o),
(622,152,c),
(622,208,l),
(593,197,o),
(558,192,o),
(517,192,cs),
(419,192,o),
(370,248,o),
(370,359,cs),
(370,467,o),
(424,528,o),
(512,528,cs),
(549,528,o),
(583,521,o),
(614,506,c),
(639,557,l),
(603,575,o),
(561,584,o),
(513,584,cs),
(381,584,o),
(297,500,o),
(297,360,cs),
(297,221,o),
(366,136,o),
(515,136,cs)
);
},
{
closed = 1;
nodes = (
(155,549,l),
(132,498,l),
(845,165,l),
(868,216,l)
);
}
);
width = 1000;
},
{
layerId = m003;
shapes = (
{
closed = 1;
nodes = (
(747,-89,o),
(946,110,o),
(946,357,cs),
(946,604,o),
(747,803,o),
(500,803,cs),
(253,803,o),
(54,604,o),
(54,357,cs),
(54,110,o),
(253,-89,o),
(500,-89,cs)
);
},
{
closed = 1;
nodes = (
(313,21,o),
(164,170,o),
(164,357,cs),
(164,544,o),
(313,693,o),
(500,693,cs),
(687,693,o),
(836,544,o),
(836,357,cs),
(836,170,o),
(687,21,o),
(500,21,cs)
);
},
{
closed = 1;
nodes = (
(549,158,o),
(583,164,o),
(618,180,c),
(618,267,l),
(586,255,o),
(553,243,o),
(520,243,cs),
(461,243,o),
(434,282,o),
(434,355,cs),
(434,427,o),
(465,471,o),
(514,471,cs),
(547,471,o),
(575,460,o),
(603,447,c),
(635,529,l),
(596,548,o),
(552,557,o),
(514,557,cs),
(394,557,o),
(327,473,o),
(327,356,cs),
(327,238,o),
(382,158,o),
(509,158,cs)
);
},
{
closed = 1;
nodes = (
(166,573,l),
(121,474,l),
(834,141,l),
(879,240,l)
);
}
);
width = 1000;
}
);
unicode = 127342;
},
{
glyphname = u1F16F;
lastChange = "2022-11-02 16:53:38 +0000";
layers = (
{
layerId = m002;
shapes = (
{
closed = 1;
nodes = (
(728,-55,o),
(912,129,o),
(912,357,cs),
(912,585,o),
(728,769,o),
(500,769,cs),
(272,769,o),
(88,585,o),
(88,357,cs),
(88,129,o),
(272,-55,o),
(500,-55,cs)
);
},
{
closed = 1;
nodes = (
(291,-22,o),
(121,148,o),
(121,357,cs),
(121,566,o),
(291,736,o),
(500,736,cs),
(709,736,o),
(879,566,o),
(879,357,cs),
(879,148,o),
(709,-22,o),
(500,-22,cs)
);
},
{
closed = 1;
nodes = (
(563,292,l),
(563,97,l),
(437,97,l),
(437,292,l),
(391,292,l),
(391,457,ls),
(391,472,o),
(402,483,o),
(417,483,cs),
(583,483,ls),
(598,483,o),
(609,472,o),
(609,457,cs),
(609,292,l)
);
},
{
closed = 1;
nodes = (
(444,597,o),
(463,617,o),
(500,617,cs),
(537,617,o),
(556,597,o),
(556,560,cs),
(556,523,o),
(537,504,o),
(500,504,cs),
(463,504,o),
(444,523,o),
(444,560,cs)
);
}
);
width = 1000;
},
{
layerId = m01;
shapes = (
{
closed = 1;
nodes = (
(728,-55,o),
(912,129,o),
(912,357,cs),
(912,585,o),
(728,769,o),
(500,769,cs),
(272,769,o),
(88,585,o),
(88,357,cs),
(88,129,o),
(272,-55,o),
(500,-55,cs)
);
},
{
closed = 1;
nodes = (
(303,1,o),
(144,160,o),
(144,357,cs),
(144,554,o),
(303,713,o),
(500,713,cs),
(697,713,o),
(856,554,o),
(856,357,cs),
(856,160,o),
(697,1,o),
(500,1,cs)
);
},
{
closed = 1;
nodes = (
(563,292,l),
(563,97,l),
(437,97,l),
(437,292,l),
(391,292,l),
(391,457,ls),
(391,472,o),
(402,483,o),
(417,483,cs),
(583,483,ls),
(598,483,o),
(609,472,o),
(609,457,cs),
(609,292,l)
);
},
{
closed = 1;
nodes = (
(444,597,o),
(463,617,o),
(500,617,cs),
(537,617,o),
(556,597,o),
(556,560,cs),
(556,523,o),
(537,504,o),
(500,504,cs),
(463,504,o),
(444,523,o),
(444,560,cs)
);
}
);
width = 1000;
},
{
layerId = m003;
shapes = (
{
closed = 1;
nodes = (
(747,-89,o),
(946,110,o),
(946,357,cs),
(946,604,o),
(747,803,o),
(500,803,cs),
(253,803,o),
(54,604,o),
(54,357,cs),
(54,110,o),
(253,-89,o),
(500,-89,cs)
);
},
{
closed = 1;
nodes = (
(313,21,o),
(164,170,o),
(164,357,cs),
(164,544,o),
(313,693,o),
(500,693,cs),
(687,693,o),
(836,544,o),
(836,357,cs),
(836,170,o),
(687,21,o),
(500,21,cs)
);
},
{
closed = 1;
nodes = (
(563,292,l),
(563,97,l),
(437,97,l),
(437,292,l),
(391,292,l),
(391,457,ls),
(391,472,o),
(402,483,o),
(417,483,cs),
(583,483,ls),
(598,483,o),
(609,472,o),
(609,457,cs),
(609,292,l)
);
},
{
closed = 1;
nodes = (
(444,597,o),
(463,617,o),
(500,617,cs),
(537,617,o),
(556,597,o),
(556,560,cs),
(556,523,o),
(537,504,o),
(500,504,cs),
(463,504,o),
(444,523,o),
(444,560,cs)
);
}
);
width = 1000;
}
);
unicode = 127343;
},
{
glyphname = brokenbar.full;
lastChange = "2022-11-02 02:52:30 +0000";
layers = (
{
layerId = m002;
shapes = (
{
closed = 1;
nodes = (
(520,-86,l),
(520,330,l),
(480,330,l),
(480,-86,l)
);
},
{
closed = 1;
nodes = (
(520,430,l),
(520,846,l),
(480,846,l),
(480,430,l)
);
}
);
width = 1000;
},
{
layerId = m01;
shapes = (
{
closed = 1;
nodes = (
(540,-86,l),
(540,330,l),
(460,330,l),
(460,-86,l)
);
},
{
closed = 1;
nodes = (
(540,430,l),
(540,846,l),
(460,846,l),
(460,430,l)
);
}
);
width = 1000;
},
{
layerId = m003;
shapes = (
{
closed = 1;
nodes = (
(575,-86,l),
(575,330,l),
(425,330,l),
(425,-86,l)
);
},
{
closed = 1;
nodes = (
(575,430,l),
(575,846,l),
(425,846,l),
(425,430,l)
);
}
);
width = 1000;
}
);
unicode = 65508;
},
{
glyphname = cai.rounded;
lastChange = "2022-11-02 12:07:22 +0000";
layers = (
{
layerId = m002;
shapes = (
{
closed = 1;
nodes = (
(479,855,o),
(459,854,o),
(440,851,c),
(440,715,l),
(380,715,l),
(380,840,l),
(200,791,o),
(64,650,o),
(31,455,c),
(290,455,l),
(290,703,l),
(230,664,o),
(182,609,o),
(152,545,c),
(185,545,l),
(210,593,o),
(247,634,o),
(290,666,c),
(260,675,l),
(260,468,l),
(277,485,l),
(68,485,l),
(105,635,o),
(210,748,o),
(350,799,c),
(350,395,l),
(25,395,l),
(25,390,o),
(25,385,o),
(25,380,cs),
(25,375,o),
(25,370,o),
(25,365,c),
(350,365,l),
(350,-39,l),
(210,13,o),
(105,125,o),
(68,275,c),
(277,275,l),
(260,292,l),
(260,85,l),
(290,94,l),
(247,126,o),
(210,167,o),
(185,215,c),
(152,215,l),
(182,151,o),
(230,96,o),
(290,57,c),
(290,305,l),
(31,305,l),
(64,110,o),
(200,-30,o),
(380,-80,c),
(380,45,l),
(440,45,l),
(440,-91,l),
(459,-94,o),
(479,-95,o),
(500,-95,cs),
(520,-95,o),
(540,-94,o),
(560,-91,c),
(560,45,l),
(620,45,l),
(620,-80,l),
(800,-30,o),
(936,110,o),
(969,305,c),
(710,305,l),
(710,57,l),
(769,96,o),
(817,151,o),
(848,215,c),
(814,215,l),
(789,167,o),
(753,126,o),
(710,94,c),
(740,85,l),
(740,292,l),
(723,275,l),
(932,275,l),
(894,125,o),
(790,13,o),
(650,-39,c),
(650,365,l),
(975,365,l),
(975,370,o),
(975,375,o),
(975,380,cs),
(975,385,o),
(975,390,o),
(975,395,c),
(650,395,l),
(650,799,l),
(790,748,o),
(894,635,o),
(932,485,c),
(723,485,l),
(740,468,l),
(740,675,l),
(710,666,l),
(753,634,o),
(789,593,o),
(814,545,c),
(848,545,l),
(817,609,o),
(769,664,o),
(710,703,c),
(710,455,l),
(969,455,l),
(936,650,o),
(800,791,o),
(620,840,c),
(620,715,l),
(560,715,l),
(560,851,l),
(540,854,o),
(520,855,o),
(500,855,cs)
);
},
{
closed = 1;
nodes = (
(510,825,o),
(520,825,o),
(530,824,c),
(530,685,l),
(620,685,l),
(620,75,l),
(530,75,l),
(530,-64,l),
(520,-65,o),
(510,-65,o),
(500,-65,cs),
(490,-65,o),
(480,-65,o),
(470,-64,c),
(470,75,l),
(380,75,l),
(380,685,l),
(470,685,l),
(470,824,l),
(480,825,o),
(490,825,o),
(500,825,cs)
);
},
{
closed = 1;
nodes = (
(440,625,l),
(440,135,l),
(560,135,l),
(560,625,l)
);
},
{
closed = 1;
nodes = (
(470,595,l),
(530,595,l),
(530,165,l),
(470,165,l)
);
}
);
width = 1000;
},
{
layerId = m01;
shapes = (
{
closed = 1;
nodes = (
(474,855,o),
(449,853,o),
(425,849,c),
(425,725,l),
(375,725,l),
(375,838,l),
(196,788,o),
(64,647,o),
(31,455,c),
(275,455,l),
(275,680,l),
(231,647,o),
(194,604,o),
(168,555,c),
(226,555,l),
(240,577,o),
(256,597,o),
(275,615,c),
(225,621,l),
(225,460,l),
(270,505,l),
(94,505,l),
(132,627,o),
(217,718,o),
(325,767,c),
(325,405,l),
(26,405,l),
(25,397,o),
(25,388,o),
(25,380,cs),
(25,372,o),
(25,363,o),
(26,355,c),
(325,355,l),
(325,-7,l),
(217,42,o),
(132,133,o),
(94,255,c),
(270,255,l),
(225,300,l),
(225,139,l),
(275,145,l),
(256,163,o),
(240,183,o),
(226,205,c),
(168,205,l),
(194,156,o),
(231,113,o),
(275,80,c),
(275,305,l),
(31,305,l),
(64,113,o),
(196,-28,o),
(375,-78,c),
(375,35,l),
(425,35,l),
(425,-89,l),
(449,-93,o),
(474,-95,o),
(500,-95,cs),
(526,-95,o),
(551,-93,o),
(575,-89,c),
(575,35,l),
(625,35,l),
(625,-78,l),
(804,-28,o),
(936,113,o),
(969,305,c),
(725,305,l),
(725,80,l),
(769,113,o),
(806,156,o),
(832,205,c),
(774,205,l),
(760,183,o),
(744,163,o),
(725,145,c),
(775,139,l),
(775,300,l),
(730,255,l),
(906,255,l),
(869,133,o),
(783,42,o),
(675,-7,c),
(675,355,l),
(974,355,l),
(975,363,o),
(975,372,o),
(975,380,cs),
(975,388,o),
(975,397,o),
(974,405,c),
(675,405,l),
(675,767,l),
(783,718,o),
(869,627,o),
(906,505,c),
(730,505,l),
(775,460,l),
(775,621,l),
(725,615,l),
(744,597,o),
(760,577,o),
(774,555,c),
(832,555,l),
(806,604,o),
(769,647,o),
(725,680,c),
(725,455,l),
(969,455,l),
(936,647,o),
(804,788,o),
(625,838,c),
(625,725,l),
(575,725,l),
(575,849,l),
(551,853,o),
(526,855,o),
(500,855,cs)
);
},
{
closed = 1;
nodes = (
(508,805,o),
(517,805,o),
(525,804,c),
(525,675,l),
(625,675,l),
(625,85,l),
(525,85,l),
(525,-44,l),
(517,-45,o),
(508,-45,o),
(500,-45,cs),
(492,-45,o),
(483,-45,o),
(475,-44,c),
(475,85,l),
(375,85,l),
(375,675,l),
(475,675,l),
(475,804,l),
(483,805,o),
(492,805,o),
(500,805,cs)
);
},
{
closed = 1;
nodes = (
(425,625,l),
(425,135,l),
(575,135,l),
(575,625,l)
);
},
{
closed = 1;
nodes = (
(475,575,l),
(525,575,l),
(525,185,l),
(475,185,l)
);
}
);
width = 1000;
},
{
layerId = m003;
shapes = (
{
closed = 1;
nodes = (
(463,855,o),
(427,851,o),
(392,843,c),
(392,750,l),
(376,750,l),
(376,839,l),
(200,789,o),
(61,649,o),
(30,446,c),
(260,446,l),
(260,648,l),
(202,596,o),
(161,526,o),
(146,446,c),
(248,446,l),
(252,458,o),
(255,469,o),
(260,480,c),
(146,480,l),
(146,446,l),
(260,546,l),
(164,546,l),
(190,600,o),
(229,646,o),
(276,681,c),
(276,430,l),
(28,430,l),
(26,414,o),
(25,397,o),
(25,380,cs),
(25,363,o),
(26,346,o),
(28,330,c),
(276,330,l),
(276,79,l),
(229,114,o),
(190,160,o),
(164,214,c),
(260,214,l),
(146,314,l),
(146,280,l),
(260,280,l),
(255,291,o),
(252,302,o),
(248,314,c),
(146,314,l),
(161,234,o),
(202,164,o),
(260,112,c),
(260,314,l),
(30,314,l),
(61,111,o),
(200,-29,o),
(376,-79,c),
(376,10,l),
(392,10,l),
(392,-83,l),
(427,-91,o),
(463,-95,o),
(500,-95,cs),
(537,-95,o),
(573,-91,o),
(608,-83,c),
(608,10,l),
(624,10,l),
(624,-79,l),
(800,-29,o),
(939,111,o),
(970,314,c),
(740,314,l),
(740,112,l),
(798,164,o),
(839,234,o),
(854,314,c),
(752,314,l),
(748,302,o),
(745,291,o),
(740,280,c),
(854,280,l),
(854,314,l),
(740,214,l),
(836,214,l),
(810,160,o),
(771,114,o),
(724,79,c),
(724,330,l),
(972,330,l),
(974,346,o),
(975,363,o),
(975,380,cs),
(975,397,o),
(974,414,o),
(972,430,c),
(724,430,l),
(724,681,l),
(771,646,o),
(810,600,o),
(836,546,c),
(740,546,l),
(854,446,l),
(854,480,l),
(740,480,l),
(745,469,o),
(748,458,o),
(752,446,c),
(854,446,l),
(839,526,o),
(798,596,o),
(740,648,c),
(740,446,l),
(970,446,l),
(939,649,o),
(800,789,o),
(624,839,c),
(624,750,l),
(608,750,l),
(608,843,l),
(573,851,o),
(537,855,o),
(500,855,cs)
);
},
{
closed = 1;
nodes = (
(503,755,o),
(505,755,o),
(508,755,c),
(508,650,l),
(624,650,l),
(624,110,l),
(508,110,l),
(508,5,l),
(505,5,o),
(503,5,o),
(500,5,cs),
(497,5,o),
(495,5,o),
(492,5,c),
(492,110,l),
(376,110,l),
(376,650,l),
(492,650,l),
(492,755,l),
(495,755,o),
(497,755,o),
(500,755,cs)
);
},
{
closed = 1;
nodes = (
(392,634,l),
(392,126,l),
(608,126,l),
(608,634,l)
);
},
{
closed = 1;
nodes = (
(492,534,l),
(508,534,l),
(508,226,l),
(492,226,l)
);
}
);
width = 1000;
}
);
unicode = 127589;
},
{
glyphname = fu.rounded;
lastChange = "2022-11-02 08:34:36 +0000";
layers = (
{
layerId = m002;
shapes = (
{
closed = 1;
nodes = (
(500,825,l),
(608,825,o),
(707,787,o),
(784,723,c),
(829,723,l),
(743,805,o),
(628,855,o),
(500,855,c)
);
},
{
closed = 1;
nodes = (
(440,851,l),
(275,831,o),
(137,726,o),
(70,581,c),
(103,581,l),
(164,700,o),
(275,788,o),
(410,816,c),
(410,581,l),
(440,581,l)
);
},
{
closed = 1;
nodes = (
(500,663,l),
(500,465,l),
(967,465,l),
(954,538,o),
(924,606,o),
(882,663,c)
);
},
{
closed = 1;
nodes = (
(530,633,l),
(866,633,l),
(895,592,o),
(917,545,o),
(930,495,c),
(530,495,l)
);
},
{
closed = 1;
nodes = (
(46,521,l),
(33,476,o),
(25,429,o),
(25,380,cs),
(25,248,o),
(79,129,o),
(165,43,c),
(165,87,l),
(97,165,o),
(55,268,o),
(55,380,cs),
(55,418,o),
(60,456,o),
(69,491,c),
(225,491,l),
(225,-7,l),
(235,-14,o),
(245,-21,o),
(255,-27,c),
(255,491,l),
(410,491,l),
(410,-86,l),
(420,-88,o),
(430,-90,o),
(440,-91,c),
(440,521,l)
);
},
{
closed = 1;
nodes = (
(500,405,l),
(500,-95,l),
(762,-95,o),
(975,118,o),
(975,380,cs),
(974,405,l)
);
},
{
closed = 1;
nodes = (
(530,375,l),
(723,375,l),
(723,236,l),
(530,236,l)
);
},
{
closed = 1;
nodes = (
(753,375,l),
(945,375,l),
(944,326,o),
(936,280,o),
(921,236,c),
(753,236,l)
);
},
{
closed = 1;
nodes = (
(530,206,l),
(723,206,l),
(723,-5,l),
(666,-38,o),
(600,-59,o),
(530,-64,c)
);
},
{
closed = 1;
nodes = (
(753,206,l),
(910,206,l),
(877,128,o),
(822,61,o),
(753,14,c)
);
}
);
width = 1000;
},
{
layerId = m01;
shapes = (
{
closed = 1;
nodes = (
(500,805,l),
(597,805,o),
(686,773,o),
(758,718,c),
(834,718,l),
(748,803,o),
(630,855,o),
(500,855,c)
);
},
{
closed = 1;
nodes = (
(450,852,l),
(277,834,o),
(132,724,o),
(65,571,c),
(120,571,l),
(176,681,o),
(277,764,o),
(400,793,c),
(400,571,l),
(450,571,l)
);
},
{
closed = 1;
nodes = (
(500,668,l),
(500,455,l),
(969,455,l),
(957,534,o),
(924,607,o),
(878,668,c)
);
},
{
closed = 1;
nodes = (
(550,618,l),
(852,618,l),
(875,584,o),
(894,546,o),
(906,505,c),
(550,505,l)
);
},
{
closed = 1;
nodes = (
(46,521,l),
(33,476,o),
(25,429,o),
(25,380,cs),
(25,244,o),
(82,122,o),
(173,35,c),
(173,109,l),
(112,182,o),
(75,277,o),
(75,380,cs),
(75,412,o),
(78,441,o),
(85,471,c),
(223,471,l),
(223,-6,l),
(239,-17,o),
(256,-28,o),
(273,-37,c),
(273,471,l),
(400,471,l),
(400,-84,l),
(416,-88,o),
(433,-91,o),
(450,-92,c),
(450,521,l)
);
},
{
closed = 1;
nodes = (
(500,405,l),
(500,-95,l),
(762,-95,o),
(975,118,o),
(975,380,cs),
(974,405,l)
);
},
{
closed = 1;
nodes = (
(550,355,l),
(713,355,l),
(713,246,l),
(550,246,l)
);
},
{
closed = 1;
nodes = (
(763,355,l),
(924,355,l),
(922,317,o),
(915,281,o),
(903,246,c),
(763,246,l)
);
},
{
closed = 1;
nodes = (
(550,196,l),
(713,196,l),
(713,12,l),
(664,-16,o),
(609,-35,o),
(550,-42,c)
);
},
{
closed = 1;
nodes = (
(763,196,l),
(883,196,l),
(855,137,o),
(814,86,o),
(763,46,c)
);
}
);
width = 1000;
},
{
layerId = m003;
shapes = (
{
closed = 1;
nodes = (
(500,755,l),
(583,755,o),
(659,728,o),
(721,683,c),
(866,683,l),
(779,788,o),
(647,855,o),
(500,855,c)
);
},
{
closed = 1;
nodes = (
(485,855,l),
(283,849,o),
(114,717,o),
(51,535,c),
(158,535,l),
(201,630,o),
(284,704,o),
(385,737,c),
(385,535,l),
(485,535,l)
);
},
{
closed = 1;
nodes = (
(500,668,l),
(500,420,l),
(973,420,l),
(966,513,o),
(931,598,o),
(878,668,c)
);
},
{
closed = 1;
nodes = (
(600,568,l),
(824,568,l),
(833,553,o),
(841,537,o),
(848,520,c),
(600,520,l)
);
},
{
closed = 1;
nodes = (
(46,520,l),
(32,476,o),
(25,429,o),
(25,380,cs),
(25,231,o),
(93,99,o),
(200,12,c),
(200,155,l),
(153,218,o),
(125,296,o),
(125,380,cs),
(125,397,o),
(125,407,o),
(127,420,c),
(215,420,l),
(215,0,l),
(246,-23,o),
(279,-42,o),
(315,-58,c),
(315,420,l),
(385,420,l),
(385,-81,l),
(417,-89,o),
(451,-94,o),
(485,-95,c),
(485,520,l)
);
},
{
closed = 1;
nodes = (
(500,405,l),
(500,-95,l),
(762,-95,o),
(975,118,o),
(975,380,cs),
(974,405,l)
);
},
{
closed = 1;
nodes = (
(600,305,l),
(643,305,l),
(643,265,l),
(600,265,l)
);
},
{
closed = 1;
nodes = (
(743,305,l),
(867,305,l),
(865,291,o),
(861,278,o),
(857,265,c),
(743,265,l)
);
},
{
closed = 1;
nodes = (
(600,165,l),
(643,165,l),
(643,33,l),
(629,28,o),
(615,23,o),
(600,19,c)
);
},
{
closed = 1;
nodes = (
(743,165,l),
(807,165,l),
(789,139,o),
(767,115,o),
(743,95,c)
);
}
);
width = 1000;
}
);
unicode = 127584;
},
{
glyphname = lu.rounded;
lastChange = "2022-11-02 12:29:52 +0000";
layers = (
{
layerId = m002;
shapes = (
{
closed = 1;
nodes = (
(248,855,o),
(41,658,o),
(26,410,c),
(116,410,l),
(115,400,o),
(115,390,o),
(115,380,cs),
(115,370,o),
(115,360,o),
(116,350,c),
(26,350,l),
(41,102,o),
(248,-95,o),
(501,-95,cs),
(753,-95,o),
(960,102,o),
(975,350,c),
(885,350,l),
(886,360,o),
(886,370,o),
(886,380,cs),
(886,390,o),
(886,400,o),
(885,410,c),
(975,410,l),
(960,658,o),
(753,855,o),
(501,855,cs)
);
},
{
closed = 1;
nodes = (
(440,440,l),
(59,440,l),
(71,534,o),
(113,618,o),
(175,684,c),
(218,641,l),
(180,601,o),
(152,553,o),
(134,500,c),
(381,500,l),
(381,650,l),
(370,645,o),
(360,640,o),
(351,634,c),
(351,508,l),
(373,508,l),
(373,530,l),
(178,530,l),
(227,634,o),
(324,710,o),
(440,730,c)
);
},
{
closed = 1;
nodes = (
(617,825,o),
(724,780,o),
(804,705,c),
(761,663,l),
(699,720,o),
(619,757,o),
(530,764,c),
(530,410,l),
(854,410,l),
(856,400,o),
(856,390,o),
(856,380,cs),
(856,370,o),
(856,360,o),
(854,350,c),
(530,350,l),
(530,-4,l),
(619,3,o),
(700,41,o),
(762,99,c),
(805,56,l),
(725,-19,o),
(618,-65,o),
(500,-65,cs),
(382,-65,o),
(275,-20,o),
(195,55,c),
(238,97,l),
(300,40,o),
(381,3,o),
(470,-4,c),
(470,350,l),
(145,350,l),
(144,360,o),
(144,370,o),
(144,380,cs),
(144,390,o),
(145,400,o),
(145,410,c),
(470,410,l),
(470,764,l),
(381,757,o),
(300,720,o),
(238,663,c),
(195,705,l),
(275,780,o),
(383,825,o),
(500,825,cs)
);
},
{
closed = 1;
nodes = (
(676,710,o),
(773,634,o),
(822,530,c),
(627,530,l),
(627,508,l),
(649,508,l),
(649,634,l),
(640,640,o),
(630,645,o),
(619,650,c),
(619,500,l),
(866,500,l),
(848,553,o),
(820,601,o),
(782,641,c),
(825,684,l),
(887,618,o),
(929,534,o),
(941,440,c),
(560,440,l),
(560,730,l)
);
},
{
closed = 1;
nodes = (
(324,50,o),
(227,126,o),
(178,230,c),
(373,230,l),
(373,252,l),
(351,252,l),
(351,126,l),
(360,120,o),
(370,115,o),
(381,110,c),
(381,260,l),
(134,260,l),
(152,207,o),
(180,159,o),
(218,119,c),
(175,76,l),
(113,142,o),
(71,226,o),
(59,320,c),
(440,320,l),
(440,30,l)
);
},
{
closed = 1;
nodes = (
(560,320,l),
(941,320,l),
(929,226,o),
(887,142,o),
(825,76,c),
(782,119,l),
(820,159,o),
(848,207,o),
(866,260,c),
(619,260,l),
(619,110,l),
(630,115,o),
(640,120,o),
(649,126,c),
(649,252,l),
(627,252,l),
(627,230,l),
(822,230,l),
(773,126,o),
(676,50,o),
(560,30,c)
);
}
);
width = 1000;
},
{
layerId = m01;
shapes = (
{
closed = 1;
nodes = (
(246,855,o),
(39,656,o),
(26,405,c),
(126,405,l),
(125,397,o),
(125,388,o),
(125,380,cs),
(125,372,o),
(125,363,o),
(126,355,c),
(26,355,l),
(39,104,o),
(246,-95,o),
(500,-95,cs),
(755,-95,o),
(962,104,o),
(975,355,c),
(875,355,l),
(876,363,o),
(876,372,o),
(876,380,cs),
(876,388,o),
(876,397,o),
(875,405,c),
(975,405,l),
(962,656,o),
(755,855,o),
(500,855,cs)
);
},
{
closed = 1;
nodes = (
(425,455,l),
(82,455,l),
(96,534,o),
(131,605,o),
(183,662,c),
(218,627,l),
(187,591,o),
(163,550,o),
(147,505,c),
(375,505,l),
(375,625,l),
(358,616,o),
(341,605,o),
(325,592,c),
(325,510,l),
(370,510,l),
(370,555,l),
(226,555,l),
(271,625,o),
(342,677,o),
(425,696,c)
);
},
{
closed = 1;
nodes = (
(608,805,o),
(707,764,o),
(782,697,c),
(746,662,l),
(686,715,o),
(610,748,o),
(525,754,c),
(525,405,l),
(824,405,l),
(826,397,o),
(826,388,o),
(826,380,cs),
(826,372,o),
(826,363,o),
(824,355,c),
(525,355,l),
(525,6,l),
(610,12,o),
(686,45,o),
(746,98,c),
(782,63,l),
(707,-4,o),
(608,-45,o),
(499,-45,cs),
(391,-45,o),
(292,-4,o),
(217,62,c),
(253,98,l),
(313,45,o),
(390,12,o),
(475,6,c),
(475,355,l),
(175,355,l),
(174,363,o),
(174,372,o),
(174,380,cs),
(174,388,o),
(174,397,o),
(175,405,c),
(475,405,l),
(475,754,l),
(390,748,o),
(313,715,o),
(253,662,c),
(217,698,l),
(292,764,o),
(391,805,o),
(499,805,cs)
);
},
{
closed = 1;
nodes = (
(658,677,o),
(729,625,o),
(774,555,c),
(630,555,l),
(630,510,l),
(675,510,l),
(675,592,l),
(659,605,o),
(642,616,o),
(625,625,c),
(625,505,l),
(853,505,l),
(837,550,o),
(813,591,o),
(782,627,c),
(817,662,l),
(869,605,o),
(904,534,o),
(918,455,c),
(575,455,l),
(575,696,l)
);
},
{
closed = 1;
nodes = (
(342,83,o),
(271,135,o),
(226,205,c),
(370,205,l),
(370,250,l),
(325,250,l),
(325,168,l),
(341,155,o),
(358,144,o),
(375,135,c),
(375,255,l),
(147,255,l),
(163,210,o),
(187,169,o),
(218,133,c),
(183,98,l),
(131,155,o),
(96,226,o),
(82,305,c),
(425,305,l),
(425,64,l)
);
},
{
closed = 1;
nodes = (
(575,305,l),
(918,305,l),
(904,226,o),
(869,155,o),
(817,98,c),
(782,133,l),
(813,169,o),
(837,210,o),
(853,255,c),
(625,255,l),
(625,135,l),
(642,144,o),
(659,155,o),
(675,168,c),
(675,250,l),
(630,250,l),
(630,205,l),
(774,205,l),
(729,135,o),
(658,83,o),
(575,64,c)
);
}
);
width = 1000;
},
{
layerId = m003;
shapes = (
{
closed = 1;
nodes = (
(240,855,o),
(29,647,o),
(25,388,c),
(140,388,l),
(140,385,o),
(140,383,o),
(140,380,cs),
(140,377,o),
(140,375,o),
(140,372,c),
(25,372,l),
(29,113,o),
(240,-95,o),
(500,-95,cs),
(760,-95,o),
(971,113,o),
(975,372,c),
(860,372,l),
(860,375,o),
(860,377,o),
(860,380,cs),
(860,383,o),
(860,385,o),
(860,388,c),
(975,388,l),
(971,647,o),
(760,855,o),
(500,855,cs)
);
},
{
closed = 1;
nodes = (
(392,488,l),
(141,488,l),
(154,532,o),
(175,572,o),
(202,608,c),
(213,597,l),
(192,569,o),
(174,537,o),
(162,503,c),
(376,503,l),
(376,590,l),
(344,571,o),
(318,546,o),
(298,516,c),
(298,506,l),
(376,506,l),
(376,603,l),
(367,603,l),
(375,608,o),
(383,612,o),
(392,617,c)
);
},
{
closed = 1;
nodes = (
(585,755,o),
(664,726,o),
(727,678,c),
(717,667,l),
(659,712,o),
(586,739,o),
(508,740,c),
(508,388,l),
(760,388,l),
(760,385,o),
(760,383,o),
(760,380,cs),
(760,377,o),
(760,375,o),
(760,372,c),
(508,372,l),
(508,20,l),
(586,22,o),
(659,48,o),
(717,93,c),
(727,82,l),
(664,34,o),
(585,5,o),
(500,5,cs),
(415,5,o),
(336,34,o),
(273,82,c),
(283,93,l),
(341,48,o),
(414,22,o),
(492,20,c),
(492,372,l),
(240,372,l),
(240,375,o),
(240,377,o),
(240,380,cs),
(240,383,o),
(240,385,o),
(240,388,c),
(492,388,l),
(492,740,l),
(414,739,o),
(341,712,o),
(283,667,c),
(272,678,l),
(336,726,o),
(414,755,o),
(500,755,cs)
);
},
{
closed = 1;
nodes = (
(617,612,o),
(625,608,o),
(633,603,c),
(624,603,l),
(624,506,l),
(702,506,l),
(702,516,l),
(682,546,o),
(656,571,o),
(624,590,c),
(624,503,l),
(838,503,l),
(826,537,o),
(808,569,o),
(787,597,c),
(798,608,l),
(825,572,o),
(846,532,o),
(859,488,c),
(608,488,l),
(608,617,l)
);
},
{
closed = 1;
nodes = (
(383,148,o),
(375,152,o),
(367,157,c),
(376,157,l),
(376,254,l),
(298,254,l),
(298,244,l),
(318,214,o),
(344,189,o),
(376,170,c),
(376,257,l),
(162,257,l),
(174,223,o),
(192,191,o),
(213,163,c),
(202,152,l),
(175,188,o),
(154,228,o),
(141,272,c),
(392,272,l),
(392,143,l)
);
},
{
closed = 1;
nodes = (
(608,272,l),
(859,272,l),
(846,228,o),
(825,188,o),
(798,152,c),
(787,163,l),
(808,191,o),
(826,223,o),
(838,257,c),
(624,257,l),
(624,170,l),
(656,189,o),
(682,214,o),
(702,244,c),
(702,254,l),
(624,254,l),
(624,157,l),
(633,157,l),
(625,152,o),
(617,148,o),
(608,143,c)
);
}
);
width = 1000;
}
);
unicode = 127585;
},
{
glyphname = shou.rounded;
lastChange = "2022-11-02 09:38:30 +0000";
layers = (
{
layerId = m002;
shapes = (
{
closed = 1;
nodes = (
(325,854,o),
(172,760,o),
(90,620,c),
(125,620,l),
(201,738,o),
(334,819,o),
(485,824,c),
(485,764,l),
(369,759,o),
(266,703,o),
(199,620,c),
(238,620,l),
(300,687,o),
(387,730,o),
(485,734,c),
(485,620,l),
(515,620,l),
(515,734,l),
(613,730,o),
(700,687,o),
(762,620,c),
(801,620,l),
(734,703,o),
(631,759,o),
(515,764,c),
(515,824,l),
(666,819,o),
(799,738,o),
(875,620,c),
(910,620,l),
(828,760,o),
(675,854,o),
(500,854,cs)
);
},
{
closed = 1;
nodes = (
(60,560,l),
(38,505,o),
(25,444,o),
(25,380,cs),
(25,370,o),
(25,360,o),
(26,350,c),
(146,350,l),
(145,360,o),
(145,370,o),
(145,380,cs),
(145,434,o),
(157,484,o),
(178,530,c),
(822,530,l),
(843,484,o),
(855,434,o),
(855,380,cs),
(855,370,o),
(855,360,o),
(854,350,c),
(974,350,l),
(975,360,o),
(975,370,o),
(975,380,cs),
(975,444,o),
(962,505,o),
(940,560,c),
(907,560,l),
(931,505,o),
(945,444,o),
(945,380,c),
(885,380,l),
(885,445,o),
(869,506,o),
(840,560,c),
(160,560,l),
(131,506,o),
(115,445,o),
(115,380,c),
(55,380,l),
(55,444,o),
(69,505,o),
(93,560,c)
);
},
{
closed = 1;
nodes = (
(219,470,l),
(216,460,o),
(213,450,o),
(211,440,c),
(485,440,l),
(485,380,l),
(205,380,l),
(205,370,o),
(206,360,o),
(207,350,c),
(793,350,l),
(794,360,o),
(795,370,o),
(795,380,c),
(515,380,l),
(515,440,l),
(789,440,l),
(787,450,o),
(784,460,o),
(781,470,c)
);
},
{
closed = 1;
nodes = (
(34,290,l),
(74,80,o),
(252,-80,o),
(470,-94,c),
(470,-64,l),
(280,-52,o),
(122,82,o),
(72,260,c),
(485,260,l),
(485,200,l),
(160,200,l),
(220,86,o),
(335,7,o),
(470,-4,c),
(470,26,l),
(365,35,o),
(273,89,o),
(214,170,c),
(786,170,l),
(727,89,o),
(635,35,o),
(530,26,c),
(530,-4,l),
(665,7,o),
(780,86,o),
(840,200,c),
(515,200,l),
(515,260,l),
(929,260,l),
(878,82,o),
(720,-52,o),
(530,-64,c),
(530,-94,l),
(748,-80,o),
(926,80,o),
(966,290,c)
);
}
);
width = 1000;
},
{
layerId = m01;
shapes = (
{
closed = 1;
nodes = (
(329,855,o),
(180,765,o),
(96,630,c),
(156,630,l),
(229,730,o),
(344,797,o),
(475,804,c),
(475,754,l),
(374,747,o),
(284,701,o),
(220,630,c),
(292,630,l),
(343,672,o),
(406,699,o),
(475,704,c),
(475,631,l),
(525,631,l),
(525,704,l),
(594,699,o),
(657,672,o),
(708,630,c),
(780,630,l),
(716,701,o),
(626,747,o),
(525,754,c),
(525,804,l),
(656,797,o),
(771,730,o),
(844,630,c),
(904,630,l),
(820,765,o),
(671,855,o),
(500,855,cs)
);
},
{
closed = 1;
nodes = (
(69,580,l),
(41,519,o),
(25,451,o),
(25,380,cs),
(25,363,o),
(26,346,o),
(28,330,c),
(179,330,l),
(176,346,o),
(175,363,o),
(175,380,cs),
(175,434,o),
(188,485,o),
(212,530,c),
(788,530,l),
(812,485,o),
(825,434,o),
(825,380,cs),
(825,363,o),
(824,346,o),
(821,330,c),
(972,330,l),
(974,346,o),
(975,363,o),
(975,380,cs),
(975,451,o),
(959,519,o),
(931,580,c),
(875,580,l),
(907,520,o),
(925,452,o),
(925,380,c),
(875,380,l),
(875,453,o),
(854,522,o),
(817,580,c),
(183,580,l),
(146,522,o),
(125,453,o),
(125,380,c),
(75,380,l),
(75,452,o),
(93,520,o),
(125,580,c)
);
},
{
closed = 1;
nodes = (
(244,480,l),
(238,464,o),
(233,447,o),
(230,430,c),
(475,430,l),
(475,380,l),
(225,380,l),
(225,363,o),
(227,346,o),
(230,330,c),
(770,330,l),
(773,346,o),
(775,363,o),
(775,380,c),
(525,380,l),
(525,430,l),
(770,430,l),
(767,447,o),
(762,464,o),
(756,480,c)
);
},
{
closed = 1;
nodes = (
(36,280,l),
(80,73,o),
(258,-83,o),
(475,-94,c),
(475,-44,l),
(304,-34,o),
(160,77,o),
(102,230,c),
(475,230,l),
(475,180,l),
(183,180,l),
(245,81,o),
(352,14,o),
(475,6,c),
(475,56,l),
(406,61,o),
(342,88,o),
(292,130,c),
(708,130,l),
(658,88,o),
(594,61,o),
(525,56,c),
(525,6,l),
(648,14,o),
(755,81,o),
(817,180,c),
(525,180,l),
(525,230,l),
(898,230,l),
(840,77,o),
(696,-34,o),
(525,-44,c),
(525,-94,l),
(742,-83,o),
(920,73,o),
(964,280,c)
);
}
);
width = 1000;
},
{
layerId = m003;
shapes = (
{
closed = 1;
nodes = (
(324,855,o),
(171,760,o),
(89,618,c),
(210,618,l),
(269,690,o),
(354,739,o),
(450,752,c),
(450,737,l),
(363,724,o),
(286,681,o),
(230,618,c),
(395,618,l),
(412,626,o),
(431,631,o),
(450,635,c),
(450,618,l),
(550,618,l),
(550,635,l),
(569,631,o),
(588,626,o),
(605,618,c),
(770,618,l),
(714,681,o),
(637,724,o),
(550,737,c),
(550,752,l),
(646,739,o),
(731,690,o),
(790,618,c),
(911,618,l),
(829,760,o),
(676,855,o),
(500,855,cs)
);
},
{
closed = 1;
nodes = (
(80,602,l),
(45,536,o),
(25,460,o),
(25,380,cs),
(25,360,o),
(26,340,o),
(29,320,c),
(247,320,l),
(242,339,o),
(240,359,o),
(240,380,cs),
(240,424,o),
(251,466,o),
(270,502,c),
(730,502,l),
(749,466,o),
(760,424,o),
(760,380,cs),
(760,359,o),
(758,339,o),
(753,320,c),
(971,320,l),
(974,340,o),
(975,360,o),
(975,380,cs),
(975,460,o),
(955,536,o),
(920,602,c),
(802,602,l),
(841,550,o),
(866,488,o),
(873,420,c),
(858,420,l),
(850,488,o),
(823,551,o),
(783,602,c),
(217,602,l),
(177,551,o),
(150,488,o),
(142,420,c),
(127,420,l),
(134,488,o),
(159,550,o),
(198,602,c)
);
},
{
closed = 1;
nodes = (
(280,486,l),
(269,463,o),
(261,438,o),
(258,411,c),
(450,411,l),
(450,395,l),
(257,395,l),
(257,390,o),
(259,338,o),
(263,320,c),
(736,320,l),
(742,339,o),
(744,390,o),
(744,395,c),
(550,395,l),
(550,411,l),
(742,411,l),
(739,438,o),
(731,463,o),
(720,486,c)
);
},
{
closed = 1;
nodes = (
(31,304,l),
(67,80,o),
(259,-91,o),
(492,-95,c),
(492,5,l),
(352,8,o),
(231,88,o),
(169,204,c),
(450,204,l),
(450,188,l),
(195,188,l),
(258,89,o),
(367,23,o),
(492,20,c),
(492,95,l),
(460,96,o),
(429,102,o),
(400,113,c),
(600,113,l),
(571,102,o),
(540,96,o),
(508,95,c),
(508,20,l),
(633,23,o),
(742,89,o),
(805,188,c),
(550,188,l),
(550,204,l),
(831,204,l),
(770,88,o),
(648,8,o),
(508,5,c),
(508,-95,l),
(741,-91,o),
(933,80,o),
(969,304,c)
);
}
);
width = 1000;
}
);
unicode = 127586;
},
{
glyphname = shuangxi.rounded;
lastChange = "2022-11-02 09:45:52 +0000";
layers = (
{
layerId = m002;
shapes = (
{
closed = 1;
nodes = (
(335,825,l),
(325,821,o),
(315,817,o),
(305,813,c),
(305,765,l),
(222,765,l),
(209,755,o),
(196,745,o),
(184,734,c),
(305,734,l),
(305,674,l),
(128,674,l),
(120,665,o),
(113,655,o),
(106,644,c),
(894,644,l),
(887,655,o),
(880,665,o),
(872,674,c),
(695,674,l),
(695,734,l),
(816,734,l),
(804,745,o),
(791,755,o),
(778,765,c),
(695,765,l),
(695,813,l),
(685,817,o),
(675,821,o),
(665,825,c),
(665,765,l),
(335,765,l)
);
},
{
closed = 1;
nodes = (
(335,734,l),
(665,734,l),
(665,674,l),
(335,674,l)
);
},
{
closed = 1;
nodes = (
(71,584,l),
(42,522,o),
(25,453,o),
(25,379,cs),
(25,374,o),
(25,369,o),
(25,364,c),
(305,364,l),
(305,304,l),
(31,304,l),
(33,294,o),
(34,284,o),
(37,274,c),
(305,274,l),
(305,214,l),
(55,214,l),
(118,42,o),
(279,-83,o),
(470,-95,c),
(470,214,l),
(335,214,l),
(335,274,l),
(665,274,l),
(665,214,l),
(530,214,l),
(530,-95,l),
(721,-83,o),
(882,42,o),
(946,214,c),
(695,214,l),
(695,274,l),
(963,274,l),
(966,284,o),
(968,294,o),
(969,304,c),
(695,304,l),
(695,364,l),
(975,364,l),
(975,368,o),
(975,375,o),
(975,379,cs),
(975,453,o),
(958,522,o),
(929,584,c),
(530,584,l),
(530,364,l),
(665,364,l),
(665,304,l),
(335,304,l),
(335,364,l),
(470,364,l),
(470,584,l)
);
},
{
closed = 1;
nodes = (
(440,554,l),
(440,394,l),
(55,394,l),
(57,451,o),
(70,505,o),
(91,554,c)
);
},
{
closed = 1;
nodes = (
(560,554,l),
(909,554,l),
(930,505,o),
(943,451,o),
(945,394,c),
(560,394,l)
);
},
{
closed = 1;
nodes = (
(440,184,l),
(440,-62,l),
(290,-41,o),
(164,53,o),
(100,184,c)
);
},
{
closed = 1;
nodes = (
(560,184,l),
(900,184,l),
(836,53,o),
(710,-41,o),
(560,-62,c)
);
}
);
width = 1000;
},
{
layerId = m01;
shapes = (
{
closed = 1;
nodes = (
(355,832,l),
(338,827,o),
(321,820,o),
(305,813,c),
(305,755,l),
(208,755,l),
(189,739,o),
(171,723,o),
(154,705,c),
(305,705,l),
(305,655,l),
(113,655,l),
(101,639,o),
(91,622,o),
(82,605,c),
(918,605,l),
(909,622,o),
(899,639,o),
(887,655,c),
(695,655,l),
(695,705,l),
(846,705,l),
(829,723,o),
(811,739,o),
(792,755,c),
(695,755,l),
(695,813,l),
(679,820,o),
(662,827,o),
(645,832,c),
(645,755,l),
(355,755,l)
);
},
{
closed = 1;
nodes = (
(355,705,l),
(645,705,l),
(645,655,l),
(355,655,l)
);
},
{
closed = 1;
nodes = (
(58,555,l),
(37,500,o),
(25,441,o),
(25,380,cs),
(25,371,o),
(25,363,o),
(26,355,c),
(305,355,l),
(305,305,l),
(31,305,l),
(34,288,o),
(37,271,o),
(42,255,c),
(305,255,l),
(305,205,l),
(58,205,l),
(125,36,o),
(285,-85,o),
(475,-95,c),
(475,205,l),
(355,205,l),
(355,255,l),
(645,255,l),
(645,205,l),
(525,205,l),
(525,-95,l),
(715,-85,o),
(875,36,o),
(942,205,c),
(695,205,l),
(695,255,l),
(958,255,l),
(963,271,o),
(966,288,o),
(969,305,c),
(695,305,l),
(695,355,l),
(974,355,l),
(975,363,o),
(975,371,o),
(975,380,cs),
(975,441,o),
(963,500,o),
(942,555,c),
(525,555,l),
(525,355,l),
(645,355,l),
(645,305,l),
(355,305,l),
(355,355,l),
(475,355,l),
(475,555,l)
);
},
{
closed = 1;
nodes = (
(425,505,l),
(425,405,l),
(76,405,l),
(78,439,o),
(84,473,o),
(94,505,c)
);
},
{
closed = 1;
nodes = (
(575,505,l),
(906,505,l),
(916,473,o),
(922,439,o),
(924,405,c),
(575,405,l)
);
},
{
closed = 1;
nodes = (
(425,155,l),
(425,-39,l),
(304,-17,o),
(202,55,o),
(140,155,c)
);
},
{
closed = 1;
nodes = (
(575,155,l),
(860,155,l),
(798,55,o),
(696,-17,o),
(575,-39,c)
);
}
);
width = 1000;
},
{
layerId = m003;
shapes = (
{
closed = 1;
nodes = (
(392,843,l),
(357,835,o),
(324,823,o),
(292,808,c),
(292,780,l),
(244,780,l),
(201,753,o),
(163,719,o),
(132,680,c),
(292,680,l),
(292,664,l),
(119,664,l),
(96,633,o),
(77,599,o),
(62,563,c),
(938,563,l),
(923,599,o),
(904,633,o),
(881,664,c),
(708,664,l),
(708,680,l),
(868,680,l),
(837,719,o),
(799,753,o),
(756,780,c),
(708,780,l),
(708,808,l),
(676,823,o),
(643,835,o),
(608,843,c),
(608,780,l),
(392,780,l)
);
},
{
closed = 1;
nodes = (
(392,680,l),
(608,680,l),
(608,664,l),
(392,664,l)
);
},
{
closed = 1;
nodes = (
(55,547,l),
(36,495,o),
(25,439,o),
(25,380,cs),
(25,363,o),
(26,347,o),
(28,330,c),
(292,330,l),
(292,314,l),
(30,314,l),
(34,280,o),
(43,246,o),
(55,214,c),
(292,214,l),
(292,198,l),
(61,198,l),
(132,29,o),
(298,-91,o),
(492,-95,c),
(492,198,l),
(392,198,l),
(392,214,l),
(608,214,l),
(608,198,l),
(508,198,l),
(508,-95,l),
(702,-91,o),
(868,29,o),
(939,198,c),
(708,198,l),
(708,214,l),
(945,214,l),
(957,246,o),
(966,280,o),
(970,314,c),
(708,314,l),
(708,330,l),
(972,330,l),
(974,347,o),
(975,363,o),
(975,380,cs),
(975,439,o),
(964,495,o),
(945,547,c),
(508,547,l),
(508,330,l),
(608,330,l),
(608,314,l),
(392,314,l),
(392,330,l),
(492,330,l),
(492,547,l)
);
},
{
closed = 1;
nodes = (
(392,447,l),
(392,430,l),
(128,430,l),
(129,436,o),
(130,441,o),
(131,447,c)
);
},
{
closed = 1;
nodes = (
(608,447,l),
(869,447,l),
(870,441,o),
(871,436,o),
(872,430,c),
(608,430,l)
);
},
{
closed = 1;
nodes = (
(392,98,l),
(392,21,l),
(340,36,o),
(293,63,o),
(253,98,c)
);
},
{
closed = 1;
nodes = (
(608,98,l),
(747,98,l),
(707,63,o),
(660,36,o),
(608,21,c)
);
}
);
width = 1000;
}
);
unicode = 127588;
},
{
glyphname = xi.rounded;
lastChange = "2022-11-02 11:06:11 +0000";
layers = (
{
layerId = m002;
shapes = (
{
closed = 1;
nodes = (
(460,855,o),
(422,850,o),
(385,841,c),
(385,723,l),
(485,723,l),
(485,651,l),
(325,651,l),
(325,822,l),
(149,752,o),
(25,581,o),
(25,380,cs),
(25,179,o),
(149,8,o),
(325,-62,c),
(325,109,l),
(485,109,l),
(485,37,l),
(385,37,l),
(385,-81,l),
(422,-90,o),
(460,-95,o),
(500,-95,cs),
(540,-95,o),
(578,-90,o),
(615,-81,c),
(615,37,l),
(515,37,l),
(515,109,l),
(675,109,l),
(675,-62,l),
(851,8,o),
(975,179,o),
(975,380,cs),
(975,581,o),
(851,752,o),
(675,822,c),
(675,651,l),
(515,651,l),
(515,723,l),
(615,723,l),
(615,841,l),
(578,850,o),
(540,855,o),
(500,855,cs)
);
},
{
closed = 1;
nodes = (
(529,825,o),
(557,822,o),
(585,817,c),
(585,753,l),
(415,753,l),
(415,817,l),
(443,822,o),
(471,825,o),
(500,825,cs)
);
},
{
closed = 1;
nodes = (
(295,440,l),
(150,440,l),
(161,500,o),
(185,560,o),
(235,616,c),
(205,622,l),
(205,500,l),
(235,500,l),
(235,659,l),
(168,596,o),
(124,508,o),
(116,410,c),
(205,410,l),
(205,350,l),
(116,350,l),
(124,252,o),
(168,164,o),
(235,101,c),
(235,260,l),
(205,260,l),
(205,138,l),
(235,144,l),
(185,200,o),
(161,260,o),
(150,320,c),
(295,320,l),
(295,-15,l),
(152,59,o),
(55,208,o),
(55,380,cs),
(55,552,o),
(152,701,o),
(295,775,c)
);
},
{
closed = 1;
nodes = (
(325,621,l),
(485,621,l),
(485,548,l),
(325,548,l)
);
},
{
closed = 1;
nodes = (
(515,621,l),
(675,621,l),
(675,548,l),
(515,548,l)
);
},
{
closed = 1;
nodes = (
(325,518,l),
(485,518,l),
(485,446,l),
(385,446,l),
(385,314,l),
(485,314,l),
(485,242,l),
(325,242,l),
(325,350,l),
(235,350,l),
(235,410,l),
(325,410,l)
);
},
{
closed = 1;
nodes = (
(515,518,l),
(675,518,l),
(675,410,l),
(765,410,l),
(765,350,l),
(675,350,l),
(675,242,l),
(515,242,l),
(515,314,l),
(615,314,l),
(615,446,l),
(515,446,l)
);
},
{
closed = 1;
nodes = (
(415,416,l),
(585,416,l),
(585,344,l),
(415,344,l)
);
},
{
closed = 1;
nodes = (
(325,212,l),
(485,212,l),
(485,139,l),
(325,139,l)
);
},
{
closed = 1;
nodes = (
(515,212,l),
(675,212,l),
(675,139,l),
(515,139,l)
);
},
{
closed = 1;
nodes = (
(415,7,l),
(585,7,l),
(585,-57,l),
(557,-62,o),
(529,-65,o),
(500,-65,cs),
(471,-65,o),
(443,-62,o),
(415,-57,c)
);
},
{
closed = 1;
nodes = (
(848,701,o),
(945,552,o),
(945,380,cs),
(945,208,o),
(848,59,o),
(705,-15,c),
(705,320,l),
(850,320,l),
(839,260,o),
(815,200,o),
(765,144,c),
(795,138,l),
(795,260,l),
(765,260,l),
(765,101,l),
(832,164,o),
(876,252,o),
(884,350,c),
(795,350,l),
(795,410,l),
(884,410,l),
(876,508,o),
(832,596,o),
(765,659,c),
(765,500,l),
(795,500,l),
(795,622,l),
(765,616,l),
(815,560,o),
(839,500,o),
(850,440,c),
(705,440,l),
(705,775,l)
);
}
);
width = 1000;
},
{
layerId = m01;
shapes = (
{
closed = 1;
nodes = (
(474,855,o),
(449,853,o),
(425,849,c),
(425,705,l),
(475,705,l),
(475,655,l),
(375,655,l),
(375,838,l),
(173,784,o),
(25,599,o),
(25,380,cs),
(25,161,o),
(173,-24,o),
(375,-78,c),
(375,105,l),
(475,105,l),
(475,55,l),
(425,55,l),
(425,-89,l),
(449,-93,o),
(474,-95,o),
(500,-95,cs),
(526,-95,o),
(551,-93,o),
(575,-89,c),
(575,55,l),
(525,55,l),
(525,105,l),
(625,105,l),
(625,-78,l),
(827,-24,o),
(975,161,o),
(975,380,cs),
(975,599,o),
(827,784,o),
(625,838,c),
(625,655,l),
(525,655,l),
(525,705,l),
(575,705,l),
(575,849,l),
(551,853,o),
(526,855,o),
(500,855,cs)
);
},
{
closed = 1;
nodes = (
(508,805,o),
(517,805,o),
(525,804,c),
(525,755,l),
(475,755,l),
(475,804,l),
(483,805,o),
(492,805,o),
(500,805,cs)
);
},
{
closed = 1;
nodes = (
(325,455,l),
(184,455,l),
(194,500,o),
(219,561,o),
(275,615,c),
(225,599,l),
(225,505,l),
(275,505,l),
(275,680,l),
(190,616,o),
(133,517,o),
(126,405,c),
(225,405,l),
(225,355,l),
(126,355,l),
(133,243,o),
(190,144,o),
(275,80,c),
(275,255,l),
(225,255,l),
(225,161,l),
(275,145,l),
(219,199,o),
(194,260,o),
(184,305,c),
(325,305,l),
(325,-7,l),
(177,59,o),
(75,208,o),
(75,380,cs),
(75,552,o),
(177,701,o),
(325,767,c)
);
},
{
closed = 1;
nodes = (
(375,605,l),
(475,605,l),
(475,555,l),
(375,555,l)
);
},
{
closed = 1;
nodes = (
(525,605,l),
(625,605,l),
(625,555,l),
(525,555,l)
);
},
{
closed = 1;
nodes = (
(375,505,l),
(475,505,l),
(475,455,l),
(425,455,l),
(425,305,l),
(475,305,l),
(475,255,l),
(375,255,l),
(375,355,l),
(275,355,l),
(275,405,l),
(375,405,l)
);
},
{
closed = 1;
nodes = (
(525,505,l),
(625,505,l),
(625,405,l),
(725,405,l),
(725,355,l),
(625,355,l),
(625,255,l),
(525,255,l),
(525,305,l),
(575,305,l),
(575,455,l),
(525,455,l)
);
},
{
closed = 1;
nodes = (
(475,405,l),
(525,405,l),
(525,355,l),
(475,355,l)
);
},
{
closed = 1;
nodes = (
(375,205,l),
(475,205,l),
(475,155,l),
(375,155,l)
);
},
{
closed = 1;
nodes = (
(525,205,l),
(625,205,l),
(625,155,l),
(525,155,l)
);
},
{
closed = 1;
nodes = (
(475,5,l),
(525,5,l),
(525,-44,l),
(517,-45,o),
(508,-45,o),
(500,-45,cs),
(492,-45,o),
(483,-45,o),
(475,-44,c)
);
},
{
closed = 1;
nodes = (
(823,701,o),
(925,552,o),
(925,380,cs),
(925,208,o),
(823,59,o),
(675,-7,c),
(675,305,l),
(816,305,l),
(806,260,o),
(781,199,o),
(725,145,c),
(775,161,l),
(775,255,l),
(725,255,l),
(725,80,l),
(810,144,o),
(867,243,o),
(874,355,c),
(775,355,l),
(775,405,l),
(874,405,l),
(867,517,o),
(810,616,o),
(725,680,c),
(725,505,l),
(775,505,l),
(775,599,l),
(725,615,l),
(781,561,o),
(806,500,o),
(816,455,c),
(675,455,l),
(675,767,l)
);
}
);
width = 1000;
},
{
layerId = m003;
shapes = (
{
closed = 1;
nodes = (
(469,855,o),
(438,852,o),
(408,846,c),
(408,678,l),
(450,678,l),
(450,662,l),
(392,662,l),
(392,843,l),
(182,794,o),
(25,605,o),
(25,380,cs),
(25,155,o),
(182,-34,o),
(392,-83,c),
(392,98,l),
(450,98,l),
(450,82,l),
(408,82,l),
(408,-86,l),
(438,-92,o),
(469,-95,o),
(500,-95,cs),
(531,-95,o),
(562,-92,o),
(592,-86,c),
(592,82,l),
(550,82,l),
(550,98,l),
(608,98,l),
(608,-83,l),
(818,-34,o),
(975,155,o),
(975,380,cs),
(975,605,o),
(818,794,o),
(608,843,c),
(608,662,l),
(550,662,l),
(550,678,l),
(592,678,l),
(592,846,l),
(562,852,o),
(531,855,o),
(500,855,cs)
);
},
{
closed = 1;
nodes = (
(504,775,o),
(508,775,o),
(512,775,c),
(512,758,l),
(488,758,l),
(488,775,l),
(492,775,o),
(496,775,o),
(500,775,cs)
);
},
{
closed = 1;
nodes = (
(312,468,l),
(214,468,l),
(230,519,o),
(259,564,o),
(297,599,c),
(216,622,l),
(216,484,l),
(297,484,l),
(297,700,l),
(193,634,o),
(124,519,o),
(121,388,c),
(217,388,l),
(217,372,l),
(121,372,l),
(124,241,o),
(193,126,o),
(297,60,c),
(297,276,l),
(216,276,l),
(216,138,l),
(297,161,l),
(259,196,o),
(230,241,o),
(214,292,c),
(312,292,l),
(312,33,l),
(189,99,o),
(105,230,o),
(105,380,cs),
(105,530,o),
(189,661,o),
(312,727,c)
);
},
{
closed = 1;
nodes = (
(392,582,l),
(450,582,l),
(450,565,l),
(392,565,l)
);
},
{
closed = 1;
nodes = (
(550,582,l),
(608,582,l),
(608,565,l),
(550,565,l)
);
},
{
closed = 1;
nodes = (
(392,485,l),
(450,485,l),
(450,468,l),
(408,468,l),
(408,292,l),
(450,292,l),
(450,275,l),
(392,275,l),
(392,372,l),
(297,372,l),
(297,388,l),
(392,388,l)
);
},
{
closed = 1;
nodes = (
(550,485,l),
(608,485,l),
(608,388,l),
(704,388,l),
(704,372,l),
(608,372,l),
(608,275,l),
(550,275,l),
(550,292,l),
(592,292,l),
(592,468,l),
(550,468,l)
);
},
{
closed = 1;
nodes = (
(488,388,l),
(512,388,l),
(512,372,l),
(488,372,l)
);
},
{
closed = 1;
nodes = (
(392,195,l),
(450,195,l),
(450,178,l),
(392,178,l)
);
},
{
closed = 1;
nodes = (
(550,195,l),
(608,195,l),
(608,178,l),
(550,178,l)
);
},
{
closed = 1;
nodes = (
(488,2,l),
(512,2,l),
(512,-15,l),
(508,-15,o),
(504,-15,o),
(500,-15,cs),
(496,-15,o),
(492,-15,o),
(488,-15,c)
);
},
{
closed = 1;
nodes = (
(811,661,o),
(895,530,o),
(895,380,cs),
(895,230,o),
(811,99,o),
(688,33,c),
(688,292,l),
(786,292,l),
(770,241,o),
(741,196,o),
(703,161,c),
(784,138,l),
(784,276,l),
(703,276,l),
(703,60,l),
(807,126,o),
(876,241,o),
(879,372,c),
(783,372,l),
(783,388,l),
(879,388,l),
(876,519,o),
(807,634,o),
(703,700,c),
(703,484,l),
(784,484,l),
(784,622,l),
(703,599,l),
(741,564,o),
(770,519,o),
(786,468,c),
(688,468,l),
(688,727,l)
);
}
);
width = 1000;
}
);
unicode = 127587;
},
{
glyphname = cent.full;
lastChange = "2022-10-31 15:32:47 +0000";
layers = (
{
layerId = m002;
shapes = (
{
closed = 1;
nodes = (
(569,758,l),
(531,758,l),
(531,663,l),
(381,646,o),
(288,532,o),
(288,359,cs),
(288,188,o),
(366,71,o),
(531,61,c),
(531,-49,l),
(569,-49,l),
(569,60,l),
(625,62,o),
(671,74,o),
(706,90,c),
(706,129,l),
(663,112,o),
(612,100,o),
(557,100,cs),
(400,100,o),
(332,210,o),
(332,359,cs),
(332,520,o),
(421,626,o),
(572,626,cs),
(614,626,o),
(659,618,o),
(702,599,c),
(712,637,l),
(670,656,o),
(626,665,o),
(569,665,c)
);
}
);
width = 1000;
},
{
layerId = m01;
shapes = (
{
closed = 1;
nodes = (
(572,758,l),
(497,758,l),
(497,666,l),
(368,646,o),
(283,560,o),
(283,360,cs),
(283,163,o),
(367,81,o),
(497,61,c),
(497,-49,l),
(570,-49,l),
(570,58,l),
(628,60,o),
(667,71,o),
(707,91,c),
(707,175,l),
(662,157,o),
(617,142,o),
(553,142,cs),
(441,142,o),
(382,208,o),
(382,361,cs),
(382,513,o),
(437,587,o),
(557,587,cs),
(597,587,o),
(650,573,o),
(688,558,c),
(717,639,l),
(680,655,o),
(627,668,o),
(572,670,c)
);
}
);
width = 1000;
},
{
layerId = m003;
shapes = (
{
closed = 1;
nodes = (
(586,758,l),
(475,758,l),
(475,669,l),
(336,642,o),
(240,544,o),
(240,359,cs),
(240,171,o),
(330,73,o),
(475,51,c),
(475,-49,l),
(586,-49,l),
(586,48,l),
(649,54,o),
(697,73,o),
(739,101,c),
(739,268,l),
(685,234,o),
(622,214,o),
(562,214,cs),
(498,214,o),
(454,255,o),
(454,360,cs),
(454,463,o),
(497,512,o),
(561,512,cs),
(607,512,o),
(647,498,o),
(698,476,c),
(760,631,l),
(709,656,o),
(650,673,o),
(586,676,c)
);
}
);
width = 1000;
}
);
unicode = 65504;
},
{
glyphname = dollar.full;
lastChange = "2022-10-28 13:28:36 +0000";
layers = (
{
layerId = m002;
shapes = (
{
closed = 1;
nodes = (
(515,-102,l),
(515,-17,l),
(640,-9,o),
(728,54,o),
(728,174,cs),
(728,290,o),
(642,331,o),
(515,375,c),
(515,690,l),
(564,689,o),
(622,678,o),
(681,652,c),
(696,689,l),
(638,714,o),
(578,728,o),
(515,730,c),
(515,797,l),
(480,797,l),
(480,729,l),
(359,722,o),
(272,659,o),
(272,545,cs),
(272,430,o),
(360,387,o),
(480,345,c),
(480,20,l),
(400,21,o),
(325,39,o),
(274,59,c),
(274,15,l),
(320,-2,o),
(389,-17,o),
(480,-18,c),
(480,-102,l)
);
},
{
closed = 1;
nodes = (
(515,332,l),
(623,292,o),
(685,259,o),
(685,173,cs),
(685,76,o),
(616,28,o),
(515,23,c)
);
},
{
closed = 1;
nodes = (
(387,420,o),
(315,455,o),
(315,548,cs),
(315,640,o),
(385,686,o),
(480,690,c),
(480,388,l)
);
}
);
width = 1000;
},
{
layerId = m01;
shapes = (
{
closed = 1;
nodes = (
(531,-102,l),
(531,20,l),
(671,35,o),
(750,102,o),
(750,204,cs),
(750,314,o),
(676,355,o),
(531,397,c),
(531,618,l),
(589,613,o),
(647,598,o),
(695,579,c),
(724,661,l),
(672,683,o),
(609,699,o),
(531,701,c),
(531,797,l),
(460,797,l),
(460,700,l),
(332,692,o),
(250,629,o),
(250,521,cs),
(250,416,o),
(315,362,o),
(460,323,c),
(460,101,l),
(386,102,o),
(300,123,o),
(250,146,c),
(250,52,l),
(298,30,o),
(379,17,o),
(460,16,c),
(460,-102,l)
);
},
{
closed = 1;
nodes = (
(531,300,l),
(627,276,o),
(655,252,o),
(655,197,cs),
(655,148,o),
(617,115,o),
(531,106,c)
);
},
{
closed = 1;
nodes = (
(372,443,o),
(345,470,o),
(345,529,cs),
(345,577,o),
(381,610,o),
(460,615,c),
(460,421,l)
);
}
);
width = 1000;
},
{
layerId = m003;
shapes = (
{
closed = 1;
nodes = (
(548,-102,l),
(548,-12,l),
(716,6,o),
(790,96,o),
(790,215,c),
(790,345,o),
(701,389,o),
(548,435,c),
(548,568,l),
(607,563,o),
(668,548,o),
(722,525,c),
(770,673,l),
(710,697,o),
(638,719,o),
(548,723,c),
(548,798,l),
(447,798,l),
(447,722,l),
(304,712,o),
(210,647,o),
(210,514,cs),
(210,373,o),
(311,320,o),
(447,280,c),
(447,145,l),
(380,150,o),
(297,169,o),
(227,200,c),
(227,31,l),
(289,5,o),
(353,-12,o),
(447,-14,c),
(447,-102,l)
);
},
{
closed = 1;
nodes = (
(548,255,l),
(597,239,o),
(611,225,o),
(611,197,cs),
(611,170,o),
(591,153,o),
(548,147,c)
);
},
{
closed = 1;
nodes = (
(403,479,o),
(387,494,o),
(387,522,cs),
(387,547,o),
(408,564,o),
(447,567,c),
(447,465,l)
);
}
);
width = 1000;
}
);
unicode = 65284;
},
{
glyphname = sterling.full;
lastChange = "2022-10-31 15:34:23 +0000";
layers = (
{
layerId = m002;
shapes = (
{
closed = 1;
nodes = (
(439,757,o),
(365,681,o),
(365,534,cs),
(365,364,l),
(250,364,l),
(250,327,l),
(365,327,l),
(365,174,ls),
(365,69,o),
(319,14,o),
(235,-2,c),
(235,-38,l),
(765,-38,l),
(765,2,l),
(322,2,l),
(371,27,o),
(408,75,o),
(408,175,cs),
(408,327,l),
(628,327,l),
(628,364,l),
(408,364,l),
(408,529,ls),
(408,659,o),
(461,719,o),
(568,719,cs),
(629,719,o),
(673,706,o),
(722,685,c),
(736,723,l),
(692,742,o),
(639,757,o),
(568,757,cs)
);
}
);
width = 1000;
},
{
layerId = m01;
shapes = (
{
closed = 1;
nodes = (
(420,757,o),
(332,680,o),
(332,549,cs),
(332,387,l),
(227,387,l),
(227,314,l),
(332,314,l),
(332,199,ls),
(332,102,o),
(286,59,o),
(223,43,c),
(223,-38,l),
(777,-38,l),
(777,50,l),
(354,50,l),
(393,73,o),
(429,111,o),
(429,200,cs),
(429,314,l),
(653,314,l),
(653,387,l),
(429,387,l),
(429,540,ls),
(429,636,o),
(474,677,o),
(558,677,cs),
(617,677,o),
(672,656,o),
(716,635,c),
(750,712,l),
(700,738,o),
(636,757,o),
(556,757,cs)
);
}
);
width = 1000;
},
{
layerId = m003;
shapes = (
{
closed = 1;
nodes = (
(403,760,o),
(304,689,o),
(304,523,cs),
(304,459,l),
(215,459,l),
(215,311,l),
(304,311,l),
(304,258,ls),
(304,184,o),
(274,164,o),
(216,130,c),
(216,-38,l),
(785,-38,l),
(785,137,l),
(425,137,l),
(463,156,o),
(510,189,o),
(510,259,cs),
(510,311,l),
(695,311,l),
(695,459,l),
(510,459,l),
(510,516,ls),
(510,575,o),
(537,590,o),
(571,590,cs),
(604,590,o),
(651,581,o),
(706,560,c),
(766,716,l),
(703,742,o),
(626,760,o),
(548,760,cs)
);
}
);
width = 1000;
}
);
unicode = 65505;
},
{
glyphname = won.full;
lastChange = "2022-10-31 15:44:05 +0000";
layers = (
{
layerId = m002;
shapes = (
{
closed = 1;
nodes = (
(357,-38,l),
(500,685,l),
(632,-38,l),
(678,-38,l),
(815,747,l),
(773,747,l),
(655,41,l),
(525,747,l),
(477,747,l),
(335,42,l),
(227,747,l),
(185,747,l),
(311,-38,l)
);
},
{
closed = 0;
nodes = (
(172,378,l),
(172,342,l)
);
},
{
closed = 1;
nodes = (
(828,342,l),
(828,378,l),
(172,378,l),
(172,342,l)
);
},
{
closed = 0;
nodes = (
(828,342,l),
(828,378,l)
);
}
);
width = 1000;
},
{
layerId = m01;
shapes = (
{
closed = 1;
nodes = (
(387,-38,l),
(501,644,l),
(620,-38,l),
(719,-38,l),
(849,747,l),
(762,747,l),
(667,76,l),
(552,747,l),
(451,747,l),
(338,81,l),
(239,747,l),
(151,747,l),
(289,-38,l)
);
},
{
closed = 0;
nodes = (
(143,397,l),
(143,326,l)
);
},
{
closed = 1;
nodes = (
(858,326,l),
(858,397,l),
(143,397,l),
(143,326,l)
);
},
{
closed = 0;
nodes = (
(858,397,l),
(858,326,l)
);
}
);
width = 1000;
},
{
layerId = m003;
shapes = (
{
closed = 1;
nodes = (
(411,-38,l),
(497,575,l),
(584,-38,l),
(776,-38,l),
(905,747,l),
(747,747,l),
(672,133,l),
(584,747,l),
(415,747,l),
(321,129,l),
(251,747,l),
(92,747,l),
(217,-38,l)
);
},
{
closed = 0;
nodes = (
(82,397,l),
(81,307,l)
);
},
{
closed = 1;
nodes = (
(919,307,l),
(919,397,l),
(81,397,l),
(82,307,l)
);
},
{
closed = 0;
nodes = (
(919,397,l),
(919,307,l)
);
}
);
width = 1000;
}
);
unicode = 65510;
},
{
glyphname = yen.full;
lastChange = "2022-10-31 15:46:03 +0000";
layers = (
{
layerId = m002;
shapes = (
{
closed = 1;
nodes = (
(522,-38,l),
(522,133,l),
(709,133,l),
(709,169,l),
(522,169,l),
(522,284,l),
(709,284,l),
(709,321,l),
(534,321,l),
(788,747,l),
(741,747,l),
(501,338,l),
(259,747,l),
(212,747,l),
(466,321,l),
(292,321,l),
(292,284,l),
(480,284,l),
(480,169,l),
(292,169,l),
(292,133,l),
(480,133,l),
(480,-38,l)
);
}
);
width = 1000;
},
{
layerId = m01;
shapes = (
{
closed = 1;
nodes = (
(547,-38,l),
(547,104,l),
(713,104,l),
(713,174,l),
(547,174,l),
(547,265,l),
(713,265,l),
(713,335,l),
(577,335,l),
(798,747,l),
(697,747,l),
(500,364,l),
(304,747,l),
(202,747,l),
(421,335,l),
(287,335,l),
(287,265,l),
(453,265,l),
(453,174,l),
(287,174,l),
(287,104,l),
(453,104,l),
(453,-38,l)
);
}
);
width = 1000;
},
{
layerId = m003;
shapes = (
{
closed = 1;
nodes = (
(598,-38,l),
(598,76,l),
(728,76,l),
(728,189,l),
(598,189,l),
(598,251,l),
(728,251,l),
(728,365,l),
(623,365,l),
(818,747,l),
(603,747,l),
(500,477,l),
(397,747,l),
(182,747,l),
(372,365,l),
(270,365,l),
(270,251,l),
(402,251,l),
(402,189,l),
(270,189,l),
(270,76,l),
(402,76,l),
(402,-38,l)
);
}
);
width = 1000;
}
);
unicode = 65509;
},
{
glyphname = bar.full;
lastChange = "2022-10-31 13:02:44 +0000";
layers = (
{
layerId = m002;
shapes = (
{
closed = 1;
nodes = (
(520,-86,l),
(520,846,l),
(480,846,l),
(480,-86,l)
);
}
);
width = 1000;
},
{
layerId = m01;
shapes = (
{
closed = 1;
nodes = (
(540,-86,l),
(540,846,l),
(460,846,l),
(460,-86,l)
);
}
);
width = 1000;
},
{
layerId = m003;
shapes = (
{
closed = 1;
nodes = (
(575,-86,l),
(575,846,l),
(425,846,l),
(425,-86,l)
);
}
);
width = 1000;
}
);
unicode = 65372;
},
{
glyphname = equal.full;
lastChange = "2022-10-28 15:42:39 +0000";
layers = (
{
layerId = m002;
shapes = (
{
closed = 1;
nodes = (
(165,470,l),
(835,470,l),
(835,510,l),
(165,510,l)
);
},
{
closed = 1;
nodes = (
(165,250,l),
(835,250,l),
(835,290,l),
(165,290,l)
);
}
);
width = 1000;
},
{
layerId = m01;
shapes = (
{
closed = 1;
nodes = (
(165,450,l),
(835,450,l),
(835,530,l),
(165,530,l)
);
},
{
closed = 1;
nodes = (
(165,230,l),
(835,230,l),
(835,310,l),
(165,310,l)
);
}
);
width = 1000;
},
{
layerId = m003;
shapes = (
{
closed = 1;
nodes = (
(150,430,l),
(850,430,l),
(850,580,l),
(150,580,l)
);
},
{
closed = 1;
nodes = (
(150,180,l),
(850,180,l),
(850,330,l),
(150,330,l)
);
}
);
width = 1000;
}
);
unicode = 65309;
},
{
glyphname = equals.circled;
lastChange = "2022-11-02 14:56:29 +0000";
layers = (
{
layerId = m002;
shapes = (
{
closed = 1;
nodes = (
(728,-55,o),
(912,129,o),
(912,357,cs),
(912,585,o),
(728,769,o),
(500,769,cs),
(272,769,o),
(88,585,o),
(88,357,cs),
(88,129,o),
(272,-55,o),
(500,-55,cs)
);
},
{
closed = 1;
nodes = (
(291,-22,o),
(121,148,o),
(121,357,cs),
(121,566,o),
(291,736,o),
(500,736,cs),
(709,736,o),
(879,566,o),
(879,357,cs),
(879,148,o),
(709,-22,o),
(500,-22,cs)
);
},
{
closed = 1;
nodes = (
(742,464,l),
(258,464,l),
(258,430,l),
(742,430,l)
);
},
{
closed = 1;
nodes = (
(742,284,l),
(258,284,l),
(258,250,l),
(742,250,l)
);
}
);
width = 1000;
},
{
layerId = m01;
shapes = (
{
closed = 1;
nodes = (
(728,-55,o),
(912,129,o),
(912,357,cs),
(912,585,o),
(728,769,o),
(500,769,cs),
(272,769,o),
(88,585,o),
(88,357,cs),
(88,129,o),
(272,-55,o),
(500,-55,cs)
);
},
{
closed = 1;
nodes = (
(303,1,o),
(144,160,o),
(144,357,cs),
(144,554,o),
(303,713,o),
(500,713,cs),
(697,713,o),
(856,554,o),
(856,357,cs),
(856,160,o),
(697,1,o),
(500,1,cs)
);
},
{
closed = 1;
nodes = (
(742,481,l),
(258,481,l),
(258,409,l),
(742,409,l)
);
},
{
closed = 1;
nodes = (
(742,305,l),
(258,305,l),
(258,233,l),
(742,233,l)
);
}
);
width = 1000;
},
{
layerId = m003;
shapes = (
{
closed = 1;
nodes = (
(747,-89,o),
(946,110,o),
(946,357,cs),
(946,604,o),
(747,803,o),
(500,803,cs),
(253,803,o),
(54,604,o),
(54,357,cs),
(54,110,o),
(253,-89,o),
(500,-89,cs)
);
},
{
closed = 1;
nodes = (
(313,21,o),
(164,170,o),
(164,357,cs),
(164,544,o),
(313,693,o),
(500,693,cs),
(687,693,o),
(836,544,o),
(836,357,cs),
(836,170,o),
(687,21,o),
(500,21,cs)
);
},
{
closed = 1;
nodes = (
(702,481,l),
(298,481,l),
(298,397,l),
(702,397,l)
);
},
{
closed = 1;
nodes = (
(702,317,l),
(298,317,l),
(298,233,l),
(702,233,l)
);
}
);
width = 1000;
}
);
unicode = 8860;
},
{
glyphname = less.full;
lastChange = "2022-10-29 09:16:15 +0000";
layers = (
{
layerId = m002;
shapes = (
{
closed = 1;
nodes = (
(753,169,l),
(299,381,l),
(753,591,l),
(753,631,l),
(247,393,l),
(247,367,l),
(753,129,l)
);
}
);
width = 1000;
},
{
layerId = m01;
shapes = (
{
closed = 1;
nodes = (
(759,195,l),
(344,384,l),
(759,565,l),
(759,651,l),
(241,408,l),
(241,352,l),
(759,109,l)
);
}
);
width = 1000;
},
{
layerId = m003;
shapes = (
{
closed = 1;
nodes = (
(772,237,l),
(438,386,l),
(772,523,l),
(772,683,l),
(228,426,l),
(228,333,l),
(772,77,l)
);
}
);
width = 1000;
}
);
unicode = 65308;
},
{
glyphname = plus.full;
lastChange = "2022-10-28 15:20:49 +0000";
layers = (
{
layerId = m002;
shapes = (
{
closed = 1;
nodes = (
(835,400,l),
(520,400,l),
(520,715,l),
(480,715,l),
(480,400,l),
(165,400,l),
(165,360,l),
(480,360,l),
(480,45,l),
(520,45,l),
(520,360,l),
(835,360,l)
);
}
);
width = 1000;
},
{
layerId = m01;
shapes = (
{
closed = 1;
nodes = (
(835,420,l),
(540,420,l),
(540,715,l),
(460,715,l),
(460,420,l),
(165,420,l),
(165,340,l),
(460,340,l),
(460,45,l),
(540,45,l),
(540,340,l),
(835,340,l)
);
}
);
width = 1000;
},
{
layerId = m003;
shapes = (
{
closed = 1;
nodes = (
(850,455,l),
(575,455,l),
(575,730,l),
(425,730,l),
(425,455,l),
(150,455,l),
(150,305,l),
(425,305,l),
(425,30,l),
(575,30,l),
(575,305,l),
(850,305,l)
);
}
);
width = 1000;
}
);
unicode = 65291;
},
{
glyphname = u16FE2;
lastChange = "2022-11-02 03:54:43 +0000";
layers = (
{
layerId = m002;
shapes = (
{
closed = 1;
nodes = (
(725,43,l),
(725,83,l),
(315,83,l),
(315,257,l),
(275,257,l),
(275,43,l)
);
}
);
width = 1000;
},
{
layerId = m01;
shapes = (
{
closed = 1;
nodes = (
(725,23,l),
(725,103,l),
(355,103,l),
(355,275,l),
(275,275,l),
(275,23,l)
);
}
);
width = 1000;
},
{
layerId = m003;
shapes = (
{
closed = 1;
nodes = (
(725,-26,l),
(725,104,l),
(405,104,l),
(405,316,l),
(275,316,l),
(275,-26,l)
);
}
);
width = 1000;
}
);
unicode = 94178;
},
{
glyphname = u16FE3;
lastChange = "2022-11-02 05:56:52 +0000";
layers = (
{
layerId = m002;
shapes = (
{
closed = 1;
nodes = (
(725,43,l),
(725,83,l),
(275,83,l),
(275,43,l)
);
},
{
closed = 1;
nodes = (
(725,217,l),
(725,257,l),
(275,257,l),
(275,217,l)
);
}
);
width = 1000;
},
{
layerId = m01;
shapes = (
{
closed = 1;
nodes = (
(725,23,l),
(725,103,l),
(275,103,l),
(275,23,l)
);
},
{
closed = 1;
nodes = (
(725,195,l),
(725,275,l),
(275,275,l),
(275,195,l)
);
}
);
width = 1000;
},
{
layerId = m003;
shapes = (
{
closed = 1;
nodes = (
(725,-26,l),
(725,104,l),
(275,104,l),
(275,-26,l)
);
},
{
closed = 1;
nodes = (
(725,186,l),
(725,316,l),
(275,316,l),
(275,186,l)
);
}
);
width = 1000;
}
);
unicode = 94179;
},
{
glyphname = u1F10D;
lastChange = "2022-11-02 16:10:06 +0000";
layers = (
{
layerId = m002;
shapes = (
{
closed = 1;
nodes = (
(728,-55,o),
(912,129,o),
(912,357,cs),
(912,585,o),
(728,769,o),
(500,769,cs),
(272,769,o),
(88,585,o),
(88,357,cs),
(88,129,o),
(272,-55,o),
(500,-55,cs)
);
},
{
closed = 1;
nodes = (
(291,-22,o),
(121,148,o),
(121,357,cs),
(121,566,o),
(291,736,o),
(500,736,cs),
(709,736,o),
(879,566,o),
(879,357,cs),
(879,148,o),
(709,-22,o),
(500,-22,cs)
);
},
{
closed = 1;
nodes = (
(599,135,o),
(654,205,o),
(654,359,cs),
(654,510,o),
(599,579,o),
(500,579,cs),
(401,579,o),
(346,510,o),
(346,359,cs),
(346,205,o),
(401,135,o),
(500,135,cs)
);
},
{
closed = 1;
nodes = (
(425,168,o),
(384,231,o),
(384,357,cs),
(384,483,o),
(425,547,o),
(500,547,cs),
(575,547,o),
(616,483,o),
(616,357,cs),
(616,231,o),
(575,168,o),
(500,168,cs)
);
},
{
closed = 1;
nodes = (
(611,495,l),
(362,245,l),
(388,219,l),
(638,469,l)
);
}
);
width = 1000;
},
{
layerId = m01;
shapes = (
{
closed = 1;
nodes = (
(728,-55,o),
(912,129,o),
(912,357,cs),
(912,585,o),
(728,769,o),
(500,769,cs),
(272,769,o),
(88,585,o),
(88,357,cs),
(88,129,o),
(272,-55,o),
(500,-55,cs)
);
},
{
closed = 1;
nodes = (
(303,1,o),
(144,160,o),
(144,357,cs),
(144,554,o),
(303,713,o),
(500,713,cs),
(697,713,o),
(856,554,o),
(856,357,cs),
(856,160,o),
(697,1,o),
(500,1,cs)
);
},
{
closed = 1;
nodes = (
(604,135,o),
(656,209,o),
(656,358,cs),
(656,505,o),
(604,579,o),
(500,579,cs),
(397,579,o),
(345,505,o),
(345,358,cs),
(345,209,o),
(397,135,o),
(500,135,cs)
);
},
{
closed = 1;
nodes = (
(443,193,o),
(415,248,o),
(415,357,cs),
(415,466,o),
(443,521,o),
(500,521,cs),
(557,521,o),
(586,467,o),
(586,358,cs),
(586,248,o),
(557,193,o),
(500,193,cs)
);
},
{
closed = 1;
nodes = (
(587,492,l),
(364,271,l),
(413,222,l),
(636,443,l)
);
}
);
width = 1000;
},
{
layerId = m003;
shapes = (
{
closed = 1;
nodes = (
(747,-89,o),
(946,110,o),
(946,357,cs),
(946,604,o),
(747,803,o),
(500,803,cs),
(253,803,o),
(54,604,o),
(54,357,cs),
(54,110,o),
(253,-89,o),
(500,-89,cs)
);
},
{
closed = 1;
nodes = (
(313,21,o),
(164,170,o),
(164,357,cs),
(164,544,o),
(313,693,o),
(500,693,cs),
(687,693,o),
(836,544,o),
(836,357,cs),
(836,170,o),
(687,21,o),
(500,21,cs)
);
},
{
closed = 1;
nodes = (
(620,128,o),
(662,213,o),
(662,356,cs),
(662,501,o),
(612,586,o),
(500,586,cs),
(381,586,o),
(339,501,o),
(339,356,cs),
(339,213,o),
(389,128,o),
(500,128,cs)
);
},
{
closed = 1;
nodes = (
(467,224,o),
(459,269,o),
(459,356,cs),
(459,445,o),
(467,490,o),
(500,490,cs),
(534,490,o),
(541,445,o),
(541,356,cs),
(541,268,o),
(534,224,o),
(500,224,cs)
);
},
{
closed = 1;
nodes = (
(565,471,l),
(385,293,l),
(434,243,l),
(615,422,l)
);
}
);
width = 1000;
}
);
unicode = 127245;
},
{
glyphname = u1F10E;
lastChange = "2022-11-02 16:22:46 +0000";
layers = (
{
layerId = m002;
shapes = (
{
closed = 1;
nodes = (
(728,-55,o),
(912,129,o),
(912,357,cs),
(912,585,o),
(728,769,o),
(500,769,cs),
(272,769,o),
(88,585,o),
(88,357,cs),
(88,129,o),
(272,-55,o),
(500,-55,cs)
);
},
{
closed = 1;
nodes = (
(291,-22,o),
(121,148,o),
(121,357,cs),
(121,566,o),
(291,736,o),
(500,736,cs),
(709,736,o),
(879,566,o),
(879,357,cs),
(879,148,o),
(709,-22,o),
(500,-22,cs)
);
},
{
closed = 1;
nodes = (
(393,107,o),
(299,170,o),
(272,289,c),
(395,289,l),
(413,232,o),
(458,204,o),
(500,204,cs),
(571,204,o),
(616,257,o),
(616,357,cs),
(616,457,o),
(571,510,o),
(500,510,cs),
(437,510,o),
(405,473,o),
(387,428,c),
(424,428,l),
(330,336,l),
(236,428,l),
(273,428,l),
(293,547,o),
(397,607,o),
(500,607,cs),
(650,607,o),
(736,505,o),
(736,357,cs),
(736,209,o),
(650,107,o),
(500,107,cs)
);
}
);
width = 1000;
},
{
layerId = m01;
shapes = (
{
closed = 1;
nodes = (
(728,-55,o),
(912,129,o),
(912,357,cs),
(912,585,o),
(728,769,o),
(500,769,cs),
(272,769,o),
(88,585,o),
(88,357,cs),
(88,129,o),
(272,-55,o),
(500,-55,cs)
);
},
{
closed = 1;
nodes = (
(303,1,o),
(144,160,o),
(144,357,cs),
(144,554,o),
(303,713,o),
(500,713,cs),
(697,713,o),
(856,554,o),
(856,357,cs),
(856,160,o),
(697,1,o),
(500,1,cs)
);
},
{
closed = 1;
nodes = (
(393,107,o),
(299,170,o),
(272,289,c),
(395,289,l),
(413,232,o),
(458,204,o),
(500,204,cs),
(571,204,o),
(616,257,o),
(616,357,cs),
(616,457,o),
(571,510,o),
(500,510,cs),
(437,510,o),
(405,473,o),
(387,428,c),
(424,428,l),
(330,336,l),
(236,428,l),
(273,428,l),
(293,547,o),
(397,607,o),
(500,607,cs),
(650,607,o),
(736,505,o),
(736,357,cs),
(736,209,o),
(650,107,o),
(500,107,cs)
);
}
);
width = 1000;
},
{
layerId = m003;
shapes = (
{
closed = 1;
nodes = (
(747,-89,o),
(946,110,o),
(946,357,cs),
(946,604,o),
(747,803,o),
(500,803,cs),
(253,803,o),
(54,604,o),
(54,357,cs),
(54,110,o),
(253,-89,o),
(500,-89,cs)
);
},
{
closed = 1;
nodes = (
(313,21,o),
(164,170,o),
(164,357,cs),
(164,544,o),
(313,693,o),
(500,693,cs),
(687,693,o),
(836,544,o),
(836,357,cs),
(836,170,o),
(687,21,o),
(500,21,cs)
);
},
{
closed = 1;
nodes = (
(393,107,o),
(299,170,o),
(272,289,c),
(395,289,l),
(413,232,o),
(458,204,o),
(500,204,cs),
(571,204,o),
(616,257,o),
(616,357,cs),
(616,457,o),
(571,510,o),
(500,510,cs),
(437,510,o),
(405,473,o),
(387,428,c),
(424,428,l),
(330,336,l),
(236,428,l),
(273,428,l),
(293,547,o),
(397,607,o),
(500,607,cs),
(650,607,o),
(736,505,o),
(736,357,cs),
(736,209,o),
(650,107,o),
(500,107,cs)
);
}
);
width = 1000;
}
);
unicode = 127246;
},
